<?xml version="1.0" encoding="UTF-8" standalone="no"?>
<!-- Created with Inkscape (http://www.inkscape.org/) -->

<svg
   xmlns:dc="http://purl.org/dc/elements/1.1/"
   xmlns:cc="http://creativecommons.org/ns#"
   xmlns:rdf="http://www.w3.org/1999/02/22-rdf-syntax-ns#"
   xmlns:svg="http://www.w3.org/2000/svg"
   xmlns="http://www.w3.org/2000/svg"
   xmlns:sodipodi="http://sodipodi.sourceforge.net/DTD/sodipodi-0.dtd"
   xmlns:inkscape="http://www.inkscape.org/namespaces/inkscape"
   width="1000"
   height="1000"
   viewBox="0 0 999.99996 999.99996"
   id="svg4401"
   version="1.1"
   inkscape:version="0.91 r13725"
   sodipodi:docname="lombokdev-logo.svg">
  <defs
     id="defs4403" />
  <sodipodi:namedview
     id="base"
     pagecolor="#ffffff"
     bordercolor="#666666"
     borderopacity="1.0"
     inkscape:pageopacity="0.0"
     inkscape:pageshadow="2"
     inkscape:zoom="0.35"
     inkscape:cx="953.57143"
     inkscape:cy="485.71429"
     inkscape:document-units="px"
     inkscape:current-layer="layer1"
     showgrid="false"
     width="200mm"
     units="px"
     inkscape:window-width="1366"
     inkscape:window-height="719"
     inkscape:window-x="0"
     inkscape:window-y="0"
     inkscape:window-maximized="1" />
  <metadata
     id="metadata4406">
    <rdf:RDF>
      <cc:Work
         rdf:about="">
        <dc:format>image/svg+xml</dc:format>
        <dc:type
           rdf:resource="http://purl.org/dc/dcmitype/StillImage" />
        <dc:title></dc:title>
      </cc:Work>
    </rdf:RDF>
  </metadata>
  <g
     inkscape:label="Layer 1"
     inkscape:groupmode="layer"
     id="layer1"
     transform="translate(0,-52.362248)">
    <g
       id="g5950">
      <g
         id="text5732"
         style="font-style:normal;font-weight:normal;font-size:223.04838562px;line-height:125%;font-family:sans-serif;letter-spacing:0px;word-spacing:0px;fill:#ff0000;fill-opacity:1;stroke:none;stroke-width:1px;stroke-linecap:butt;stroke-linejoin:miter;stroke-opacity:1"
         transform="matrix(0.99188305,-0.12715352,0.12715352,0.99188305,0,0)">
        <path
           id="path5925"
           style="font-style:normal;font-variant:normal;font-weight:normal;font-stretch:normal;font-family:FilmotypeKellog;-inkscape-font-specification:FilmotypeKellog;fill:#ff0000;fill-opacity:1"
           d="m 173.14542,657.01905 c 0,13.15986 0.66914,21.41265 2.23048,24.98142 1.56134,4.01487 8.02974,5.79926 19.18216,5.79926 6.02231,0 10.26023,-0.66914 12.71376,-2.45353 2.45353,-1.56134 5.13011,-4.90706 8.25279,-9.81413 6.69145,-11.15242 14.49815,-24.31227 23.42008,-39.70261 8.92194,-15.16729 16.28253,-27.21191 22.08179,-36.13384 -8.47584,30.78068 -12.49071,52.86247 -12.49071,66.24537 0,5.35316 0,9.59108 0.4461,12.49071 0.4461,3.12268 1.11524,6.02231 2.45353,9.14498 1.33829,3.12268 3.34573,5.13012 6.24536,6.46841 2.67658,1.33829 6.4684,2.00743 11.15241,2.00743 6.9145,0 14.7212,-2.67658 23.42009,-8.47584 8.69888,-5.57621 13.15985,-9.81413 13.15985,-12.71375 0,-1.33829 -0.66915,-2.45354 -1.78439,-3.79183 -1.33829,-1.11524 -2.23048,-1.78438 -3.12267,-1.78438 -0.4461,0 -2.89963,1.11524 -7.3606,3.12267 -4.68402,2.00744 -8.25279,2.89963 -10.92937,2.89963 -3.79182,0 -5.57621,-1.56134 -5.57621,-5.13011 0,-8.25279 2.23048,-22.52789 6.69145,-42.82529 4.46097,-20.07436 9.14498,-38.81042 13.829,-55.98515 4.46097,-17.17472 6.9145,-26.09666 6.9145,-26.7658 0,-1.33829 -0.89219,-2.89963 -2.67658,-4.23792 -1.78439,-1.33829 -4.23792,-2.23048 -7.3606,-2.23048 -7.58364,0 -13.15985,1.11524 -16.50558,3.12267 -3.56877,2.23049 -6.69145,5.35316 -9.36803,9.81413 l -66.91452,112.19334 c 0,-48.8476 1.78439,-87.88106 5.57621,-117.32345 1.11525,-3.56878 1.78439,-5.35316 1.78439,-5.57621 0,-1.78439 -1.78439,-3.34573 -4.90706,-4.68402 -3.34573,-1.11524 -7.13755,-1.78438 -11.37547,-1.78438 -5.57621,0 -10.48328,1.33829 -14.94424,3.56877 -4.46097,2.45353 -6.69146,5.13011 -6.69146,8.02974 0,1.78439 0,3.34573 0.4461,4.46097 -4.23792,13.60595 -12.26766,36.35689 -23.86618,68.47585 -11.82156,32.11897 -19.18216,52.63942 -21.85874,61.11526 -0.44609,1.33829 -1.33829,3.34573 -2.45353,6.02231 -1.11524,2.67658 -2.00744,5.13011 -2.45353,6.9145 -0.66915,1.78438 -0.8922,3.34572 -0.8922,4.46097 0,1.78438 0.66915,3.34572 2.45354,4.46096 1.56134,1.11525 3.79182,1.56134 6.4684,1.56134 2.89963,0 5.13011,-0.22305 6.9145,-1.11524 1.56134,-0.66915 2.67658,-1.56134 3.12268,-2.45353 0.44609,-0.8922 1.11524,-2.23049 1.78438,-4.46097 2.23049,-8.02974 5.13012,-16.50558 8.25279,-25.65056 3.12268,-8.92194 5.79926,-16.50558 8.02975,-22.52789 2.23048,-5.79926 5.13011,-13.829 9.14498,-24.08923 3.79182,-10.03717 6.4684,-17.39777 8.25279,-22.08179 0,5.13012 -0.22305,14.49815 -0.4461,28.1041 -0.44609,13.60595 -0.44609,22.97398 -0.44609,28.32714 z" />
        <path
           id="path5927"
           style="font-style:normal;font-variant:normal;font-weight:normal;font-stretch:normal;font-family:FilmotypeKellog;-inkscape-font-specification:FilmotypeKellog;fill:#ff0000;fill-opacity:1"
           d="m 386.87108,622.22351 c 0,-4.90707 -2.89962,-9.59108 -8.25279,-14.2751 -5.57621,-4.46097 -11.37546,-8.02974 -17.39777,-10.48327 -6.24535,-2.23049 -10.92937,-3.56878 -14.49815,-3.56878 -8.25279,0 -16.05948,5.13011 -23.64312,14.94424 -7.58365,10.03718 -13.15986,20.96655 -17.17473,32.78812 -4.01487,12.04461 -5.79926,21.85874 -5.79926,29.88848 0,8.47584 4.46097,16.05948 13.38291,22.30484 6.24535,4.68401 15.16729,6.9145 26.31971,6.9145 8.92193,0 20.07435,-3.56878 33.45725,-10.92937 14.7212,-8.02974 22.30484,-14.94424 22.30484,-20.29741 0,-2.67658 -0.89219,-4.01487 -2.67658,-4.01487 -0.89219,0 -6.4684,2.89963 -16.95168,8.47584 -14.94424,8.02974 -27.88104,12.04461 -39.03346,12.04461 -3.12268,0 -6.24536,-0.89219 -8.92194,-3.12267 -2.89963,-2.23049 -4.23792,-4.90707 -4.23792,-8.25279 0,-3.79183 0.4461,-8.25279 1.78439,-13.60595 10.70632,0 20.07435,-1.56134 28.55019,-4.46097 8.47584,-2.67658 14.94424,-6.24536 19.40521,-10.48328 4.46097,-4.01487 7.80669,-8.25279 10.03718,-12.26766 2.23048,-4.01487 3.34572,-8.02974 3.34572,-11.59851 z m -27.658,-11.15242 c 2.00744,0 3.79183,0.66914 5.13012,1.78438 1.33829,1.33829 2.23048,2.89963 2.23048,4.68402 0,5.57621 -3.12268,11.82156 -8.92193,18.51302 -6.02231,6.69145 -13.60596,10.03717 -22.97399,10.03717 -1.78438,0 -3.12268,0 -4.01487,-0.22304 4.01487,-9.36804 8.69889,-17.62083 14.05205,-24.53533 5.35316,-6.69145 10.26023,-10.26022 14.49814,-10.26022 z" />
        <path
           id="path5929"
           style="font-style:normal;font-variant:normal;font-weight:normal;font-stretch:normal;font-family:FilmotypeKellog;-inkscape-font-specification:FilmotypeKellog;fill:#ff0000;fill-opacity:1"
           d="m 473.12807,622.22351 c 0,-4.90707 -2.89963,-9.59108 -8.25279,-14.2751 -5.57621,-4.46097 -11.37547,-8.02974 -17.39777,-10.48327 -6.24536,-2.23049 -10.92937,-3.56878 -14.49815,-3.56878 -8.25279,0 -16.05948,5.13011 -23.64313,14.94424 -7.58364,10.03718 -13.15985,20.96655 -17.17472,32.78812 -4.01487,12.04461 -5.79926,21.85874 -5.79926,29.88848 0,8.47584 4.46097,16.05948 13.3829,22.30484 6.24536,4.68401 15.16729,6.9145 26.31971,6.9145 8.92194,0 20.07436,-3.56878 33.45726,-10.92937 14.72119,-8.02974 22.30484,-14.94424 22.30484,-20.29741 0,-2.67658 -0.89219,-4.01487 -2.67658,-4.01487 -0.89219,0 -6.4684,2.89963 -16.95168,8.47584 -14.94424,8.02974 -27.88105,12.04461 -39.03347,12.04461 -3.12267,0 -6.24535,-0.89219 -8.92193,-3.12267 -2.89963,-2.23049 -4.23792,-4.90707 -4.23792,-8.25279 0,-3.79183 0.4461,-8.25279 1.78439,-13.60595 10.70632,0 20.07435,-1.56134 28.55019,-4.46097 8.47584,-2.67658 14.94424,-6.24536 19.40521,-10.48328 4.46097,-4.01487 7.80669,-8.25279 10.03718,-12.26766 2.23048,-4.01487 3.34572,-8.02974 3.34572,-11.59851 z m -27.658,-11.15242 c 2.00744,0 3.79183,0.66914 5.13012,1.78438 1.33829,1.33829 2.23048,2.89963 2.23048,4.68402 0,5.57621 -3.12268,11.82156 -8.92194,18.51302 -6.0223,6.69145 -13.60595,10.03717 -22.97398,10.03717 -1.78439,0 -3.12268,0 -4.01487,-0.22304 4.01487,-9.36804 8.69889,-17.62083 14.05205,-24.53533 5.35316,-6.69145 10.26022,-10.26022 14.49814,-10.26022 z" />
        <path
           id="path5931"
           style="font-style:normal;font-variant:normal;font-weight:normal;font-stretch:normal;font-family:FilmotypeKellog;-inkscape-font-specification:FilmotypeKellog;fill:#ff0000;fill-opacity:1"
           d="m 465.70474,594.11941 c 0,2.67658 1.78439,4.68402 5.35316,6.4684 3.56877,1.78439 8.69889,2.67658 15.61339,2.67658 l 2.45353,0 c -12.71376,40.37176 -18.95911,64.23794 -18.95911,71.59854 0,7.13754 1.78438,12.49071 5.79926,15.83643 4.01487,3.56877 8.92193,5.13011 15.16729,5.13011 5.35316,0 14.72119,-2.89963 27.658,-9.14498 9.14498,-4.23792 14.27509,-7.13755 15.16729,-8.69889 1.78438,-3.12267 2.89962,-5.79926 2.89962,-7.58364 0,-2.00744 -0.89219,-3.12268 -2.67658,-3.12268 -0.66914,0 -5.79925,2.00744 -15.39033,5.79926 -9.59109,3.79182 -16.05949,5.57621 -19.62826,5.57621 -2.23049,0 -3.12268,-1.56134 -3.12268,-5.13011 0,-10.70633 6.24535,-34.34946 18.95911,-71.37549 0.66915,0 2.45353,0 5.35316,-0.22305 2.89963,0 5.57621,-0.22305 8.02975,-0.44609 2.23048,-0.22305 4.90706,-0.66915 7.58364,-1.11525 2.67658,-0.44609 4.68402,-1.33829 6.24536,-2.67658 1.33829,-1.33829 2.23048,-2.89962 2.23048,-4.68401 0,-3.56878 -1.56134,-6.02231 -4.46097,-7.3606 -3.12268,-1.11524 -7.80669,-1.78439 -14.05205,-1.78439 l -4.68401,0 1.33829,-4.68401 c 1.33829,-4.90707 2.89963,-8.69889 4.23792,-11.82157 1.33829,-3.12267 2.45353,-5.13011 3.34572,-6.0223 0.66915,-0.8922 1.11524,-1.78439 1.11524,-2.67658 0,-3.12268 -4.23791,-4.68402 -12.26766,-4.68402 -6.24535,0 -10.70632,1.33829 -13.60595,3.56877 -3.12268,2.23049 -4.90706,6.69146 -5.79926,12.93681 l -5.13011,15.61339 c -11.59851,1.33829 -19.40521,2.67658 -23.19703,3.56877 -3.79182,1.11524 -5.57621,2.67658 -5.57621,4.46097 z" />
        <path
           id="path5933"
           style="font-style:normal;font-variant:normal;font-weight:normal;font-stretch:normal;font-family:FilmotypeKellog;-inkscape-font-specification:FilmotypeKellog;fill:#ff0000;fill-opacity:1"
           d="m 556.12299,599.69562 c -4.01487,0 -6.9145,0.66914 -9.14498,1.78439 -2.23049,1.33829 -3.34573,3.56877 -3.79183,6.69145 -4.01487,10.26022 -7.13754,18.06692 -9.14498,23.42008 -2.00743,5.57621 -4.23792,12.93681 -6.4684,21.85874 -2.23049,8.92194 -3.34573,16.72863 -3.34573,22.97398 0,5.79926 1.11524,10.03718 3.56878,12.93681 2.45353,2.89963 7.13754,4.23792 14.27509,4.23792 2.67658,0.89219 5.35316,1.33829 8.25279,1.33829 6.24536,0 10.92937,-1.33829 14.49815,-4.01487 3.56877,-2.67658 9.14498,-8.92194 16.95168,-18.51302 0.66914,13.829 7.80669,20.7435 21.18959,20.7435 6.02231,0 14.2751,-3.12267 24.53532,-9.36803 8.69889,-5.35316 13.15986,-9.81413 13.15986,-12.93681 0,-2.23048 -0.89219,-3.34572 -2.67658,-3.34572 -2.23049,0 -6.69145,2.00743 -13.60595,5.79926 -7.8067,4.23792 -12.49071,6.24535 -14.05205,6.24535 -2.67658,0 -4.01487,-3.12268 -4.01487,-9.81413 0,-3.56877 0.89219,-9.36803 3.12268,-17.17472 2.23048,-7.58365 4.68401,-14.7212 7.36059,-20.96655 0.66915,-1.78439 2.00744,-4.01487 4.23792,-6.69145 2.23049,-2.67658 3.34573,-4.90707 3.34573,-6.69145 0,-4.23792 -3.34573,-6.46841 -10.03718,-6.46841 -9.14498,0 -14.72119,2.45353 -16.95168,6.9145 -4.90706,10.26023 -10.48327,19.85131 -16.72863,28.99629 -6.0223,8.92194 -12.26766,16.72863 -18.51301,23.64313 -6.46841,7.13755 -10.70633,10.48328 -12.49071,10.48328 -0.8922,0 -1.11524,-1.33829 -1.11524,-4.23792 0,-11.37547 5.35316,-30.78068 16.50558,-58.43868 0.89219,-2.23048 1.78438,-4.68402 2.89963,-7.13755 1.11524,-2.23048 2.00743,-4.01487 2.45353,-5.13011 0.44609,-1.11524 0.89219,-1.78439 0.89219,-2.00744 0,-0.89219 -1.56134,-2.00743 -4.68401,-3.34572 -3.12268,-1.11525 -6.69146,-1.78439 -10.48328,-1.78439 z" />
        <path
           id="path5935"
           style="font-style:normal;font-variant:normal;font-weight:normal;font-stretch:normal;font-family:FilmotypeKellog;-inkscape-font-specification:FilmotypeKellog;fill:#ff0000;fill-opacity:1"
           d="m 664.90438,693.15289 c 9.36803,0 18.06692,-2.45353 25.87361,-7.36059 7.80669,-4.90707 13.829,-10.70633 18.06692,-17.84387 4.23792,-6.9145 7.58364,-13.60596 9.81413,-20.07436 2.23048,-6.24535 3.34572,-11.82156 3.34572,-16.28253 0,-2.89963 -0.22305,-5.13011 -0.22305,-6.9145 0,-1.56134 -0.44609,-3.56878 -0.89219,-6.02231 -0.66914,-2.45353 -1.56134,-4.46097 -2.45353,-5.79926 -1.11524,-1.33829 -2.67658,-2.45353 -4.68402,-3.79182 -2.23048,-1.11524 -4.68401,-2.00743 -7.80669,-2.45353 -3.34573,-1.11524 -6.02231,-1.78439 -8.02974,-1.78439 -5.57621,0 -10.70632,1.33829 -15.39034,4.01487 -4.68402,2.67658 -9.81413,6.9145 -15.39034,13.15986 7.80669,-20.07436 11.82156,-31.22678 11.82156,-33.68031 0,-4.46097 -3.79182,-6.69145 -11.37546,-6.69145 -5.57621,0 -9.36804,1.78439 -11.59852,4.90706 -2.23048,3.12268 -5.79926,11.15242 -10.48327,24.08923 -6.46841,17.39777 -15.61339,45.50187 -27.43495,84.31229 -11.82157,38.81042 -17.62083,60.22306 -17.62083,64.68403 0,4.01487 2.00744,5.79926 6.24536,5.79926 1.78438,0 7.13755,-1.11524 16.28253,-3.56877 0.89219,-0.22305 1.78439,-1.11525 2.45353,-2.89963 8.25279,-33.45726 14.94424,-57.54649 20.29741,-72.26768 5.79925,4.46097 12.26766,6.4684 19.18216,6.4684 z m 28.99629,-72.49072 c 1.33829,0 2.45353,0.44609 2.89963,1.11524 0.44609,0.66914 0.89219,1.78439 0.89219,3.56877 0,6.02231 -1.56134,13.15986 -4.23792,21.41265 -2.89963,8.47584 -6.69145,15.83643 -11.59852,22.52789 -4.90706,6.69145 -9.81413,9.81412 -14.49814,9.81412 -5.79926,0 -10.70632,-3.34572 -14.49815,-10.48327 4.90707,-10.03718 11.82157,-20.52045 20.7435,-31.44982 8.92194,-10.92937 15.61339,-16.50558 20.29741,-16.50558 z" />
      </g>
      <g
         transform="matrix(0.60894679,0,0,0.60894679,192.34713,115.32748)"
         id="g5089">
        <path
           inkscape:connector-curvature="0"
           id="path5912"
           style="font-style:normal;font-variant:normal;font-weight:normal;font-stretch:normal;font-size:medium;line-height:125%;font-family:sans-serif;-inkscape-font-specification:sans-serif;letter-spacing:0px;word-spacing:0px;fill:#ff0000;fill-opacity:1;stroke:none;stroke-width:1px;stroke-linecap:butt;stroke-linejoin:miter;stroke-opacity:1"
           d="m 592.20698,593.87198 0,7.46242 -3.21298,0 q -12.9038,0 -17.30869,-3.83485 -4.35311,-3.83484 -4.35311,-15.2876 l 0,-12.38558 q 0,-7.82519 -2.7984,-10.8309 -2.79843,-3.0057 -10.15722,-3.0057 l -3.16116,0 0,-7.41061 3.16116,0 q 7.4106,0 10.15722,-2.95389 2.7984,-3.00571 2.7984,-10.72726 l 0,-12.43739 q 0,-11.45276 4.35311,-15.23579 4.40489,-3.83485 17.30869,-3.83485 l 3.21298,0 0,7.4106 -3.52393,0 q -7.30697,0 -9.53532,2.28018 -2.22836,2.28021 -2.22836,9.58717 l 0,12.85194 q 0,8.13614 -2.38385,11.81553 -2.33199,3.67939 -8.03246,4.97497 5.75229,1.39922 8.08428,5.07861 2.33203,3.67939 2.33203,11.76368 l 0,12.85197 q 0,7.30697 2.22836,9.58718 2.22835,2.28017 9.53532,2.28017 l 3.52393,0 z" />
        <path
           inkscape:connector-curvature="0"
           id="path5914"
           style="font-style:normal;font-variant:normal;font-weight:bold;font-stretch:normal;font-size:medium;line-height:125%;font-family:'Padauk Book';-inkscape-font-specification:'Padauk Book, Bold';letter-spacing:0px;word-spacing:0px;fill:#ff0000;fill-opacity:1;stroke:none;stroke-width:1px;stroke-linecap:butt;stroke-linejoin:miter;stroke-opacity:1"
           d="m 667.71232,550.65206 q 0,8.2916 -2.69476,14.51029 -2.6948,6.2187 -7.46246,10.46813 -4.76766,4.1458 -11.2973,6.32234 -6.42597,2.07289 -13.99207,2.07289 l -20.21072,0 0,-66.64366 20.21072,0 q 7.98068,0 14.51029,2.28017 6.52965,2.28018 11.19367,6.52965 4.66402,4.24943 7.15151,10.46813 2.59112,6.11502 2.59112,13.99206 z m -13.68115,0 q 0,-22.69824 -21.76544,-22.69824 l -6.5296,0 0,45.50013 6.5296,0 q 21.76544,0 21.76544,-22.80189 z" />
        <path
           inkscape:connector-curvature="0"
           id="path5916"
           style="font-style:normal;font-variant:normal;font-weight:bold;font-stretch:normal;font-size:medium;line-height:125%;font-family:'Padauk Book';-inkscape-font-specification:'Padauk Book, Bold';letter-spacing:0px;word-spacing:0px;fill:#ff0000;fill-opacity:1;stroke:none;stroke-width:1px;stroke-linecap:butt;stroke-linejoin:miter;stroke-opacity:1"
           d="m 679.42418,584.02571 0,-66.64366 43.94545,0 0,10.57177 -30.78253,0 0,16.47955 28.91691,0 0,10.05354 -28.91691,0 0,18.96704 31.71534,0 0,10.57176 -44.87826,0 z" />
        <path
           inkscape:connector-curvature="0"
           id="path5918"
           style="font-style:normal;font-variant:normal;font-weight:bold;font-stretch:normal;font-size:medium;line-height:125%;font-family:'Padauk Book';-inkscape-font-specification:'Padauk Book, Bold';letter-spacing:0px;word-spacing:0px;fill:#ff0000;fill-opacity:1;stroke:none;stroke-width:1px;stroke-linecap:butt;stroke-linejoin:miter;stroke-opacity:1"
           d="m 772.49733,584.02571 -16.27227,0 -24.56383,-66.64366 14.71756,0 18.34517,51.3042 18.55242,-51.3042 14.61396,0 -25.39301,66.64366 z" />
        <path
           inkscape:connector-curvature="0"
           id="path5920"
           style="font-style:normal;font-weight:normal;font-size:medium;line-height:125%;font-family:sans-serif;letter-spacing:0px;word-spacing:0px;fill:#ff0000;fill-opacity:1;stroke:none;stroke-width:1px;stroke-linecap:butt;stroke-linejoin:miter;stroke-opacity:1"
           d="m 812.19332,593.87198 3.62757,0 q 7.25515,0 9.43168,-2.22835 2.22836,-2.22839 2.22836,-9.639 l 0,-12.85197 q 0,-8.08429 2.33203,-11.76368 2.33199,-3.67939 8.08431,-5.07861 -5.75232,-1.29558 -8.08431,-4.97497 -2.33203,-3.67939 -2.33203,-11.81553 l 0,-12.85194 q 0,-7.35878 -2.22836,-9.58717 -2.17653,-2.28018 -9.43168,-2.28018 l -3.62757,0 0,-7.4106 3.2648,0 q 12.9038,0 17.20505,3.83485 4.35311,3.78303 4.35311,15.23579 l 0,12.43739 q 0,7.72155 2.7984,10.72726 2.79843,2.95389 10.15722,2.95389 l 3.21298,0 0,7.41061 -3.21298,0 q -7.35879,0 -10.15722,3.0057 -2.7984,3.00571 -2.7984,10.8309 l 0,12.38558 q 0,11.45276 -4.35311,15.2876 -4.30125,3.83485 -17.20505,3.83485 l -3.2648,0 0,-7.46242 z" />
      </g>
      <g
         transform="matrix(0.60894679,0,0,0.60894679,192.34713,115.32748)"
         id="g5096">
        <path
           inkscape:connector-curvature="0"
           d="m 146.815,585.68424 0,-66.64367 13.68112,0 0,56.0719 30.16067,0 0,10.57177 -43.84179,0 z"
           style="font-style:normal;font-variant:normal;font-weight:bold;font-stretch:normal;font-size:medium;line-height:125%;font-family:'Padauk Book';-inkscape-font-specification:'Padauk Book, Bold';letter-spacing:0px;word-spacing:0px;fill:#1a1a1a;fill-opacity:1;stroke:none;stroke-width:1px;stroke-linecap:butt;stroke-linejoin:miter;stroke-opacity:1"
           id="path5899" />
        <path
           inkscape:connector-curvature="0"
           d="m 261.13533,552.31058 q 0,7.56606 -2.07289,13.88843 -2.0729,6.32234 -6.11506,10.98636 -4.04213,4.56038 -9.94991,7.1515 -5.80411,2.59109 -13.3702,2.59109 -7.98065,0 -13.99206,-2.69476 -5.90775,-2.7984 -9.84627,-7.46242 -3.93849,-4.66402 -5.90775,-10.98635 -1.96926,-6.32234 -1.96926,-13.47385 0,-7.56609 2.0729,-13.88842 2.17653,-6.32234 6.21869,-10.88272 4.04216,-4.56038 9.94991,-7.15151 5.90778,-2.59112 13.47384,-2.59112 7.87704,0 13.78479,2.79843 6.01142,2.69477 9.84627,7.46243 3.93852,4.66402 5.90774,10.98635 1.96926,6.2187 1.96926,13.26656 z m -13.99206,0 q 0,-23.94197 -17.516,-23.94197 -17.61964,0 -17.61964,23.94197 0,24.04561 17.61964,24.04561 17.516,0 17.516,-24.04561 z"
           style="font-style:normal;font-variant:normal;font-weight:bold;font-stretch:normal;font-size:medium;line-height:125%;font-family:'Padauk Book';-inkscape-font-specification:'Padauk Book, Bold';letter-spacing:0px;word-spacing:0px;fill:#1a1a1a;fill-opacity:1;stroke:none;stroke-width:1px;stroke-linecap:butt;stroke-linejoin:miter;stroke-opacity:1"
           id="path5901" />
        <path
           inkscape:connector-curvature="0"
           d="m 332.65033,585.68424 0,-55.3464 -16.79046,55.3464 -13.3702,0 -16.79047,-55.3464 0,55.3464 -12.85197,0 0,-66.64367 22.07634,0 14.30302,48.19489 14.30301,-48.50584 22.17999,0 0,66.95462 -13.05926,0 z"
           style="font-style:normal;font-variant:normal;font-weight:bold;font-stretch:normal;font-size:medium;line-height:125%;font-family:'Padauk Book';-inkscape-font-specification:'Padauk Book, Bold';letter-spacing:0px;word-spacing:0px;fill:#1a1a1a;fill-opacity:1;stroke:none;stroke-width:1px;stroke-linecap:butt;stroke-linejoin:miter;stroke-opacity:1"
           id="path5903" />
        <path
           inkscape:connector-curvature="0"
           d="m 409.34758,568.47919 q 0,4.24943 -2.17654,7.46242 -2.17653,3.21302 -5.49319,5.38955 -3.31663,2.17654 -7.25515,3.31663 -3.93848,1.03645 -7.46242,1.03645 l -28.29508,0 0,-66.64367 27.36227,0 q 3.93852,0 7.56609,1.03645 3.62758,1.03645 6.32234,3.10935 2.7984,1.96922 4.45674,5.07857 1.65831,3.00571 1.65831,7.04787 0,3.31662 -1.14008,5.80411 -1.03645,2.38385 -2.79844,4.24943 -1.76195,1.86563 -4.24943,3.31666 -2.38385,1.34737 -4.97497,2.48749 3.62757,1.14008 6.63328,2.48745 3.00571,1.3474 5.18225,3.42029 2.17653,1.96927 3.42029,4.76766 1.24373,2.79844 1.24373,6.63329 z M 392.3498,538.00757 q 0,-2.17654 -0.93277,-3.73121 -0.93281,-1.55467 -2.38385,-2.59112 -1.45104,-1.03645 -3.31662,-1.55468 -1.76199,-0.51822 -3.62758,-0.51822 l -9.74263,0 0,16.47955 8.80982,0 q 2.0729,0 4.04216,-0.51823 2.0729,-0.51822 3.62757,-1.55467 1.55468,-1.03645 2.48745,-2.48748 1.03645,-1.55468 1.03645,-3.52394 z m 2.79844,27.77686 q 0,-2.59113 -1.24376,-4.35311 -1.14009,-1.86559 -3.00568,-2.90204 -1.86562,-1.14009 -4.24947,-1.55467 -2.28017,-0.51823 -4.56035,-0.51823 l -9.74263,0 0,18.65609 9.74263,0 q 2.69477,0 5.07858,-0.51823 2.38384,-0.51822 4.14579,-1.55467 1.76199,-1.14009 2.79844,-2.90207 1.03645,-1.76195 1.03645,-4.35307 z"
           style="font-style:normal;font-variant:normal;font-weight:bold;font-stretch:normal;font-size:medium;line-height:125%;font-family:'Padauk Book';-inkscape-font-specification:'Padauk Book, Bold';letter-spacing:0px;word-spacing:0px;fill:#1a1a1a;fill-opacity:1;stroke:none;stroke-width:1px;stroke-linecap:butt;stroke-linejoin:miter;stroke-opacity:1"
           id="path5905" />
        <path
           inkscape:connector-curvature="0"
           d="m 482.52092,552.31058 q 0,7.56606 -2.07289,13.88843 -2.0729,6.32234 -6.11506,10.98636 -4.04216,4.56038 -9.94991,7.1515 -5.80414,2.59109 -13.3702,2.59109 -7.98068,0 -13.99207,-2.69476 -5.90778,-2.7984 -9.84626,-7.46242 -3.93852,-4.66402 -5.90779,-10.98635 -1.96922,-6.32234 -1.96922,-13.47385 0,-7.56609 2.0729,-13.88842 2.17653,-6.32234 6.21869,-10.88272 4.04213,-4.56038 9.94991,-7.15151 5.90775,-2.59112 13.47384,-2.59112 7.87701,0 13.78475,2.79843 6.01142,2.69477 9.84627,7.46243 3.93852,4.66402 5.90778,10.98635 1.96926,6.2187 1.96926,13.26656 z m -13.99206,0 q 0,-23.94197 -17.516,-23.94197 -17.61964,0 -17.61964,23.94197 0,24.04561 17.61964,24.04561 17.516,0 17.516,-24.04561 z"
           style="font-style:normal;font-variant:normal;font-weight:bold;font-stretch:normal;font-size:medium;line-height:125%;font-family:'Padauk Book';-inkscape-font-specification:'Padauk Book, Bold';letter-spacing:0px;word-spacing:0px;fill:#1a1a1a;fill-opacity:1;stroke:none;stroke-width:1px;stroke-linecap:butt;stroke-linejoin:miter;stroke-opacity:1"
           id="path5907" />
        <path
           inkscape:connector-curvature="0"
           d="m 531.95954,585.68424 -24.04564,-33.37366 0,33.37366 -13.68112,0 0,-66.64367 13.68112,0 0,28.60599 22.18002,-28.60599 15.75401,0 -23.52738,29.84972 26.32582,36.79395 -16.68683,0 z"
           style="font-style:normal;font-variant:normal;font-weight:bold;font-stretch:normal;font-size:medium;line-height:125%;font-family:'Padauk Book';-inkscape-font-specification:'Padauk Book, Bold';letter-spacing:0px;word-spacing:0px;fill:#1a1a1a;fill-opacity:1;stroke:none;stroke-width:1px;stroke-linecap:butt;stroke-linejoin:miter;stroke-opacity:1"
           id="path5909" />
      </g>
    </g>
  </g>
</svg>
