<?xml version="1.0" encoding="UTF-8" standalone="no"?>
<!-- Created with Inkscape (http://www.inkscape.org/) -->

<svg
   xmlns:dc="http://purl.org/dc/elements/1.1/"
   xmlns:cc="http://creativecommons.org/ns#"
   xmlns:rdf="http://www.w3.org/1999/02/22-rdf-syntax-ns#"
   xmlns:svg="http://www.w3.org/2000/svg"
   xmlns="http://www.w3.org/2000/svg"
   xmlns:sodipodi="http://sodipodi.sourceforge.net/DTD/sodipodi-0.dtd"
   xmlns:inkscape="http://www.inkscape.org/namespaces/inkscape"
   width="1196.2966"
   height="1414.259"
   viewBox="0 0 1196.2966 1414.259"
   id="svg4401"
   version="1.1"
   inkscape:version="0.92.3 (unknown)"
   sodipodi:docname="lombokdev.svg"
   inkscape:export-filename="/home/khairulimam/workspaces/lombokdev/designs/ldm4form-header.png"
   inkscape:export-xdpi="96"
   inkscape:export-ydpi="96">
  <defs
     id="defs4403" />
  <sodipodi:namedview
     id="base"
     pagecolor="#ffffff"
     bordercolor="#666666"
     borderopacity="1.0"
     inkscape:pageopacity="0"
     inkscape:pageshadow="2"
     inkscape:zoom="0.22627417"
     inkscape:cx="-317.7944"
     inkscape:cy="387.38175"
     inkscape:document-units="px"
     inkscape:current-layer="layer1"
     showgrid="false"
     width="200mm"
     units="px"
     inkscape:window-width="1366"
     inkscape:window-height="715"
     inkscape:window-x="0"
     inkscape:window-y="30"
     inkscape:window-maximized="1"
     fit-margin-top="0"
     fit-margin-left="0"
     fit-margin-right="0"
     fit-margin-bottom="0" />
  <metadata
     id="metadata4406">
    <rdf:RDF>
      <cc:Work
         rdf:about="">
        <dc:format>image/svg+xml</dc:format>
        <dc:type
           rdf:resource="http://purl.org/dc/dcmitype/StillImage" />
        <dc:title></dc:title>
      </cc:Work>
    </rdf:RDF>
  </metadata>
  <g
     inkscape:label="Layer 1"
     inkscape:groupmode="layer"
     id="layer1"
     transform="translate(353.7368,419.29947)">
    <g
       id="g901">
      <g
         inkscape:export-ydpi="96"
         inkscape:export-xdpi="96"
         inkscape:export-filename="/home/khairulimam/Downloads/a.png"
         id="text5732"
         style="font-style:normal;font-weight:normal;font-size:223.04838562px;line-height:125%;font-family:sans-serif;letter-spacing:0px;word-spacing:0px;fill:#ff0000;fill-opacity:1;stroke:none;stroke-width:1px;stroke-linecap:butt;stroke-linejoin:miter;stroke-opacity:1"
         transform="matrix(1.1816741,-0.15148359,0.15148359,1.1816741,-414.76593,-921.88613)">
        <g
           id="g1047">
          <path
             inkscape:connector-curvature="0"
             d="m 173.14542,657.01905 c 0,13.15986 0.66914,21.41265 2.23048,24.98142 1.56134,4.01487 8.02974,5.79926 19.18216,5.79926 6.02231,0 10.26023,-0.66914 12.71376,-2.45353 2.45353,-1.56134 5.13011,-4.90706 8.25279,-9.81413 6.69145,-11.15242 14.49815,-24.31227 23.42008,-39.70261 8.92194,-15.16729 16.28253,-27.21191 22.08179,-36.13384 -8.47584,30.78068 -12.49071,52.86247 -12.49071,66.24537 0,5.35316 0,9.59108 0.4461,12.49071 0.4461,3.12268 1.11524,6.02231 2.45353,9.14498 1.33829,3.12268 3.34573,5.13012 6.24536,6.46841 2.67658,1.33829 6.4684,2.00743 11.15241,2.00743 6.9145,0 14.7212,-2.67658 23.42009,-8.47584 8.69888,-5.57621 13.15985,-9.81413 13.15985,-12.71375 0,-1.33829 -0.66915,-2.45354 -1.78439,-3.79183 -1.33829,-1.11524 -2.23048,-1.78438 -3.12267,-1.78438 -0.4461,0 -2.89963,1.11524 -7.3606,3.12267 -4.68402,2.00744 -8.25279,2.89963 -10.92937,2.89963 -3.79182,0 -5.57621,-1.56134 -5.57621,-5.13011 0,-8.25279 2.23048,-22.52789 6.69145,-42.82529 4.46097,-20.07436 9.14498,-38.81042 13.829,-55.98515 4.46097,-17.17472 6.9145,-26.09666 6.9145,-26.7658 0,-1.33829 -0.89219,-2.89963 -2.67658,-4.23792 -1.78439,-1.33829 -4.23792,-2.23048 -7.3606,-2.23048 -7.58364,0 -13.15985,1.11524 -16.50558,3.12267 -3.56877,2.23049 -6.69145,5.35316 -9.36803,9.81413 l -66.91452,112.19334 c 0,-48.8476 1.78439,-87.88106 5.57621,-117.32345 1.11525,-3.56878 1.78439,-5.35316 1.78439,-5.57621 0,-1.78439 -1.78439,-3.34573 -4.90706,-4.68402 -3.34573,-1.11524 -7.13755,-1.78438 -11.37547,-1.78438 -5.57621,0 -10.48328,1.33829 -14.94424,3.56877 -4.46097,2.45353 -6.69146,5.13011 -6.69146,8.02974 0,1.78439 0,3.34573 0.4461,4.46097 -4.23792,13.60595 -12.26766,36.35689 -23.86618,68.47585 -11.82156,32.11897 -19.18216,52.63942 -21.85874,61.11526 -0.44609,1.33829 -1.33829,3.34573 -2.45353,6.02231 -1.11524,2.67658 -2.00744,5.13011 -2.45353,6.9145 -0.66915,1.78438 -0.8922,3.34572 -0.8922,4.46097 0,1.78438 0.66915,3.34572 2.45354,4.46096 1.56134,1.11525 3.79182,1.56134 6.4684,1.56134 2.89963,0 5.13011,-0.22305 6.9145,-1.11524 1.56134,-0.66915 2.67658,-1.56134 3.12268,-2.45353 0.44609,-0.8922 1.11524,-2.23049 1.78438,-4.46097 2.23049,-8.02974 5.13012,-16.50558 8.25279,-25.65056 3.12268,-8.92194 5.79926,-16.50558 8.02975,-22.52789 2.23048,-5.79926 5.13011,-13.829 9.14498,-24.08923 3.79182,-10.03717 6.4684,-17.39777 8.25279,-22.08179 0,5.13012 -0.22305,14.49815 -0.4461,28.1041 -0.44609,13.60595 -0.44609,22.97398 -0.44609,28.32714 z"
             style="font-style:normal;font-variant:normal;font-weight:normal;font-stretch:normal;font-family:FilmotypeKellog;-inkscape-font-specification:FilmotypeKellog;fill:#ff0000;fill-opacity:1"
             id="path5925" />
          <path
             inkscape:connector-curvature="0"
             d="m 386.87108,622.22351 c 0,-4.90707 -2.89962,-9.59108 -8.25279,-14.2751 -5.57621,-4.46097 -11.37546,-8.02974 -17.39777,-10.48327 -6.24535,-2.23049 -10.92937,-3.56878 -14.49815,-3.56878 -8.25279,0 -16.05948,5.13011 -23.64312,14.94424 -7.58365,10.03718 -13.15986,20.96655 -17.17473,32.78812 -4.01487,12.04461 -5.79926,21.85874 -5.79926,29.88848 0,8.47584 4.46097,16.05948 13.38291,22.30484 6.24535,4.68401 15.16729,6.9145 26.31971,6.9145 8.92193,0 20.07435,-3.56878 33.45725,-10.92937 14.7212,-8.02974 22.30484,-14.94424 22.30484,-20.29741 0,-2.67658 -0.89219,-4.01487 -2.67658,-4.01487 -0.89219,0 -6.4684,2.89963 -16.95168,8.47584 -14.94424,8.02974 -27.88104,12.04461 -39.03346,12.04461 -3.12268,0 -6.24536,-0.89219 -8.92194,-3.12267 -2.89963,-2.23049 -4.23792,-4.90707 -4.23792,-8.25279 0,-3.79183 0.4461,-8.25279 1.78439,-13.60595 10.70632,0 20.07435,-1.56134 28.55019,-4.46097 8.47584,-2.67658 14.94424,-6.24536 19.40521,-10.48328 4.46097,-4.01487 7.80669,-8.25279 10.03718,-12.26766 2.23048,-4.01487 3.34572,-8.02974 3.34572,-11.59851 z m -27.658,-11.15242 c 2.00744,0 3.79183,0.66914 5.13012,1.78438 1.33829,1.33829 2.23048,2.89963 2.23048,4.68402 0,5.57621 -3.12268,11.82156 -8.92193,18.51302 -6.02231,6.69145 -13.60596,10.03717 -22.97399,10.03717 -1.78438,0 -3.12268,0 -4.01487,-0.22304 4.01487,-9.36804 8.69889,-17.62083 14.05205,-24.53533 5.35316,-6.69145 10.26023,-10.26022 14.49814,-10.26022 z"
             style="font-style:normal;font-variant:normal;font-weight:normal;font-stretch:normal;font-family:FilmotypeKellog;-inkscape-font-specification:FilmotypeKellog;fill:#ff0000;fill-opacity:1"
             id="path5927" />
          <path
             inkscape:connector-curvature="0"
             d="m 473.12807,622.22351 c 0,-4.90707 -2.89963,-9.59108 -8.25279,-14.2751 -5.57621,-4.46097 -11.37547,-8.02974 -17.39777,-10.48327 -6.24536,-2.23049 -10.92937,-3.56878 -14.49815,-3.56878 -8.25279,0 -16.05948,5.13011 -23.64313,14.94424 -7.58364,10.03718 -13.15985,20.96655 -17.17472,32.78812 -4.01487,12.04461 -5.79926,21.85874 -5.79926,29.88848 0,8.47584 4.46097,16.05948 13.3829,22.30484 6.24536,4.68401 15.16729,6.9145 26.31971,6.9145 8.92194,0 20.07436,-3.56878 33.45726,-10.92937 14.72119,-8.02974 22.30484,-14.94424 22.30484,-20.29741 0,-2.67658 -0.89219,-4.01487 -2.67658,-4.01487 -0.89219,0 -6.4684,2.89963 -16.95168,8.47584 -14.94424,8.02974 -27.88105,12.04461 -39.03347,12.04461 -3.12267,0 -6.24535,-0.89219 -8.92193,-3.12267 -2.89963,-2.23049 -4.23792,-4.90707 -4.23792,-8.25279 0,-3.79183 0.4461,-8.25279 1.78439,-13.60595 10.70632,0 20.07435,-1.56134 28.55019,-4.46097 8.47584,-2.67658 14.94424,-6.24536 19.40521,-10.48328 4.46097,-4.01487 7.80669,-8.25279 10.03718,-12.26766 2.23048,-4.01487 3.34572,-8.02974 3.34572,-11.59851 z m -27.658,-11.15242 c 2.00744,0 3.79183,0.66914 5.13012,1.78438 1.33829,1.33829 2.23048,2.89963 2.23048,4.68402 0,5.57621 -3.12268,11.82156 -8.92194,18.51302 -6.0223,6.69145 -13.60595,10.03717 -22.97398,10.03717 -1.78439,0 -3.12268,0 -4.01487,-0.22304 4.01487,-9.36804 8.69889,-17.62083 14.05205,-24.53533 5.35316,-6.69145 10.26022,-10.26022 14.49814,-10.26022 z"
             style="font-style:normal;font-variant:normal;font-weight:normal;font-stretch:normal;font-family:FilmotypeKellog;-inkscape-font-specification:FilmotypeKellog;fill:#ff0000;fill-opacity:1"
             id="path5929" />
          <path
             inkscape:connector-curvature="0"
             d="m 465.70474,594.11941 c 0,2.67658 1.78439,4.68402 5.35316,6.4684 3.56877,1.78439 8.69889,2.67658 15.61339,2.67658 h 2.45353 c -12.71376,40.37176 -18.95911,64.23794 -18.95911,71.59854 0,7.13754 1.78438,12.49071 5.79926,15.83643 4.01487,3.56877 8.92193,5.13011 15.16729,5.13011 5.35316,0 14.72119,-2.89963 27.658,-9.14498 9.14498,-4.23792 14.27509,-7.13755 15.16729,-8.69889 1.78438,-3.12267 2.89962,-5.79926 2.89962,-7.58364 0,-2.00744 -0.89219,-3.12268 -2.67658,-3.12268 -0.66914,0 -5.79925,2.00744 -15.39033,5.79926 -9.59109,3.79182 -16.05949,5.57621 -19.62826,5.57621 -2.23049,0 -3.12268,-1.56134 -3.12268,-5.13011 0,-10.70633 6.24535,-34.34946 18.95911,-71.37549 0.66915,0 2.45353,0 5.35316,-0.22305 2.89963,0 5.57621,-0.22305 8.02975,-0.44609 2.23048,-0.22305 4.90706,-0.66915 7.58364,-1.11525 2.67658,-0.44609 4.68402,-1.33829 6.24536,-2.67658 1.33829,-1.33829 2.23048,-2.89962 2.23048,-4.68401 0,-3.56878 -1.56134,-6.02231 -4.46097,-7.3606 -3.12268,-1.11524 -7.80669,-1.78439 -14.05205,-1.78439 h -4.68401 l 1.33829,-4.68401 c 1.33829,-4.90707 2.89963,-8.69889 4.23792,-11.82157 1.33829,-3.12267 2.45353,-5.13011 3.34572,-6.0223 0.66915,-0.8922 1.11524,-1.78439 1.11524,-2.67658 0,-3.12268 -4.23791,-4.68402 -12.26766,-4.68402 -6.24535,0 -10.70632,1.33829 -13.60595,3.56877 -3.12268,2.23049 -4.90706,6.69146 -5.79926,12.93681 l -5.13011,15.61339 c -11.59851,1.33829 -19.40521,2.67658 -23.19703,3.56877 -3.79182,1.11524 -5.57621,2.67658 -5.57621,4.46097 z"
             style="font-style:normal;font-variant:normal;font-weight:normal;font-stretch:normal;font-family:FilmotypeKellog;-inkscape-font-specification:FilmotypeKellog;fill:#ff0000;fill-opacity:1"
             id="path5931" />
          <path
             inkscape:connector-curvature="0"
             d="m 556.12299,599.69562 c -4.01487,0 -6.9145,0.66914 -9.14498,1.78439 -2.23049,1.33829 -3.34573,3.56877 -3.79183,6.69145 -4.01487,10.26022 -7.13754,18.06692 -9.14498,23.42008 -2.00743,5.57621 -4.23792,12.93681 -6.4684,21.85874 -2.23049,8.92194 -3.34573,16.72863 -3.34573,22.97398 0,5.79926 1.11524,10.03718 3.56878,12.93681 2.45353,2.89963 7.13754,4.23792 14.27509,4.23792 2.67658,0.89219 5.35316,1.33829 8.25279,1.33829 6.24536,0 10.92937,-1.33829 14.49815,-4.01487 3.56877,-2.67658 9.14498,-8.92194 16.95168,-18.51302 0.66914,13.829 7.80669,20.7435 21.18959,20.7435 6.02231,0 14.2751,-3.12267 24.53532,-9.36803 8.69889,-5.35316 13.15986,-9.81413 13.15986,-12.93681 0,-2.23048 -0.89219,-3.34572 -2.67658,-3.34572 -2.23049,0 -6.69145,2.00743 -13.60595,5.79926 -7.8067,4.23792 -12.49071,6.24535 -14.05205,6.24535 -2.67658,0 -4.01487,-3.12268 -4.01487,-9.81413 0,-3.56877 0.89219,-9.36803 3.12268,-17.17472 2.23048,-7.58365 4.68401,-14.7212 7.36059,-20.96655 0.66915,-1.78439 2.00744,-4.01487 4.23792,-6.69145 2.23049,-2.67658 3.34573,-4.90707 3.34573,-6.69145 0,-4.23792 -3.34573,-6.46841 -10.03718,-6.46841 -9.14498,0 -14.72119,2.45353 -16.95168,6.9145 -4.90706,10.26023 -10.48327,19.85131 -16.72863,28.99629 -6.0223,8.92194 -12.26766,16.72863 -18.51301,23.64313 -6.46841,7.13755 -10.70633,10.48328 -12.49071,10.48328 -0.8922,0 -1.11524,-1.33829 -1.11524,-4.23792 0,-11.37547 5.35316,-30.78068 16.50558,-58.43868 0.89219,-2.23048 1.78438,-4.68402 2.89963,-7.13755 1.11524,-2.23048 2.00743,-4.01487 2.45353,-5.13011 0.44609,-1.11524 0.89219,-1.78439 0.89219,-2.00744 0,-0.89219 -1.56134,-2.00743 -4.68401,-3.34572 -3.12268,-1.11525 -6.69146,-1.78439 -10.48328,-1.78439 z"
             style="font-style:normal;font-variant:normal;font-weight:normal;font-stretch:normal;font-family:FilmotypeKellog;-inkscape-font-specification:FilmotypeKellog;fill:#ff0000;fill-opacity:1"
             id="path5933" />
          <path
             inkscape:connector-curvature="0"
             d="m 664.90438,693.15289 c 9.36803,0 18.06692,-2.45353 25.87361,-7.36059 7.80669,-4.90707 13.829,-10.70633 18.06692,-17.84387 4.23792,-6.9145 7.58364,-13.60596 9.81413,-20.07436 2.23048,-6.24535 3.34572,-11.82156 3.34572,-16.28253 0,-2.89963 -0.22305,-5.13011 -0.22305,-6.9145 0,-1.56134 -0.44609,-3.56878 -0.89219,-6.02231 -0.66914,-2.45353 -1.56134,-4.46097 -2.45353,-5.79926 -1.11524,-1.33829 -2.67658,-2.45353 -4.68402,-3.79182 -2.23048,-1.11524 -4.68401,-2.00743 -7.80669,-2.45353 -3.34573,-1.11524 -6.02231,-1.78439 -8.02974,-1.78439 -5.57621,0 -10.70632,1.33829 -15.39034,4.01487 -4.68402,2.67658 -9.81413,6.9145 -15.39034,13.15986 7.80669,-20.07436 11.82156,-31.22678 11.82156,-33.68031 0,-4.46097 -3.79182,-6.69145 -11.37546,-6.69145 -5.57621,0 -9.36804,1.78439 -11.59852,4.90706 -2.23048,3.12268 -5.79926,11.15242 -10.48327,24.08923 -6.46841,17.39777 -15.61339,45.50187 -27.43495,84.31229 -11.82157,38.81042 -17.62083,60.22306 -17.62083,64.68403 0,4.01487 2.00744,5.79926 6.24536,5.79926 1.78438,0 7.13755,-1.11524 16.28253,-3.56877 0.89219,-0.22305 1.78439,-1.11525 2.45353,-2.89963 8.25279,-33.45726 14.94424,-57.54649 20.29741,-72.26768 5.79925,4.46097 12.26766,6.4684 19.18216,6.4684 z m 28.99629,-72.49072 c 1.33829,0 2.45353,0.44609 2.89963,1.11524 0.44609,0.66914 0.89219,1.78439 0.89219,3.56877 0,6.02231 -1.56134,13.15986 -4.23792,21.41265 -2.89963,8.47584 -6.69145,15.83643 -11.59852,22.52789 -4.90706,6.69145 -9.81413,9.81412 -14.49814,9.81412 -5.79926,0 -10.70632,-3.34572 -14.49815,-10.48327 4.90707,-10.03718 11.82157,-20.52045 20.7435,-31.44982 8.92194,-10.92937 15.61339,-16.50558 20.29741,-16.50558 z"
             style="font-style:normal;font-variant:normal;font-weight:normal;font-stretch:normal;font-family:FilmotypeKellog;-inkscape-font-specification:FilmotypeKellog;fill:#ff0000;fill-opacity:1"
             id="path5935" />
        </g>
      </g>
      <g
         transform="matrix(0.72546526,0,0,0.72546526,-185.61426,-784.49141)"
         id="g5089">
        <path
           inkscape:connector-curvature="0"
           id="path5912"
           style="font-style:normal;font-variant:normal;font-weight:normal;font-stretch:normal;font-size:medium;line-height:125%;font-family:sans-serif;-inkscape-font-specification:sans-serif;letter-spacing:0px;word-spacing:0px;fill:#ff0000;fill-opacity:1;stroke:none;stroke-width:1px;stroke-linecap:butt;stroke-linejoin:miter;stroke-opacity:1"
           d="m 592.20698,593.87198 v 7.46242 H 588.994 q -12.9038,0 -17.30869,-3.83485 -4.35311,-3.83484 -4.35311,-15.2876 v -12.38558 q 0,-7.82519 -2.7984,-10.8309 -2.79843,-3.0057 -10.15722,-3.0057 h -3.16116 v -7.41061 h 3.16116 q 7.4106,0 10.15722,-2.95389 2.7984,-3.00571 2.7984,-10.72726 v -12.43739 q 0,-11.45276 4.35311,-15.23579 4.40489,-3.83485 17.30869,-3.83485 h 3.21298 v 7.4106 h -3.52393 q -7.30697,0 -9.53532,2.28018 -2.22836,2.28021 -2.22836,9.58717 v 12.85194 q 0,8.13614 -2.38385,11.81553 -2.33199,3.67939 -8.03246,4.97497 5.75229,1.39922 8.08428,5.07861 2.33203,3.67939 2.33203,11.76368 v 12.85197 q 0,7.30697 2.22836,9.58718 2.22835,2.28017 9.53532,2.28017 z" />
        <path
           inkscape:connector-curvature="0"
           id="path5914"
           style="font-style:normal;font-variant:normal;font-weight:bold;font-stretch:normal;font-size:medium;line-height:125%;font-family:'Padauk Book';-inkscape-font-specification:'Padauk Book, Bold';letter-spacing:0px;word-spacing:0px;fill:#ff0000;fill-opacity:1;stroke:none;stroke-width:1px;stroke-linecap:butt;stroke-linejoin:miter;stroke-opacity:1"
           d="m 667.71232,550.65206 q 0,8.2916 -2.69476,14.51029 -2.6948,6.2187 -7.46246,10.46813 -4.76766,4.1458 -11.2973,6.32234 -6.42597,2.07289 -13.99207,2.07289 h -20.21072 v -66.64366 h 20.21072 q 7.98068,0 14.51029,2.28017 6.52965,2.28018 11.19367,6.52965 4.66402,4.24943 7.15151,10.46813 2.59112,6.11502 2.59112,13.99206 z m -13.68115,0 q 0,-22.69824 -21.76544,-22.69824 h -6.5296 v 45.50013 h 6.5296 q 21.76544,0 21.76544,-22.80189 z" />
        <path
           inkscape:connector-curvature="0"
           id="path5916"
           style="font-style:normal;font-variant:normal;font-weight:bold;font-stretch:normal;font-size:medium;line-height:125%;font-family:'Padauk Book';-inkscape-font-specification:'Padauk Book, Bold';letter-spacing:0px;word-spacing:0px;fill:#ff0000;fill-opacity:1;stroke:none;stroke-width:1px;stroke-linecap:butt;stroke-linejoin:miter;stroke-opacity:1"
           d="m 679.42418,584.02571 v -66.64366 h 43.94545 v 10.57177 H 692.5871 v 16.47955 h 28.91691 v 10.05354 H 692.5871 v 18.96704 h 31.71534 v 10.57176 z" />
        <path
           inkscape:connector-curvature="0"
           id="path5918"
           style="font-style:normal;font-variant:normal;font-weight:bold;font-stretch:normal;font-size:medium;line-height:125%;font-family:'Padauk Book';-inkscape-font-specification:'Padauk Book, Bold';letter-spacing:0px;word-spacing:0px;fill:#ff0000;fill-opacity:1;stroke:none;stroke-width:1px;stroke-linecap:butt;stroke-linejoin:miter;stroke-opacity:1"
           d="m 772.49733,584.02571 h -16.27227 l -24.56383,-66.64366 h 14.71756 l 18.34517,51.3042 18.55242,-51.3042 h 14.61396 z" />
        <path
           inkscape:connector-curvature="0"
           id="path5920"
           style="font-style:normal;font-weight:normal;font-size:medium;line-height:125%;font-family:sans-serif;letter-spacing:0px;word-spacing:0px;fill:#ff0000;fill-opacity:1;stroke:none;stroke-width:1px;stroke-linecap:butt;stroke-linejoin:miter;stroke-opacity:1"
           d="m 812.19332,593.87198 h 3.62757 q 7.25515,0 9.43168,-2.22835 2.22836,-2.22839 2.22836,-9.639 v -12.85197 q 0,-8.08429 2.33203,-11.76368 2.33199,-3.67939 8.08431,-5.07861 -5.75232,-1.29558 -8.08431,-4.97497 -2.33203,-3.67939 -2.33203,-11.81553 v -12.85194 q 0,-7.35878 -2.22836,-9.58717 -2.17653,-2.28018 -9.43168,-2.28018 h -3.62757 v -7.4106 h 3.2648 q 12.9038,0 17.20505,3.83485 4.35311,3.78303 4.35311,15.23579 v 12.43739 q 0,7.72155 2.7984,10.72726 2.79843,2.95389 10.15722,2.95389 h 3.21298 v 7.41061 h -3.21298 q -7.35879,0 -10.15722,3.0057 -2.7984,3.00571 -2.7984,10.8309 v 12.38558 q 0,11.45276 -4.35311,15.2876 -4.30125,3.83485 -17.20505,3.83485 h -3.2648 z" />
      </g>
      <g
         transform="matrix(0.72546526,0,0,0.72546526,-185.61426,-784.49141)"
         id="g5096">
        <path
           inkscape:connector-curvature="0"
           d="m 146.815,585.68424 v -66.64367 h 13.68112 v 56.0719 h 30.16067 v 10.57177 z"
           style="font-style:normal;font-variant:normal;font-weight:bold;font-stretch:normal;font-size:medium;line-height:125%;font-family:'Padauk Book';-inkscape-font-specification:'Padauk Book, Bold';letter-spacing:0px;word-spacing:0px;fill:#1a1a1a;fill-opacity:1;stroke:none;stroke-width:1px;stroke-linecap:butt;stroke-linejoin:miter;stroke-opacity:1"
           id="path5899" />
        <path
           inkscape:connector-curvature="0"
           d="m 261.13533,552.31058 q 0,7.56606 -2.07289,13.88843 -2.0729,6.32234 -6.11506,10.98636 -4.04213,4.56038 -9.94991,7.1515 -5.80411,2.59109 -13.3702,2.59109 -7.98065,0 -13.99206,-2.69476 -5.90775,-2.7984 -9.84627,-7.46242 -3.93849,-4.66402 -5.90775,-10.98635 -1.96926,-6.32234 -1.96926,-13.47385 0,-7.56609 2.0729,-13.88842 2.17653,-6.32234 6.21869,-10.88272 4.04216,-4.56038 9.94991,-7.15151 5.90778,-2.59112 13.47384,-2.59112 7.87704,0 13.78479,2.79843 6.01142,2.69477 9.84627,7.46243 3.93852,4.66402 5.90774,10.98635 1.96926,6.2187 1.96926,13.26656 z m -13.99206,0 q 0,-23.94197 -17.516,-23.94197 -17.61964,0 -17.61964,23.94197 0,24.04561 17.61964,24.04561 17.516,0 17.516,-24.04561 z"
           style="font-style:normal;font-variant:normal;font-weight:bold;font-stretch:normal;font-size:medium;line-height:125%;font-family:'Padauk Book';-inkscape-font-specification:'Padauk Book, Bold';letter-spacing:0px;word-spacing:0px;fill:#1a1a1a;fill-opacity:1;stroke:none;stroke-width:1px;stroke-linecap:butt;stroke-linejoin:miter;stroke-opacity:1"
           id="path5901" />
        <path
           inkscape:connector-curvature="0"
           d="m 332.65033,585.68424 v -55.3464 l -16.79046,55.3464 h -13.3702 l -16.79047,-55.3464 v 55.3464 h -12.85197 v -66.64367 h 22.07634 l 14.30302,48.19489 14.30301,-48.50584 h 22.17999 v 66.95462 z"
           style="font-style:normal;font-variant:normal;font-weight:bold;font-stretch:normal;font-size:medium;line-height:125%;font-family:'Padauk Book';-inkscape-font-specification:'Padauk Book, Bold';letter-spacing:0px;word-spacing:0px;fill:#1a1a1a;fill-opacity:1;stroke:none;stroke-width:1px;stroke-linecap:butt;stroke-linejoin:miter;stroke-opacity:1"
           id="path5903" />
        <path
           inkscape:connector-curvature="0"
           d="m 409.34758,568.47919 q 0,4.24943 -2.17654,7.46242 -2.17653,3.21302 -5.49319,5.38955 -3.31663,2.17654 -7.25515,3.31663 -3.93848,1.03645 -7.46242,1.03645 H 358.6652 v -66.64367 h 27.36227 q 3.93852,0 7.56609,1.03645 3.62758,1.03645 6.32234,3.10935 2.7984,1.96922 4.45674,5.07857 1.65831,3.00571 1.65831,7.04787 0,3.31662 -1.14008,5.80411 -1.03645,2.38385 -2.79844,4.24943 -1.76195,1.86563 -4.24943,3.31666 -2.38385,1.34737 -4.97497,2.48749 3.62757,1.14008 6.63328,2.48745 3.00571,1.3474 5.18225,3.42029 2.17653,1.96927 3.42029,4.76766 1.24373,2.79844 1.24373,6.63329 z M 392.3498,538.00757 q 0,-2.17654 -0.93277,-3.73121 -0.93281,-1.55467 -2.38385,-2.59112 -1.45104,-1.03645 -3.31662,-1.55468 -1.76199,-0.51822 -3.62758,-0.51822 h -9.74263 v 16.47955 h 8.80982 q 2.0729,0 4.04216,-0.51823 2.0729,-0.51822 3.62757,-1.55467 1.55468,-1.03645 2.48745,-2.48748 1.03645,-1.55468 1.03645,-3.52394 z m 2.79844,27.77686 q 0,-2.59113 -1.24376,-4.35311 -1.14009,-1.86559 -3.00568,-2.90204 -1.86562,-1.14009 -4.24947,-1.55467 -2.28017,-0.51823 -4.56035,-0.51823 h -9.74263 v 18.65609 h 9.74263 q 2.69477,0 5.07858,-0.51823 2.38384,-0.51822 4.14579,-1.55467 1.76199,-1.14009 2.79844,-2.90207 1.03645,-1.76195 1.03645,-4.35307 z"
           style="font-style:normal;font-variant:normal;font-weight:bold;font-stretch:normal;font-size:medium;line-height:125%;font-family:'Padauk Book';-inkscape-font-specification:'Padauk Book, Bold';letter-spacing:0px;word-spacing:0px;fill:#1a1a1a;fill-opacity:1;stroke:none;stroke-width:1px;stroke-linecap:butt;stroke-linejoin:miter;stroke-opacity:1"
           id="path5905" />
        <path
           inkscape:connector-curvature="0"
           d="m 482.52092,552.31058 q 0,7.56606 -2.07289,13.88843 -2.0729,6.32234 -6.11506,10.98636 -4.04216,4.56038 -9.94991,7.1515 -5.80414,2.59109 -13.3702,2.59109 -7.98068,0 -13.99207,-2.69476 -5.90778,-2.7984 -9.84626,-7.46242 -3.93852,-4.66402 -5.90779,-10.98635 -1.96922,-6.32234 -1.96922,-13.47385 0,-7.56609 2.0729,-13.88842 2.17653,-6.32234 6.21869,-10.88272 4.04213,-4.56038 9.94991,-7.15151 5.90775,-2.59112 13.47384,-2.59112 7.87701,0 13.78475,2.79843 6.01142,2.69477 9.84627,7.46243 3.93852,4.66402 5.90778,10.98635 1.96926,6.2187 1.96926,13.26656 z m -13.99206,0 q 0,-23.94197 -17.516,-23.94197 -17.61964,0 -17.61964,23.94197 0,24.04561 17.61964,24.04561 17.516,0 17.516,-24.04561 z"
           style="font-style:normal;font-variant:normal;font-weight:bold;font-stretch:normal;font-size:medium;line-height:125%;font-family:'Padauk Book';-inkscape-font-specification:'Padauk Book, Bold';letter-spacing:0px;word-spacing:0px;fill:#1a1a1a;fill-opacity:1;stroke:none;stroke-width:1px;stroke-linecap:butt;stroke-linejoin:miter;stroke-opacity:1"
           id="path5907" />
        <path
           inkscape:connector-curvature="0"
           d="M 531.95954,585.68424 507.9139,552.31058 v 33.37366 h -13.68112 v -66.64367 h 13.68112 v 28.60599 l 22.18002,-28.60599 h 15.75401 l -23.52738,29.84972 26.32582,36.79395 z"
           style="font-style:normal;font-variant:normal;font-weight:bold;font-stretch:normal;font-size:medium;line-height:125%;font-family:'Padauk Book';-inkscape-font-specification:'Padauk Book, Bold';letter-spacing:0px;word-spacing:0px;fill:#1a1a1a;fill-opacity:1;stroke:none;stroke-width:1px;stroke-linecap:butt;stroke-linejoin:miter;stroke-opacity:1"
           id="path5909" />
      </g>
      <text
         inkscape:export-ydpi="96"
         inkscape:export-xdpi="96"
         transform="rotate(-18.277506)"
         id="text1474"
         y="80.775276"
         x="491.228"
         style="font-style:normal;font-variant:normal;font-weight:normal;font-stretch:normal;font-size:170.67715454px;line-height:125%;font-family:'SF Mono';-inkscape-font-specification:'SF Mono';letter-spacing:0px;word-spacing:0px;fill:#ff0000;fill-opacity:1;stroke:none;stroke-width:6.40039301px;stroke-linecap:butt;stroke-linejoin:miter;stroke-opacity:1"
         xml:space="preserve"><tspan
           style="font-style:normal;font-variant:normal;font-weight:normal;font-stretch:normal;font-family:'SignPainter HouseScript';-inkscape-font-specification:'SignPainter HouseScript';fill:#ff0000;fill-opacity:1;stroke-width:6.40039301px"
           y="80.775276"
           x="491.228"
           id="tspan1472"
           sodipodi:role="line">#4</tspan></text>
    </g>
    <g
       id="g962"
       transform="translate(-280.58839,-1263.9534)">
      <g
         id="g1065">
        <g
           id="g948"
           transform="matrix(5.1024086,0,0,5.1024086,-446.87945,1065.6698)"
           inkscape:export-xdpi="96"
           inkscape:export-ydpi="96" />
        <g
           inkscape:export-ydpi="300"
           inkscape:export-xdpi="300"
           transform="translate(65.625,1003.125)"
           id="g1112">
          <g
             id="g1192"
             inkscape:export-xdpi="96"
             inkscape:export-ydpi="96">
            <path
               sodipodi:nodetypes="ccccccccccsccccccccccccccccccscccccccccscccccccccccscccccccsccsccccc"
               inkscape:connector-curvature="0"
               id="path1111"
               transform="translate(-65.625,-950.76275)"
               d="m 536.94727,1299.957 c -0.002,0 -0.004,-2e-4 -0.006,0.01 -2.20339,1.9158 -5.30274,5.9609 -5.30274,5.9609 l -345.96289,1.5076 c 0,0 -36.38736,-2.263 -36.69336,33.9645 v 29.1709 c -23.74439,14.2354 -37.34172,34.582 -37.39258,55.9531 0.0195,1.2653 0.0866,2.53 0.20118,3.793 -3.50239,0.2133 -7.19596,0.6624 -11.927739,2.2793 -5.118155,1.7489 -13.373857,4.8544 -19.048828,16.1582 -0.05609,0.1123 -0.111426,0.2249 -0.166015,0.3379 -28.523094,58.7447 -34.269755,105.3482 -33.226563,138.2012 0.520216,16.383 4.300454,31.607 13.880859,44.3222 9.580406,12.7153 26.773599,21.3076 43.193356,20.4629 14.85462,-0.7641 29.63092,-7.338 40.93946,-17.248 0.0418,-0.037 0.0774,-0.08 0.11914,-0.1172 10.45176,7.9392 24.236,12.5049 37.46875,11.8242 18.54075,-0.9537 32.46383,-10.3962 43.79687,-21.6523 1.29188,1.7103 2.69014,3.3807 4.22071,4.9941 12.53256,13.211 32.12062,19.5389 51.86132,18.5234 16.26607,-0.8366 30.16118,-7.4893 41.43946,-17.2714 2.21989,1.7227 4.42881,3.0573 6.38672,3.9882 7.81058,3.7138 14.62083,4.5645 21.94921,4.1875 h 0.002 c 6.6318,-0.3412 13.87154,-1.7936 21.53906,-6.7851 3.79591,-2.4711 7.55877,-6.256 10.58008,-10.7793 2.60954,4.4044 5.86437,8.4088 9.74219,11.0723 8.8352,6.0684 17.48626,6.9437 24.55859,6.58 8.31797,-0.4279 15.59949,-2.5931 22.95508,-7.0918 3.54749,-2.1696 7.36458,-5.186 10.68554,-9.166 10.06156,4.2077 21.18029,5.9303 32.43165,5.3516 6.18261,-0.318 11.9284,-1.7547 17.37695,-3.6699 6.50344,2.7373 12.67556,3.0932 18.44336,3.873 10.27587,1.3893 20.59023,1.3994 30.44336,0.8926 11.71797,-0.6028 23.89907,-2.4379 36.23242,-8.6192 7.16771,3.5661 14.05715,4.2813 19.86719,3.9825 8.31797,-0.4279 15.59949,-2.5931 22.95507,-7.0918 6.04242,-3.6956 12.8759,-9.7566 16.61133,-19.1524 10.33794,11.9657 27.74602,17.2757 43.4336,16.4688 3.54895,-0.1826 7.11536,-0.9423 10.60156,-2.0781 11.79723,7.7919 26.49525,12.4317 41.72461,11.6484 7.11395,-0.3659 13.77266,-1.8627 19.98437,-4.1973 l -4.73437,23.9024 0.1289,-0.6114 c -0.66128,2.9917 -1.23295,6.9077 -1.10156,11.045 0.32537,10.2468 6.62407,22.7373 15.46094,28.8046 8.83687,6.0674 17.48719,6.94 24.55664,6.5762 8.31761,-0.428 15.59816,-2.5946 22.95313,-7.0937 7.35553,-4.4995 15.95978,-12.4186 18.60937,-25.711 0.0132,-0.064 0.0263,-0.1276 0.0391,-0.1914 l 9.13281,-47.5312 c 25.87555,-1.8552 46.70589,-16.9616 59.13672,-34.5332 12.6687,-17.9079 18.81811,-38.4347 18.16602,-58.9707 -0.41707,-13.1346 -3.70164,-26.9822 -13.4668,-38.92 -8.67099,-10.6 -23.317,-17.6524 -38.01172,-18.5136 -1.55943,-34.8826 -26.90212,-65.6742 -64.5957,-78.4844 v -1.2207 c 8.62445,-2.7252 14.48859,-10.7247 14.49219,-19.7695 v -6.6426 c -0.0121,-9.0376 -5.8746,-17.027 -14.49219,-19.75 v -3.6602 c 0,-9.4456 -0.62414,-20.1918 -10.96094,-29.2324 -8.93441,-7.9058 -17.06838,-8.563 -25.47851,-8.6035 -1.20145,-0.01 -2.40917,0 -3.625,0 h -2.92578 c -8.27511,0.011 -19.02344,12.541 -19.02344,12.541 H 587.98822 c -15.66686,-14.2459 -35.16742,-17.3456 -51.04095,-4.0182 z"
               style="font-style:normal;font-variant:normal;font-weight:normal;font-stretch:normal;font-size:medium;line-height:125%;font-family:sans-serif;-inkscape-font-specification:sans-serif;letter-spacing:0px;word-spacing:0px;fill:#ffffff;fill-opacity:1;stroke:#000000;stroke-width:2;stroke-linecap:butt;stroke-linejoin:miter;stroke-miterlimit:4;stroke-dasharray:none;stroke-opacity:1" />
            <g
               id="g1080"
               transform="matrix(5.1024086,0,0,5.1024086,-470.0995,1104.6643)">
              <g
                 transform="matrix(0.1756703,0,0,0.1756703,86.743355,-234.0975)"
                 id="g919"
                 style="fill:#e91e63;fill-opacity:1"
                 inkscape:export-xdpi="96"
                 inkscape:export-ydpi="96">
                <path
                   inkscape:connector-curvature="0"
                   id="path909"
                   style="font-style:normal;font-variant:normal;font-weight:normal;font-stretch:normal;font-size:medium;line-height:125%;font-family:sans-serif;-inkscape-font-specification:sans-serif;letter-spacing:0px;word-spacing:0px;fill:#e91e63;fill-opacity:1;stroke:none;stroke-width:1px;stroke-linecap:butt;stroke-linejoin:miter;stroke-opacity:1"
                   d="m 592.20698,593.87198 v 7.46242 H 588.994 q -12.9038,0 -17.30869,-3.83485 -4.35311,-3.83484 -4.35311,-15.2876 v -12.38558 q 0,-7.82519 -2.7984,-10.8309 -2.79843,-3.0057 -10.15722,-3.0057 h -3.16116 v -7.41061 h 3.16116 q 7.4106,0 10.15722,-2.95389 2.7984,-3.00571 2.7984,-10.72726 v -12.43739 q 0,-11.45276 4.35311,-15.23579 4.40489,-3.83485 17.30869,-3.83485 h 3.21298 v 7.4106 h -3.52393 q -7.30697,0 -9.53532,2.28018 -2.22836,2.28021 -2.22836,9.58717 v 12.85194 q 0,8.13614 -2.38385,11.81553 -2.33199,3.67939 -8.03246,4.97497 5.75229,1.39922 8.08428,5.07861 2.33203,3.67939 2.33203,11.76368 v 12.85197 q 0,7.30697 2.22836,9.58718 2.22835,2.28017 9.53532,2.28017 z" />
                <path
                   inkscape:connector-curvature="0"
                   id="path911"
                   style="font-style:normal;font-variant:normal;font-weight:bold;font-stretch:normal;font-size:medium;line-height:125%;font-family:'Padauk Book';-inkscape-font-specification:'Padauk Book, Bold';letter-spacing:0px;word-spacing:0px;fill:#e91e63;fill-opacity:1;stroke:none;stroke-width:1px;stroke-linecap:butt;stroke-linejoin:miter;stroke-opacity:1"
                   d="m 667.71232,550.65206 q 0,8.2916 -2.69476,14.51029 -2.6948,6.2187 -7.46246,10.46813 -4.76766,4.1458 -11.2973,6.32234 -6.42597,2.07289 -13.99207,2.07289 h -20.21072 v -66.64366 h 20.21072 q 7.98068,0 14.51029,2.28017 6.52965,2.28018 11.19367,6.52965 4.66402,4.24943 7.15151,10.46813 2.59112,6.11502 2.59112,13.99206 z m -13.68115,0 q 0,-22.69824 -21.76544,-22.69824 h -6.5296 v 45.50013 h 6.5296 q 21.76544,0 21.76544,-22.80189 z" />
                <path
                   inkscape:connector-curvature="0"
                   id="path913"
                   style="font-style:normal;font-variant:normal;font-weight:bold;font-stretch:normal;font-size:medium;line-height:125%;font-family:'Padauk Book';-inkscape-font-specification:'Padauk Book, Bold';letter-spacing:0px;word-spacing:0px;fill:#e91e63;fill-opacity:1;stroke:none;stroke-width:1px;stroke-linecap:butt;stroke-linejoin:miter;stroke-opacity:1"
                   d="m 679.42418,584.02571 v -66.64366 h 43.94545 v 10.57177 H 692.5871 v 16.47955 h 28.91691 v 10.05354 H 692.5871 v 18.96704 h 31.71534 v 10.57176 z" />
                <path
                   inkscape:connector-curvature="0"
                   id="path915"
                   style="font-style:normal;font-variant:normal;font-weight:bold;font-stretch:normal;font-size:medium;line-height:125%;font-family:'Padauk Book';-inkscape-font-specification:'Padauk Book, Bold';letter-spacing:0px;word-spacing:0px;fill:#e91e63;fill-opacity:1;stroke:none;stroke-width:1px;stroke-linecap:butt;stroke-linejoin:miter;stroke-opacity:1"
                   d="m 772.49733,584.02571 h -16.27227 l -24.56383,-66.64366 h 14.71756 l 18.34517,51.3042 18.55242,-51.3042 h 14.61396 z" />
                <path
                   inkscape:connector-curvature="0"
                   id="path917"
                   style="font-style:normal;font-weight:normal;font-size:medium;line-height:125%;font-family:sans-serif;letter-spacing:0px;word-spacing:0px;fill:#e91e63;fill-opacity:1;stroke:none;stroke-width:1px;stroke-linecap:butt;stroke-linejoin:miter;stroke-opacity:1"
                   d="m 812.19332,593.87198 h 3.62757 q 7.25515,0 9.43168,-2.22835 2.22836,-2.22839 2.22836,-9.639 v -12.85197 q 0,-8.08429 2.33203,-11.76368 2.33199,-3.67939 8.08431,-5.07861 -5.75232,-1.29558 -8.08431,-4.97497 -2.33203,-3.67939 -2.33203,-11.81553 v -12.85194 q 0,-7.35878 -2.22836,-9.58717 -2.17653,-2.28018 -9.43168,-2.28018 h -3.62757 v -7.4106 h 3.2648 q 12.9038,0 17.20505,3.83485 4.35311,3.78303 4.35311,15.23579 v 12.43739 q 0,7.72155 2.7984,10.72726 2.79843,2.95389 10.15722,2.95389 h 3.21298 v 7.41061 h -3.21298 q -7.35879,0 -10.15722,3.0057 -2.7984,3.00571 -2.7984,10.8309 v 12.38558 q 0,11.45276 -4.35311,15.2876 -4.30125,3.83485 -17.20505,3.83485 h -3.2648 z" />
              </g>
              <g
                 transform="matrix(0.1756703,0,0,0.1756703,86.743355,-234.0975)"
                 id="g933"
                 inkscape:export-xdpi="96"
                 inkscape:export-ydpi="96">
                <path
                   inkscape:connector-curvature="0"
                   d="m 146.815,585.68424 v -66.64367 h 13.68112 v 56.0719 h 30.16067 v 10.57177 z"
                   style="font-style:normal;font-variant:normal;font-weight:bold;font-stretch:normal;font-size:medium;line-height:125%;font-family:'Padauk Book';-inkscape-font-specification:'Padauk Book, Bold';letter-spacing:0px;word-spacing:0px;fill:#1a1a1a;fill-opacity:1;stroke:none;stroke-width:1px;stroke-linecap:butt;stroke-linejoin:miter;stroke-opacity:1"
                   id="path921" />
                <path
                   inkscape:connector-curvature="0"
                   d="m 261.13533,552.31058 q 0,7.56606 -2.07289,13.88843 -2.0729,6.32234 -6.11506,10.98636 -4.04213,4.56038 -9.94991,7.1515 -5.80411,2.59109 -13.3702,2.59109 -7.98065,0 -13.99206,-2.69476 -5.90775,-2.7984 -9.84627,-7.46242 -3.93849,-4.66402 -5.90775,-10.98635 -1.96926,-6.32234 -1.96926,-13.47385 0,-7.56609 2.0729,-13.88842 2.17653,-6.32234 6.21869,-10.88272 4.04216,-4.56038 9.94991,-7.15151 5.90778,-2.59112 13.47384,-2.59112 7.87704,0 13.78479,2.79843 6.01142,2.69477 9.84627,7.46243 3.93852,4.66402 5.90774,10.98635 1.96926,6.2187 1.96926,13.26656 z m -13.99206,0 q 0,-23.94197 -17.516,-23.94197 -17.61964,0 -17.61964,23.94197 0,24.04561 17.61964,24.04561 17.516,0 17.516,-24.04561 z"
                   style="font-style:normal;font-variant:normal;font-weight:bold;font-stretch:normal;font-size:medium;line-height:125%;font-family:'Padauk Book';-inkscape-font-specification:'Padauk Book, Bold';letter-spacing:0px;word-spacing:0px;fill:#1a1a1a;fill-opacity:1;stroke:none;stroke-width:1px;stroke-linecap:butt;stroke-linejoin:miter;stroke-opacity:1"
                   id="path923" />
                <path
                   inkscape:connector-curvature="0"
                   d="m 332.65033,585.68424 v -55.3464 l -16.79046,55.3464 h -13.3702 l -16.79047,-55.3464 v 55.3464 h -12.85197 v -66.64367 h 22.07634 l 14.30302,48.19489 14.30301,-48.50584 h 22.17999 v 66.95462 z"
                   style="font-style:normal;font-variant:normal;font-weight:bold;font-stretch:normal;font-size:medium;line-height:125%;font-family:'Padauk Book';-inkscape-font-specification:'Padauk Book, Bold';letter-spacing:0px;word-spacing:0px;fill:#1a1a1a;fill-opacity:1;stroke:none;stroke-width:1px;stroke-linecap:butt;stroke-linejoin:miter;stroke-opacity:1"
                   id="path925" />
                <path
                   inkscape:connector-curvature="0"
                   d="m 409.34758,568.47919 q 0,4.24943 -2.17654,7.46242 -2.17653,3.21302 -5.49319,5.38955 -3.31663,2.17654 -7.25515,3.31663 -3.93848,1.03645 -7.46242,1.03645 H 358.6652 v -66.64367 h 27.36227 q 3.93852,0 7.56609,1.03645 3.62758,1.03645 6.32234,3.10935 2.7984,1.96922 4.45674,5.07857 1.65831,3.00571 1.65831,7.04787 0,3.31662 -1.14008,5.80411 -1.03645,2.38385 -2.79844,4.24943 -1.76195,1.86563 -4.24943,3.31666 -2.38385,1.34737 -4.97497,2.48749 3.62757,1.14008 6.63328,2.48745 3.00571,1.3474 5.18225,3.42029 2.17653,1.96927 3.42029,4.76766 1.24373,2.79844 1.24373,6.63329 z M 392.3498,538.00757 q 0,-2.17654 -0.93277,-3.73121 -0.93281,-1.55467 -2.38385,-2.59112 -1.45104,-1.03645 -3.31662,-1.55468 -1.76199,-0.51822 -3.62758,-0.51822 h -9.74263 v 16.47955 h 8.80982 q 2.0729,0 4.04216,-0.51823 2.0729,-0.51822 3.62757,-1.55467 1.55468,-1.03645 2.48745,-2.48748 1.03645,-1.55468 1.03645,-3.52394 z m 2.79844,27.77686 q 0,-2.59113 -1.24376,-4.35311 -1.14009,-1.86559 -3.00568,-2.90204 -1.86562,-1.14009 -4.24947,-1.55467 -2.28017,-0.51823 -4.56035,-0.51823 h -9.74263 v 18.65609 h 9.74263 q 2.69477,0 5.07858,-0.51823 2.38384,-0.51822 4.14579,-1.55467 1.76199,-1.14009 2.79844,-2.90207 1.03645,-1.76195 1.03645,-4.35307 z"
                   style="font-style:normal;font-variant:normal;font-weight:bold;font-stretch:normal;font-size:medium;line-height:125%;font-family:'Padauk Book';-inkscape-font-specification:'Padauk Book, Bold';letter-spacing:0px;word-spacing:0px;fill:#1a1a1a;fill-opacity:1;stroke:none;stroke-width:1px;stroke-linecap:butt;stroke-linejoin:miter;stroke-opacity:1"
                   id="path927" />
                <path
                   inkscape:connector-curvature="0"
                   d="m 482.52092,552.31058 q 0,7.56606 -2.07289,13.88843 -2.0729,6.32234 -6.11506,10.98636 -4.04216,4.56038 -9.94991,7.1515 -5.80414,2.59109 -13.3702,2.59109 -7.98068,0 -13.99207,-2.69476 -5.90778,-2.7984 -9.84626,-7.46242 -3.93852,-4.66402 -5.90779,-10.98635 -1.96922,-6.32234 -1.96922,-13.47385 0,-7.56609 2.0729,-13.88842 2.17653,-6.32234 6.21869,-10.88272 4.04213,-4.56038 9.94991,-7.15151 5.90775,-2.59112 13.47384,-2.59112 7.87701,0 13.78475,2.79843 6.01142,2.69477 9.84627,7.46243 3.93852,4.66402 5.90778,10.98635 1.96926,6.2187 1.96926,13.26656 z m -13.99206,0 q 0,-23.94197 -17.516,-23.94197 -17.61964,0 -17.61964,23.94197 0,24.04561 17.61964,24.04561 17.516,0 17.516,-24.04561 z"
                   style="font-style:normal;font-variant:normal;font-weight:bold;font-stretch:normal;font-size:medium;line-height:125%;font-family:'Padauk Book';-inkscape-font-specification:'Padauk Book, Bold';letter-spacing:0px;word-spacing:0px;fill:#1a1a1a;fill-opacity:1;stroke:none;stroke-width:1px;stroke-linecap:butt;stroke-linejoin:miter;stroke-opacity:1"
                   id="path929" />
                <path
                   inkscape:connector-curvature="0"
                   d="M 531.95954,585.68424 507.9139,552.31058 v 33.37366 h -13.68112 v -66.64367 h 13.68112 v 28.60599 l 22.18002,-28.60599 h 15.75401 l -23.52738,29.84972 26.32582,36.79395 z"
                   style="font-style:normal;font-variant:normal;font-weight:bold;font-stretch:normal;font-size:medium;line-height:125%;font-family:'Padauk Book';-inkscape-font-specification:'Padauk Book, Bold';letter-spacing:0px;word-spacing:0px;fill:#1a1a1a;fill-opacity:1;stroke:none;stroke-width:1px;stroke-linecap:butt;stroke-linejoin:miter;stroke-opacity:1"
                   id="path931" />
              </g>
            </g>
            <text
               xml:space="preserve"
               style="font-style:normal;font-variant:normal;font-weight:normal;font-stretch:normal;font-size:218.98789978px;line-height:125%;font-family:'SF Mono';-inkscape-font-specification:'SF Mono';letter-spacing:0px;word-spacing:0px;fill:#e91e63;fill-opacity:1;stroke:none;stroke-width:8.21204472px;stroke-linecap:butt;stroke-linejoin:miter;stroke-opacity:1"
               x="-22.208828"
               y="589.35657"
               id="text865"
               transform="matrix(0.87515241,-0.04501637,0.03622398,1.1407948,0,0)"
               inkscape:export-xdpi="96"
               inkscape:export-ydpi="96"><tspan
                 sodipodi:role="line"
                 id="tspan863"
                 x="-22.208828"
                 y="589.35657"
                 style="font-style:normal;font-variant:normal;font-weight:normal;font-stretch:normal;font-family:'HFF Low Sun';-inkscape-font-specification:'HFF Low Sun';fill:#e91e63;fill-opacity:1;stroke-width:8.21204472px">Workshop</tspan></text>
          </g>
        </g>
        <g
           inkscape:export-xdpi="300"
           inkscape:export-ydpi="300"
           id="g2620">
          <g
             id="g2637">
            <path
               inkscape:export-ydpi="300"
               inkscape:export-xdpi="300"
               transform="translate(0,52.362248)"
               style="font-style:normal;font-variant:normal;font-weight:normal;font-stretch:normal;font-size:medium;line-height:125%;font-family:sans-serif;-inkscape-font-specification:sans-serif;letter-spacing:0px;word-spacing:0px;fill:#ffffff;fill-opacity:1;stroke:#000000;stroke-width:1.60522664px;stroke-linecap:butt;stroke-linejoin:miter;stroke-opacity:1"
               d="m 609.30655,2014.9453 -93.56445,-1.9804 c 0,0 -17.97609,4.2058 -23.7461,11.4218 -3.45228,-2.3108 -7.02752,-4.4155 -10.77148,-6.1133 -10.9707,-5.1368 -22.92938,-7.3046 -34.85742,-7.3046 -11.57075,0 -23.15058,2.0316 -33.84571,6.7226 -8.18303,3.5893 -15.77918,8.6826 -22.29882,14.9141 -2.42183,-2.6215 -5.0731,-5.0311 -7.94532,-7.0996 -6.02271,-4.5052 -12.83004,-7.7371 -19.72461,-9.7071 -6.67543,-1.9072 -20.5,-2.8339 -20.5,-2.8339 l -100.32226,-0.4981 c 0,0 -17.40665,3.9525 -23.17578,10.7715 -5.76249,-6.5195 -22.74219,-10.2734 -22.74219,-10.2734 H -19.96884 -41.929778 c -16.797683,0 -30.414529,13.6183 -30.416015,30.416 v 106.9804 c 0.0015,16.7977 13.618332,30.4145 30.416015,30.416 h 70.375 315.103518 c 0,0 13.34556,-0.9882 19.7207,-2.666 0.24038,-0.063 0.47998,-0.1285 0.71875,-0.1972 6.99192,-2.0243 13.7469,-5.091 19.87305,-9.1114 2.75597,-1.8087 5.34928,-3.9122 7.81445,-6.166 5.74852,5.2163 12.25089,9.5906 19.20899,12.8867 0.19242,0.091 0.38579,0.1791 0.58007,0.2656 11.02268,4.9415 22.94234,6.9863 34.90235,6.9863 11.53176,0 23.0859,-2.0141 33.76562,-6.7636 4.14863,-1.8258 8.11198,-4.0988 11.90821,-6.6328 5.76443,7.1956 14.48134,11.3885 23.70117,11.4003 h 21.96093 c 7.04789,-0.01 13.87487,-2.4599 19.31446,-6.9414 5.4313,4.4747 12.24605,6.9278 19.2832,6.9414 h 26.78516 c 2.31135,-0.01 4.61397,-0.2844 6.86328,-0.8164 23.00976,35.7085 88.45644,25.7118 93.34766,-1.9023 0.52351,0.033 1.57226,0.057 1.57226,0.057 H 995.7128 c 0,0 0.40152,0.5817 0.60356,0.8698 21.11234,30.1042 65.13174,35.2895 82.82804,13.1149 15.8774,-14.0253 17.2461,-31.2238 17.2461,-47.3125 v -12.0449 c 14.8974,-2.2099 25.935,-14.9884 25.9551,-30.0488 v -11.8946 c -0.015,-15.0641 -11.054,-27.8481 -25.9551,-30.0586 v -11.8691 c 0,-16.0647 -1.3276,-33.3005 -17.3359,-47.2988 -15.8146,-13.9986 -30.9237,-13.7305 -47.6836,-13.7305 h -5.2422 c -13.7307,0.01 -25.7556,9.2084 -29.34764,22.4609 H 979.7128 c -15.36572,2.6566 -25.27979,10.8744 -29.61914,22.8829 -5.05357,-13.2185 -18.49319,-22.6189 -29.60937,-22.8829 -0.39181,0.016 -1.18058,0.047 -1.18058,0.047 l -214.43466,-0.047 c 0,0 -1.67395,0.049 -2.50781,0.125 -31.09881,-34.0433 -70.53578,-30.8065 -93.05469,4.5155 z"
               id="path2549"
               inkscape:connector-curvature="0"
               sodipodi:nodetypes="ccccscccccccccccccccccccccscccccccccccscsccccscscccccccccc" />
            <g
               inkscape:export-filename="/home/khairulimam/black-with-man-big-logo.png"
               inkscape:export-ydpi="300"
               inkscape:export-xdpi="300"
               id="g1154"
               transform="matrix(9.962877,0,0,9.9633249,-2492.2552,1520.1612)">
              <g
                 style="fill:#007bff;fill-opacity:1"
                 inkscape:export-ydpi="96"
                 inkscape:export-xdpi="96"
                 id="g1138"
                 transform="matrix(0.16111717,0,0,0.16111717,222.29121,-25.855869)">
                <path
                   d="m 592.20698,593.87198 v 7.46242 H 588.994 q -12.9038,0 -17.30869,-3.83485 -4.35311,-3.83484 -4.35311,-15.2876 v -12.38558 q 0,-7.82519 -2.7984,-10.8309 -2.79843,-3.0057 -10.15722,-3.0057 h -3.16116 v -7.41061 h 3.16116 q 7.4106,0 10.15722,-2.95389 2.7984,-3.00571 2.7984,-10.72726 v -12.43739 q 0,-11.45276 4.35311,-15.23579 4.40489,-3.83485 17.30869,-3.83485 h 3.21298 v 7.4106 h -3.52393 q -7.30697,0 -9.53532,2.28018 -2.22836,2.28021 -2.22836,9.58717 v 12.85194 q 0,8.13614 -2.38385,11.81553 -2.33199,3.67939 -8.03246,4.97497 5.75229,1.39922 8.08428,5.07861 2.33203,3.67939 2.33203,11.76368 v 12.85197 q 0,7.30697 2.22836,9.58718 2.22835,2.28017 9.53532,2.28017 z"
                   style="font-style:normal;font-variant:normal;font-weight:normal;font-stretch:normal;font-size:medium;line-height:125%;font-family:sans-serif;-inkscape-font-specification:sans-serif;letter-spacing:0px;word-spacing:0px;fill:#007bff;fill-opacity:1;stroke:none;stroke-width:1px;stroke-linecap:butt;stroke-linejoin:miter;stroke-opacity:1"
                   id="path1128"
                   inkscape:connector-curvature="0" />
                <path
                   d="m 667.71232,550.65206 q 0,8.2916 -2.69476,14.51029 -2.6948,6.2187 -7.46246,10.46813 -4.76766,4.1458 -11.2973,6.32234 -6.42597,2.07289 -13.99207,2.07289 h -20.21072 v -66.64366 h 20.21072 q 7.98068,0 14.51029,2.28017 6.52965,2.28018 11.19367,6.52965 4.66402,4.24943 7.15151,10.46813 2.59112,6.11502 2.59112,13.99206 z m -13.68115,0 q 0,-22.69824 -21.76544,-22.69824 h -6.5296 v 45.50013 h 6.5296 q 21.76544,0 21.76544,-22.80189 z"
                   style="font-style:normal;font-variant:normal;font-weight:bold;font-stretch:normal;font-size:medium;line-height:125%;font-family:'Padauk Book';-inkscape-font-specification:'Padauk Book, Bold';letter-spacing:0px;word-spacing:0px;fill:#007bff;fill-opacity:1;stroke:none;stroke-width:1px;stroke-linecap:butt;stroke-linejoin:miter;stroke-opacity:1"
                   id="path1130"
                   inkscape:connector-curvature="0" />
                <path
                   d="m 679.42418,584.02571 v -66.64366 h 43.94545 v 10.57177 H 692.5871 v 16.47955 h 28.91691 v 10.05354 H 692.5871 v 18.96704 h 31.71534 v 10.57176 z"
                   style="font-style:normal;font-variant:normal;font-weight:bold;font-stretch:normal;font-size:medium;line-height:125%;font-family:'Padauk Book';-inkscape-font-specification:'Padauk Book, Bold';letter-spacing:0px;word-spacing:0px;fill:#007bff;fill-opacity:1;stroke:none;stroke-width:1px;stroke-linecap:butt;stroke-linejoin:miter;stroke-opacity:1"
                   id="path1132"
                   inkscape:connector-curvature="0" />
                <path
                   d="m 772.49733,584.02571 h -16.27227 l -24.56383,-66.64366 h 14.71756 l 18.34517,51.3042 18.55242,-51.3042 h 14.61396 z"
                   style="font-style:normal;font-variant:normal;font-weight:bold;font-stretch:normal;font-size:medium;line-height:125%;font-family:'Padauk Book';-inkscape-font-specification:'Padauk Book, Bold';letter-spacing:0px;word-spacing:0px;fill:#007bff;fill-opacity:1;stroke:none;stroke-width:1px;stroke-linecap:butt;stroke-linejoin:miter;stroke-opacity:1"
                   id="path1134"
                   inkscape:connector-curvature="0" />
                <path
                   d="m 812.19332,593.87198 h 3.62757 q 7.25515,0 9.43168,-2.22835 2.22836,-2.22839 2.22836,-9.639 v -12.85197 q 0,-8.08429 2.33203,-11.76368 2.33199,-3.67939 8.08431,-5.07861 -5.75232,-1.29558 -8.08431,-4.97497 -2.33203,-3.67939 -2.33203,-11.81553 v -12.85194 q 0,-7.35878 -2.22836,-9.58717 -2.17653,-2.28018 -9.43168,-2.28018 h -3.62757 v -7.4106 h 3.2648 q 12.9038,0 17.20505,3.83485 4.35311,3.78303 4.35311,15.23579 v 12.43739 q 0,7.72155 2.7984,10.72726 2.79843,2.95389 10.15722,2.95389 h 3.21298 v 7.41061 h -3.21298 q -7.35879,0 -10.15722,3.0057 -2.7984,3.00571 -2.7984,10.8309 v 12.38558 q 0,11.45276 -4.35311,15.2876 -4.30125,3.83485 -17.20505,3.83485 h -3.2648 z"
                   style="font-style:normal;font-weight:normal;font-size:medium;line-height:125%;font-family:sans-serif;letter-spacing:0px;word-spacing:0px;fill:#007bff;fill-opacity:1;stroke:none;stroke-width:1px;stroke-linecap:butt;stroke-linejoin:miter;stroke-opacity:1"
                   id="path1136"
                   inkscape:connector-curvature="0" />
              </g>
              <g
                 style="fill:#000000"
                 inkscape:export-ydpi="96"
                 inkscape:export-xdpi="96"
                 id="g1152"
                 transform="matrix(0.16111717,0,0,0.16111717,222.29121,-25.855869)">
                <path
                   id="path1140"
                   style="font-style:normal;font-variant:normal;font-weight:bold;font-stretch:normal;font-size:medium;line-height:125%;font-family:'Padauk Book';-inkscape-font-specification:'Padauk Book, Bold';letter-spacing:0px;word-spacing:0px;fill:#000000;fill-opacity:1;stroke:none;stroke-width:1px;stroke-linecap:butt;stroke-linejoin:miter;stroke-opacity:1"
                   d="m 146.815,585.68424 v -66.64367 h 13.68112 v 56.0719 h 30.16067 v 10.57177 z"
                   inkscape:connector-curvature="0" />
                <path
                   id="path1142"
                   style="font-style:normal;font-variant:normal;font-weight:bold;font-stretch:normal;font-size:medium;line-height:125%;font-family:'Padauk Book';-inkscape-font-specification:'Padauk Book, Bold';letter-spacing:0px;word-spacing:0px;fill:#000000;fill-opacity:1;stroke:none;stroke-width:1px;stroke-linecap:butt;stroke-linejoin:miter;stroke-opacity:1"
                   d="m 261.13533,552.31058 q 0,7.56606 -2.07289,13.88843 -2.0729,6.32234 -6.11506,10.98636 -4.04213,4.56038 -9.94991,7.1515 -5.80411,2.59109 -13.3702,2.59109 -7.98065,0 -13.99206,-2.69476 -5.90775,-2.7984 -9.84627,-7.46242 -3.93849,-4.66402 -5.90775,-10.98635 -1.96926,-6.32234 -1.96926,-13.47385 0,-7.56609 2.0729,-13.88842 2.17653,-6.32234 6.21869,-10.88272 4.04216,-4.56038 9.94991,-7.15151 5.90778,-2.59112 13.47384,-2.59112 7.87704,0 13.78479,2.79843 6.01142,2.69477 9.84627,7.46243 3.93852,4.66402 5.90774,10.98635 1.96926,6.2187 1.96926,13.26656 z m -13.99206,0 q 0,-23.94197 -17.516,-23.94197 -17.61964,0 -17.61964,23.94197 0,24.04561 17.61964,24.04561 17.516,0 17.516,-24.04561 z"
                   inkscape:connector-curvature="0" />
                <path
                   id="path1144"
                   style="font-style:normal;font-variant:normal;font-weight:bold;font-stretch:normal;font-size:medium;line-height:125%;font-family:'Padauk Book';-inkscape-font-specification:'Padauk Book, Bold';letter-spacing:0px;word-spacing:0px;fill:#000000;fill-opacity:1;stroke:none;stroke-width:1px;stroke-linecap:butt;stroke-linejoin:miter;stroke-opacity:1"
                   d="m 332.65033,585.68424 v -55.3464 l -16.79046,55.3464 h -13.3702 l -16.79047,-55.3464 v 55.3464 h -12.85197 v -66.64367 h 22.07634 l 14.30302,48.19489 14.30301,-48.50584 h 22.17999 v 66.95462 z"
                   inkscape:connector-curvature="0" />
                <path
                   id="path1146"
                   style="font-style:normal;font-variant:normal;font-weight:bold;font-stretch:normal;font-size:medium;line-height:125%;font-family:'Padauk Book';-inkscape-font-specification:'Padauk Book, Bold';letter-spacing:0px;word-spacing:0px;fill:#000000;fill-opacity:1;stroke:none;stroke-width:1px;stroke-linecap:butt;stroke-linejoin:miter;stroke-opacity:1"
                   d="m 409.34758,568.47919 q 0,4.24943 -2.17654,7.46242 -2.17653,3.21302 -5.49319,5.38955 -3.31663,2.17654 -7.25515,3.31663 -3.93848,1.03645 -7.46242,1.03645 H 358.6652 v -66.64367 h 27.36227 q 3.93852,0 7.56609,1.03645 3.62758,1.03645 6.32234,3.10935 2.7984,1.96922 4.45674,5.07857 1.65831,3.00571 1.65831,7.04787 0,3.31662 -1.14008,5.80411 -1.03645,2.38385 -2.79844,4.24943 -1.76195,1.86563 -4.24943,3.31666 -2.38385,1.34737 -4.97497,2.48749 3.62757,1.14008 6.63328,2.48745 3.00571,1.3474 5.18225,3.42029 2.17653,1.96927 3.42029,4.76766 1.24373,2.79844 1.24373,6.63329 z M 392.3498,538.00757 q 0,-2.17654 -0.93277,-3.73121 -0.93281,-1.55467 -2.38385,-2.59112 -1.45104,-1.03645 -3.31662,-1.55468 -1.76199,-0.51822 -3.62758,-0.51822 h -9.74263 v 16.47955 h 8.80982 q 2.0729,0 4.04216,-0.51823 2.0729,-0.51822 3.62757,-1.55467 1.55468,-1.03645 2.48745,-2.48748 1.03645,-1.55468 1.03645,-3.52394 z m 2.79844,27.77686 q 0,-2.59113 -1.24376,-4.35311 -1.14009,-1.86559 -3.00568,-2.90204 -1.86562,-1.14009 -4.24947,-1.55467 -2.28017,-0.51823 -4.56035,-0.51823 h -9.74263 v 18.65609 h 9.74263 q 2.69477,0 5.07858,-0.51823 2.38384,-0.51822 4.14579,-1.55467 1.76199,-1.14009 2.79844,-2.90207 1.03645,-1.76195 1.03645,-4.35307 z"
                   inkscape:connector-curvature="0" />
                <path
                   id="path1148"
                   style="font-style:normal;font-variant:normal;font-weight:bold;font-stretch:normal;font-size:medium;line-height:125%;font-family:'Padauk Book';-inkscape-font-specification:'Padauk Book, Bold';letter-spacing:0px;word-spacing:0px;fill:#000000;fill-opacity:1;stroke:none;stroke-width:1px;stroke-linecap:butt;stroke-linejoin:miter;stroke-opacity:1"
                   d="m 482.52092,552.31058 q 0,7.56606 -2.07289,13.88843 -2.0729,6.32234 -6.11506,10.98636 -4.04216,4.56038 -9.94991,7.1515 -5.80414,2.59109 -13.3702,2.59109 -7.98068,0 -13.99207,-2.69476 -5.90778,-2.7984 -9.84626,-7.46242 -3.93852,-4.66402 -5.90779,-10.98635 -1.96922,-6.32234 -1.96922,-13.47385 0,-7.56609 2.0729,-13.88842 2.17653,-6.32234 6.21869,-10.88272 4.04213,-4.56038 9.94991,-7.15151 5.90775,-2.59112 13.47384,-2.59112 7.87701,0 13.78475,2.79843 6.01142,2.69477 9.84627,7.46243 3.93852,4.66402 5.90778,10.98635 1.96926,6.2187 1.96926,13.26656 z m -13.99206,0 q 0,-23.94197 -17.516,-23.94197 -17.61964,0 -17.61964,23.94197 0,24.04561 17.61964,24.04561 17.516,0 17.516,-24.04561 z"
                   inkscape:connector-curvature="0" />
                <path
                   id="path1150"
                   style="font-style:normal;font-variant:normal;font-weight:bold;font-stretch:normal;font-size:medium;line-height:125%;font-family:'Padauk Book';-inkscape-font-specification:'Padauk Book, Bold';letter-spacing:0px;word-spacing:0px;fill:#000000;fill-opacity:1;stroke:none;stroke-width:1px;stroke-linecap:butt;stroke-linejoin:miter;stroke-opacity:1"
                   d="M 531.95954,585.68424 507.9139,552.31058 v 33.37366 h -13.68112 v -66.64367 h 13.68112 v 28.60599 l 22.18002,-28.60599 h 15.75401 l -23.52738,29.84972 26.32582,36.79395 z"
                   inkscape:connector-curvature="0" />
              </g>
            </g>
          </g>
        </g>
      </g>
    </g>
  </g>
</svg>
