<?xml version="1.0" encoding="UTF-8" standalone="no"?>
<!-- Created with Inkscape (http://www.inkscape.org/) -->

<svg
   xmlns:dc="http://purl.org/dc/elements/1.1/"
   xmlns:cc="http://creativecommons.org/ns#"
   xmlns:rdf="http://www.w3.org/1999/02/22-rdf-syntax-ns#"
   xmlns:svg="http://www.w3.org/2000/svg"
   xmlns="http://www.w3.org/2000/svg"
   xmlns:xlink="http://www.w3.org/1999/xlink"
   xmlns:sodipodi="http://sodipodi.sourceforge.net/DTD/sodipodi-0.dtd"
   xmlns:inkscape="http://www.inkscape.org/namespaces/inkscape"
   width="210mm"
   height="297mm"
   viewBox="0 0 744.09448819 1052.3622047"
   id="svg2"
   version="1.1"
   inkscape:version="0.91 r13725"
   sodipodi:docname="mockup-web.svg">
  <defs
     id="defs4">
    <defs
       id="definitions">
      <linearGradient
         spreadMethod="pad"
         gradientUnits="objectBoundingBox"
         xlink:href="#linearGradient2182"
         id="linearGradient1694"
         y2="0.5"
         x2="1"
         y1="0.5"
         x1="0" />
      <radialGradient
         xlink:href="#linearGradient1694"
         id="radialGradient1505"
         fy="0.203125"
         fx="0.48461539"
         r="0.55434185"
         cy="0.5"
         cx="0.5" />
      <linearGradient
         spreadMethod="pad"
         gradientUnits="objectBoundingBox"
         xlink:href="#linearGradient1111"
         id="MaterialSoftShadow"
         y2="0.5"
         x2="1"
         y1="0.5"
         x1="0" />
      <linearGradient
         spreadMethod="pad"
         gradientUnits="objectBoundingBox"
         xlink:href="#linearGradient2179"
         id="linearGradient1693"
         y2="0.5"
         x2="1"
         y1="0.5"
         x1="0" />
    </defs>
    <linearGradient
       id="linearGradient1111">
      <stop
         offset="0"
         style="stop-color:#000000;stop-opacity:0.21472393"
         id="stop1114" />
      <stop
         offset="0.5"
         style="stop-color:#000000;stop-opacity:0.09815951"
         id="stop1113" />
      <stop
         offset="1"
         style="stop-color:#000000;stop-opacity:0"
         id="stop1112" />
    </linearGradient>
    <linearGradient
       id="linearGradient2179">
      <stop
         offset="0"
         style="stop-color:#ffffff;stop-opacity:1"
         id="stop2181" />
      <stop
         offset="1"
         style="stop-color:#ffffff;stop-opacity:0"
         id="stop2180" />
    </linearGradient>
    <linearGradient
       id="linearGradient2182">
      <stop
         offset="0"
         style="stop-color:#0180d4;stop-opacity:1"
         id="stop2185" />
      <stop
         offset="0.56999999"
         style="stop-color:#0180d4;stop-opacity:1"
         id="stop2184" />
      <stop
         offset="1"
         style="stop-color:#013366;stop-opacity:1"
         id="stop2183" />
    </linearGradient>
    <clipPath
       id="clipPath274">
      <path
         id="path276"
         d="m 84.461,713.596 77.163,0 0,43.961 -77.163,0 0,-43.961 z" />
    </clipPath>
    <clipPath
       id="clipPath20">
      <path
         inkscape:connector-curvature="0"
         id="path22"
         d="M 0,792 612,792 612,0 0,0 0,792 z" />
    </clipPath>
  </defs>
  <sodipodi:namedview
     id="base"
     pagecolor="#ffffff"
     bordercolor="#666666"
     borderopacity="1.0"
     inkscape:pageopacity="0.0"
     inkscape:pageshadow="2"
     inkscape:zoom="0.98994949"
     inkscape:cx="459.04708"
     inkscape:cy="-161.13217"
     inkscape:document-units="px"
     inkscape:current-layer="layer1"
     showgrid="false"
     inkscape:window-width="1366"
     inkscape:window-height="719"
     inkscape:window-x="0"
     inkscape:window-y="0"
     inkscape:window-maximized="1" />
  <metadata
     id="metadata7">
    <rdf:RDF>
      <cc:Work
         rdf:about="">
        <dc:format>image/svg+xml</dc:format>
        <dc:type
           rdf:resource="http://purl.org/dc/dcmitype/StillImage" />
        <dc:title></dc:title>
      </cc:Work>
    </rdf:RDF>
  </metadata>
  <g
     inkscape:label="Layer 1"
     inkscape:groupmode="layer"
     id="layer1">
    <rect
       style="opacity:1;fill:#ffffff;fill-opacity:1;stroke:#e6e6e6;stroke-width:1.09069014;stroke-linecap:round;stroke-linejoin:bevel;stroke-miterlimit:4;stroke-dasharray:none;stroke-dashoffset:0;stroke-opacity:1"
       id="rect4287"
       width="744.39172"
       height="1487.864"
       x="0.045345038"
       y="-3.2018602"
       inkscape:export-xdpi="90"
       inkscape:export-ydpi="90" />
    <g
       transform="matrix(0.35299051,0,0,0.35299051,194.86608,-72.845301)"
       id="layer1-6"
       inkscape:label="Layer 1">
      <g
         id="g5950">
        <g
           transform="matrix(0.99188305,-0.12715352,0.12715352,0.99188305,0,0)"
           style="font-style:normal;font-weight:normal;font-size:223.04838562px;line-height:125%;font-family:sans-serif;letter-spacing:0px;word-spacing:0px;fill:#ff0000;fill-opacity:1;stroke:none;stroke-width:1px;stroke-linecap:butt;stroke-linejoin:miter;stroke-opacity:1"
           id="text5732">
          <path
             d="m 173.14542,657.01905 c 0,13.15986 0.66914,21.41265 2.23048,24.98142 1.56134,4.01487 8.02974,5.79926 19.18216,5.79926 6.02231,0 10.26023,-0.66914 12.71376,-2.45353 2.45353,-1.56134 5.13011,-4.90706 8.25279,-9.81413 6.69145,-11.15242 14.49815,-24.31227 23.42008,-39.70261 8.92194,-15.16729 16.28253,-27.21191 22.08179,-36.13384 -8.47584,30.78068 -12.49071,52.86247 -12.49071,66.24537 0,5.35316 0,9.59108 0.4461,12.49071 0.4461,3.12268 1.11524,6.02231 2.45353,9.14498 1.33829,3.12268 3.34573,5.13012 6.24536,6.46841 2.67658,1.33829 6.4684,2.00743 11.15241,2.00743 6.9145,0 14.7212,-2.67658 23.42009,-8.47584 8.69888,-5.57621 13.15985,-9.81413 13.15985,-12.71375 0,-1.33829 -0.66915,-2.45354 -1.78439,-3.79183 -1.33829,-1.11524 -2.23048,-1.78438 -3.12267,-1.78438 -0.4461,0 -2.89963,1.11524 -7.3606,3.12267 -4.68402,2.00744 -8.25279,2.89963 -10.92937,2.89963 -3.79182,0 -5.57621,-1.56134 -5.57621,-5.13011 0,-8.25279 2.23048,-22.52789 6.69145,-42.82529 4.46097,-20.07436 9.14498,-38.81042 13.829,-55.98515 4.46097,-17.17472 6.9145,-26.09666 6.9145,-26.7658 0,-1.33829 -0.89219,-2.89963 -2.67658,-4.23792 -1.78439,-1.33829 -4.23792,-2.23048 -7.3606,-2.23048 -7.58364,0 -13.15985,1.11524 -16.50558,3.12267 -3.56877,2.23049 -6.69145,5.35316 -9.36803,9.81413 l -66.91452,112.19334 c 0,-48.8476 1.78439,-87.88106 5.57621,-117.32345 1.11525,-3.56878 1.78439,-5.35316 1.78439,-5.57621 0,-1.78439 -1.78439,-3.34573 -4.90706,-4.68402 -3.34573,-1.11524 -7.13755,-1.78438 -11.37547,-1.78438 -5.57621,0 -10.48328,1.33829 -14.94424,3.56877 -4.46097,2.45353 -6.69146,5.13011 -6.69146,8.02974 0,1.78439 0,3.34573 0.4461,4.46097 -4.23792,13.60595 -12.26766,36.35689 -23.86618,68.47585 -11.82156,32.11897 -19.18216,52.63942 -21.85874,61.11526 -0.44609,1.33829 -1.33829,3.34573 -2.45353,6.02231 -1.11524,2.67658 -2.00744,5.13011 -2.45353,6.9145 -0.66915,1.78438 -0.8922,3.34572 -0.8922,4.46097 0,1.78438 0.66915,3.34572 2.45354,4.46096 1.56134,1.11525 3.79182,1.56134 6.4684,1.56134 2.89963,0 5.13011,-0.22305 6.9145,-1.11524 1.56134,-0.66915 2.67658,-1.56134 3.12268,-2.45353 0.44609,-0.8922 1.11524,-2.23049 1.78438,-4.46097 2.23049,-8.02974 5.13012,-16.50558 8.25279,-25.65056 3.12268,-8.92194 5.79926,-16.50558 8.02975,-22.52789 2.23048,-5.79926 5.13011,-13.829 9.14498,-24.08923 3.79182,-10.03717 6.4684,-17.39777 8.25279,-22.08179 0,5.13012 -0.22305,14.49815 -0.4461,28.1041 -0.44609,13.60595 -0.44609,22.97398 -0.44609,28.32714 z"
             style="font-style:normal;font-variant:normal;font-weight:normal;font-stretch:normal;font-family:FilmotypeKellog;-inkscape-font-specification:FilmotypeKellog;fill:#ff0000;fill-opacity:1"
             id="path5925"
             inkscape:connector-curvature="0" />
          <path
             d="m 386.87108,622.22351 c 0,-4.90707 -2.89962,-9.59108 -8.25279,-14.2751 -5.57621,-4.46097 -11.37546,-8.02974 -17.39777,-10.48327 -6.24535,-2.23049 -10.92937,-3.56878 -14.49815,-3.56878 -8.25279,0 -16.05948,5.13011 -23.64312,14.94424 -7.58365,10.03718 -13.15986,20.96655 -17.17473,32.78812 -4.01487,12.04461 -5.79926,21.85874 -5.79926,29.88848 0,8.47584 4.46097,16.05948 13.38291,22.30484 6.24535,4.68401 15.16729,6.9145 26.31971,6.9145 8.92193,0 20.07435,-3.56878 33.45725,-10.92937 14.7212,-8.02974 22.30484,-14.94424 22.30484,-20.29741 0,-2.67658 -0.89219,-4.01487 -2.67658,-4.01487 -0.89219,0 -6.4684,2.89963 -16.95168,8.47584 -14.94424,8.02974 -27.88104,12.04461 -39.03346,12.04461 -3.12268,0 -6.24536,-0.89219 -8.92194,-3.12267 -2.89963,-2.23049 -4.23792,-4.90707 -4.23792,-8.25279 0,-3.79183 0.4461,-8.25279 1.78439,-13.60595 10.70632,0 20.07435,-1.56134 28.55019,-4.46097 8.47584,-2.67658 14.94424,-6.24536 19.40521,-10.48328 4.46097,-4.01487 7.80669,-8.25279 10.03718,-12.26766 2.23048,-4.01487 3.34572,-8.02974 3.34572,-11.59851 z m -27.658,-11.15242 c 2.00744,0 3.79183,0.66914 5.13012,1.78438 1.33829,1.33829 2.23048,2.89963 2.23048,4.68402 0,5.57621 -3.12268,11.82156 -8.92193,18.51302 -6.02231,6.69145 -13.60596,10.03717 -22.97399,10.03717 -1.78438,0 -3.12268,0 -4.01487,-0.22304 4.01487,-9.36804 8.69889,-17.62083 14.05205,-24.53533 5.35316,-6.69145 10.26023,-10.26022 14.49814,-10.26022 z"
             style="font-style:normal;font-variant:normal;font-weight:normal;font-stretch:normal;font-family:FilmotypeKellog;-inkscape-font-specification:FilmotypeKellog;fill:#ff0000;fill-opacity:1"
             id="path5927"
             inkscape:connector-curvature="0" />
          <path
             d="m 473.12807,622.22351 c 0,-4.90707 -2.89963,-9.59108 -8.25279,-14.2751 -5.57621,-4.46097 -11.37547,-8.02974 -17.39777,-10.48327 -6.24536,-2.23049 -10.92937,-3.56878 -14.49815,-3.56878 -8.25279,0 -16.05948,5.13011 -23.64313,14.94424 -7.58364,10.03718 -13.15985,20.96655 -17.17472,32.78812 -4.01487,12.04461 -5.79926,21.85874 -5.79926,29.88848 0,8.47584 4.46097,16.05948 13.3829,22.30484 6.24536,4.68401 15.16729,6.9145 26.31971,6.9145 8.92194,0 20.07436,-3.56878 33.45726,-10.92937 14.72119,-8.02974 22.30484,-14.94424 22.30484,-20.29741 0,-2.67658 -0.89219,-4.01487 -2.67658,-4.01487 -0.89219,0 -6.4684,2.89963 -16.95168,8.47584 -14.94424,8.02974 -27.88105,12.04461 -39.03347,12.04461 -3.12267,0 -6.24535,-0.89219 -8.92193,-3.12267 -2.89963,-2.23049 -4.23792,-4.90707 -4.23792,-8.25279 0,-3.79183 0.4461,-8.25279 1.78439,-13.60595 10.70632,0 20.07435,-1.56134 28.55019,-4.46097 8.47584,-2.67658 14.94424,-6.24536 19.40521,-10.48328 4.46097,-4.01487 7.80669,-8.25279 10.03718,-12.26766 2.23048,-4.01487 3.34572,-8.02974 3.34572,-11.59851 z m -27.658,-11.15242 c 2.00744,0 3.79183,0.66914 5.13012,1.78438 1.33829,1.33829 2.23048,2.89963 2.23048,4.68402 0,5.57621 -3.12268,11.82156 -8.92194,18.51302 -6.0223,6.69145 -13.60595,10.03717 -22.97398,10.03717 -1.78439,0 -3.12268,0 -4.01487,-0.22304 4.01487,-9.36804 8.69889,-17.62083 14.05205,-24.53533 5.35316,-6.69145 10.26022,-10.26022 14.49814,-10.26022 z"
             style="font-style:normal;font-variant:normal;font-weight:normal;font-stretch:normal;font-family:FilmotypeKellog;-inkscape-font-specification:FilmotypeKellog;fill:#ff0000;fill-opacity:1"
             id="path5929"
             inkscape:connector-curvature="0" />
          <path
             d="m 465.70474,594.11941 c 0,2.67658 1.78439,4.68402 5.35316,6.4684 3.56877,1.78439 8.69889,2.67658 15.61339,2.67658 l 2.45353,0 c -12.71376,40.37176 -18.95911,64.23794 -18.95911,71.59854 0,7.13754 1.78438,12.49071 5.79926,15.83643 4.01487,3.56877 8.92193,5.13011 15.16729,5.13011 5.35316,0 14.72119,-2.89963 27.658,-9.14498 9.14498,-4.23792 14.27509,-7.13755 15.16729,-8.69889 1.78438,-3.12267 2.89962,-5.79926 2.89962,-7.58364 0,-2.00744 -0.89219,-3.12268 -2.67658,-3.12268 -0.66914,0 -5.79925,2.00744 -15.39033,5.79926 -9.59109,3.79182 -16.05949,5.57621 -19.62826,5.57621 -2.23049,0 -3.12268,-1.56134 -3.12268,-5.13011 0,-10.70633 6.24535,-34.34946 18.95911,-71.37549 0.66915,0 2.45353,0 5.35316,-0.22305 2.89963,0 5.57621,-0.22305 8.02975,-0.44609 2.23048,-0.22305 4.90706,-0.66915 7.58364,-1.11525 2.67658,-0.44609 4.68402,-1.33829 6.24536,-2.67658 1.33829,-1.33829 2.23048,-2.89962 2.23048,-4.68401 0,-3.56878 -1.56134,-6.02231 -4.46097,-7.3606 -3.12268,-1.11524 -7.80669,-1.78439 -14.05205,-1.78439 l -4.68401,0 1.33829,-4.68401 c 1.33829,-4.90707 2.89963,-8.69889 4.23792,-11.82157 1.33829,-3.12267 2.45353,-5.13011 3.34572,-6.0223 0.66915,-0.8922 1.11524,-1.78439 1.11524,-2.67658 0,-3.12268 -4.23791,-4.68402 -12.26766,-4.68402 -6.24535,0 -10.70632,1.33829 -13.60595,3.56877 -3.12268,2.23049 -4.90706,6.69146 -5.79926,12.93681 l -5.13011,15.61339 c -11.59851,1.33829 -19.40521,2.67658 -23.19703,3.56877 -3.79182,1.11524 -5.57621,2.67658 -5.57621,4.46097 z"
             style="font-style:normal;font-variant:normal;font-weight:normal;font-stretch:normal;font-family:FilmotypeKellog;-inkscape-font-specification:FilmotypeKellog;fill:#ff0000;fill-opacity:1"
             id="path5931"
             inkscape:connector-curvature="0" />
          <path
             d="m 556.12299,599.69562 c -4.01487,0 -6.9145,0.66914 -9.14498,1.78439 -2.23049,1.33829 -3.34573,3.56877 -3.79183,6.69145 -4.01487,10.26022 -7.13754,18.06692 -9.14498,23.42008 -2.00743,5.57621 -4.23792,12.93681 -6.4684,21.85874 -2.23049,8.92194 -3.34573,16.72863 -3.34573,22.97398 0,5.79926 1.11524,10.03718 3.56878,12.93681 2.45353,2.89963 7.13754,4.23792 14.27509,4.23792 2.67658,0.89219 5.35316,1.33829 8.25279,1.33829 6.24536,0 10.92937,-1.33829 14.49815,-4.01487 3.56877,-2.67658 9.14498,-8.92194 16.95168,-18.51302 0.66914,13.829 7.80669,20.7435 21.18959,20.7435 6.02231,0 14.2751,-3.12267 24.53532,-9.36803 8.69889,-5.35316 13.15986,-9.81413 13.15986,-12.93681 0,-2.23048 -0.89219,-3.34572 -2.67658,-3.34572 -2.23049,0 -6.69145,2.00743 -13.60595,5.79926 -7.8067,4.23792 -12.49071,6.24535 -14.05205,6.24535 -2.67658,0 -4.01487,-3.12268 -4.01487,-9.81413 0,-3.56877 0.89219,-9.36803 3.12268,-17.17472 2.23048,-7.58365 4.68401,-14.7212 7.36059,-20.96655 0.66915,-1.78439 2.00744,-4.01487 4.23792,-6.69145 2.23049,-2.67658 3.34573,-4.90707 3.34573,-6.69145 0,-4.23792 -3.34573,-6.46841 -10.03718,-6.46841 -9.14498,0 -14.72119,2.45353 -16.95168,6.9145 -4.90706,10.26023 -10.48327,19.85131 -16.72863,28.99629 -6.0223,8.92194 -12.26766,16.72863 -18.51301,23.64313 -6.46841,7.13755 -10.70633,10.48328 -12.49071,10.48328 -0.8922,0 -1.11524,-1.33829 -1.11524,-4.23792 0,-11.37547 5.35316,-30.78068 16.50558,-58.43868 0.89219,-2.23048 1.78438,-4.68402 2.89963,-7.13755 1.11524,-2.23048 2.00743,-4.01487 2.45353,-5.13011 0.44609,-1.11524 0.89219,-1.78439 0.89219,-2.00744 0,-0.89219 -1.56134,-2.00743 -4.68401,-3.34572 -3.12268,-1.11525 -6.69146,-1.78439 -10.48328,-1.78439 z"
             style="font-style:normal;font-variant:normal;font-weight:normal;font-stretch:normal;font-family:FilmotypeKellog;-inkscape-font-specification:FilmotypeKellog;fill:#ff0000;fill-opacity:1"
             id="path5933"
             inkscape:connector-curvature="0" />
          <path
             d="m 664.90438,693.15289 c 9.36803,0 18.06692,-2.45353 25.87361,-7.36059 7.80669,-4.90707 13.829,-10.70633 18.06692,-17.84387 4.23792,-6.9145 7.58364,-13.60596 9.81413,-20.07436 2.23048,-6.24535 3.34572,-11.82156 3.34572,-16.28253 0,-2.89963 -0.22305,-5.13011 -0.22305,-6.9145 0,-1.56134 -0.44609,-3.56878 -0.89219,-6.02231 -0.66914,-2.45353 -1.56134,-4.46097 -2.45353,-5.79926 -1.11524,-1.33829 -2.67658,-2.45353 -4.68402,-3.79182 -2.23048,-1.11524 -4.68401,-2.00743 -7.80669,-2.45353 -3.34573,-1.11524 -6.02231,-1.78439 -8.02974,-1.78439 -5.57621,0 -10.70632,1.33829 -15.39034,4.01487 -4.68402,2.67658 -9.81413,6.9145 -15.39034,13.15986 7.80669,-20.07436 11.82156,-31.22678 11.82156,-33.68031 0,-4.46097 -3.79182,-6.69145 -11.37546,-6.69145 -5.57621,0 -9.36804,1.78439 -11.59852,4.90706 -2.23048,3.12268 -5.79926,11.15242 -10.48327,24.08923 -6.46841,17.39777 -15.61339,45.50187 -27.43495,84.31229 -11.82157,38.81042 -17.62083,60.22306 -17.62083,64.68403 0,4.01487 2.00744,5.79926 6.24536,5.79926 1.78438,0 7.13755,-1.11524 16.28253,-3.56877 0.89219,-0.22305 1.78439,-1.11525 2.45353,-2.89963 8.25279,-33.45726 14.94424,-57.54649 20.29741,-72.26768 5.79925,4.46097 12.26766,6.4684 19.18216,6.4684 z m 28.99629,-72.49072 c 1.33829,0 2.45353,0.44609 2.89963,1.11524 0.44609,0.66914 0.89219,1.78439 0.89219,3.56877 0,6.02231 -1.56134,13.15986 -4.23792,21.41265 -2.89963,8.47584 -6.69145,15.83643 -11.59852,22.52789 -4.90706,6.69145 -9.81413,9.81412 -14.49814,9.81412 -5.79926,0 -10.70632,-3.34572 -14.49815,-10.48327 4.90707,-10.03718 11.82157,-20.52045 20.7435,-31.44982 8.92194,-10.92937 15.61339,-16.50558 20.29741,-16.50558 z"
             style="font-style:normal;font-variant:normal;font-weight:normal;font-stretch:normal;font-family:FilmotypeKellog;-inkscape-font-specification:FilmotypeKellog;fill:#ff0000;fill-opacity:1"
             id="path5935"
             inkscape:connector-curvature="0" />
        </g>
        <g
           id="g5089"
           transform="matrix(0.60894679,0,0,0.60894679,192.34713,115.32748)">
          <path
             d="m 592.20698,593.87198 0,7.46242 -3.21298,0 q -12.9038,0 -17.30869,-3.83485 -4.35311,-3.83484 -4.35311,-15.2876 l 0,-12.38558 q 0,-7.82519 -2.7984,-10.8309 -2.79843,-3.0057 -10.15722,-3.0057 l -3.16116,0 0,-7.41061 3.16116,0 q 7.4106,0 10.15722,-2.95389 2.7984,-3.00571 2.7984,-10.72726 l 0,-12.43739 q 0,-11.45276 4.35311,-15.23579 4.40489,-3.83485 17.30869,-3.83485 l 3.21298,0 0,7.4106 -3.52393,0 q -7.30697,0 -9.53532,2.28018 -2.22836,2.28021 -2.22836,9.58717 l 0,12.85194 q 0,8.13614 -2.38385,11.81553 -2.33199,3.67939 -8.03246,4.97497 5.75229,1.39922 8.08428,5.07861 2.33203,3.67939 2.33203,11.76368 l 0,12.85197 q 0,7.30697 2.22836,9.58718 2.22835,2.28017 9.53532,2.28017 l 3.52393,0 z"
             style="font-style:normal;font-variant:normal;font-weight:normal;font-stretch:normal;font-size:medium;line-height:125%;font-family:sans-serif;-inkscape-font-specification:sans-serif;letter-spacing:0px;word-spacing:0px;fill:#ff0000;fill-opacity:1;stroke:none;stroke-width:1px;stroke-linecap:butt;stroke-linejoin:miter;stroke-opacity:1"
             id="path5912"
             inkscape:connector-curvature="0" />
          <path
             d="m 667.71232,550.65206 q 0,8.2916 -2.69476,14.51029 -2.6948,6.2187 -7.46246,10.46813 -4.76766,4.1458 -11.2973,6.32234 -6.42597,2.07289 -13.99207,2.07289 l -20.21072,0 0,-66.64366 20.21072,0 q 7.98068,0 14.51029,2.28017 6.52965,2.28018 11.19367,6.52965 4.66402,4.24943 7.15151,10.46813 2.59112,6.11502 2.59112,13.99206 z m -13.68115,0 q 0,-22.69824 -21.76544,-22.69824 l -6.5296,0 0,45.50013 6.5296,0 q 21.76544,0 21.76544,-22.80189 z"
             style="font-style:normal;font-variant:normal;font-weight:bold;font-stretch:normal;font-size:medium;line-height:125%;font-family:'Padauk Book';-inkscape-font-specification:'Padauk Book, Bold';letter-spacing:0px;word-spacing:0px;fill:#ff0000;fill-opacity:1;stroke:none;stroke-width:1px;stroke-linecap:butt;stroke-linejoin:miter;stroke-opacity:1"
             id="path5914"
             inkscape:connector-curvature="0" />
          <path
             d="m 679.42418,584.02571 0,-66.64366 43.94545,0 0,10.57177 -30.78253,0 0,16.47955 28.91691,0 0,10.05354 -28.91691,0 0,18.96704 31.71534,0 0,10.57176 -44.87826,0 z"
             style="font-style:normal;font-variant:normal;font-weight:bold;font-stretch:normal;font-size:medium;line-height:125%;font-family:'Padauk Book';-inkscape-font-specification:'Padauk Book, Bold';letter-spacing:0px;word-spacing:0px;fill:#ff0000;fill-opacity:1;stroke:none;stroke-width:1px;stroke-linecap:butt;stroke-linejoin:miter;stroke-opacity:1"
             id="path5916"
             inkscape:connector-curvature="0" />
          <path
             d="m 772.49733,584.02571 -16.27227,0 -24.56383,-66.64366 14.71756,0 18.34517,51.3042 18.55242,-51.3042 14.61396,0 -25.39301,66.64366 z"
             style="font-style:normal;font-variant:normal;font-weight:bold;font-stretch:normal;font-size:medium;line-height:125%;font-family:'Padauk Book';-inkscape-font-specification:'Padauk Book, Bold';letter-spacing:0px;word-spacing:0px;fill:#ff0000;fill-opacity:1;stroke:none;stroke-width:1px;stroke-linecap:butt;stroke-linejoin:miter;stroke-opacity:1"
             id="path5918"
             inkscape:connector-curvature="0" />
          <path
             d="m 812.19332,593.87198 3.62757,0 q 7.25515,0 9.43168,-2.22835 2.22836,-2.22839 2.22836,-9.639 l 0,-12.85197 q 0,-8.08429 2.33203,-11.76368 2.33199,-3.67939 8.08431,-5.07861 -5.75232,-1.29558 -8.08431,-4.97497 -2.33203,-3.67939 -2.33203,-11.81553 l 0,-12.85194 q 0,-7.35878 -2.22836,-9.58717 -2.17653,-2.28018 -9.43168,-2.28018 l -3.62757,0 0,-7.4106 3.2648,0 q 12.9038,0 17.20505,3.83485 4.35311,3.78303 4.35311,15.23579 l 0,12.43739 q 0,7.72155 2.7984,10.72726 2.79843,2.95389 10.15722,2.95389 l 3.21298,0 0,7.41061 -3.21298,0 q -7.35879,0 -10.15722,3.0057 -2.7984,3.00571 -2.7984,10.8309 l 0,12.38558 q 0,11.45276 -4.35311,15.2876 -4.30125,3.83485 -17.20505,3.83485 l -3.2648,0 0,-7.46242 z"
             style="font-style:normal;font-weight:normal;font-size:medium;line-height:125%;font-family:sans-serif;letter-spacing:0px;word-spacing:0px;fill:#ff0000;fill-opacity:1;stroke:none;stroke-width:1px;stroke-linecap:butt;stroke-linejoin:miter;stroke-opacity:1"
             id="path5920"
             inkscape:connector-curvature="0" />
        </g>
        <g
           id="g5096"
           transform="matrix(0.60894679,0,0,0.60894679,192.34713,115.32748)">
          <path
             id="path5899"
             style="font-style:normal;font-variant:normal;font-weight:bold;font-stretch:normal;font-size:medium;line-height:125%;font-family:'Padauk Book';-inkscape-font-specification:'Padauk Book, Bold';letter-spacing:0px;word-spacing:0px;fill:#1a1a1a;fill-opacity:1;stroke:none;stroke-width:1px;stroke-linecap:butt;stroke-linejoin:miter;stroke-opacity:1"
             d="m 146.815,585.68424 0,-66.64367 13.68112,0 0,56.0719 30.16067,0 0,10.57177 -43.84179,0 z"
             inkscape:connector-curvature="0" />
          <path
             id="path5901"
             style="font-style:normal;font-variant:normal;font-weight:bold;font-stretch:normal;font-size:medium;line-height:125%;font-family:'Padauk Book';-inkscape-font-specification:'Padauk Book, Bold';letter-spacing:0px;word-spacing:0px;fill:#1a1a1a;fill-opacity:1;stroke:none;stroke-width:1px;stroke-linecap:butt;stroke-linejoin:miter;stroke-opacity:1"
             d="m 261.13533,552.31058 q 0,7.56606 -2.07289,13.88843 -2.0729,6.32234 -6.11506,10.98636 -4.04213,4.56038 -9.94991,7.1515 -5.80411,2.59109 -13.3702,2.59109 -7.98065,0 -13.99206,-2.69476 -5.90775,-2.7984 -9.84627,-7.46242 -3.93849,-4.66402 -5.90775,-10.98635 -1.96926,-6.32234 -1.96926,-13.47385 0,-7.56609 2.0729,-13.88842 2.17653,-6.32234 6.21869,-10.88272 4.04216,-4.56038 9.94991,-7.15151 5.90778,-2.59112 13.47384,-2.59112 7.87704,0 13.78479,2.79843 6.01142,2.69477 9.84627,7.46243 3.93852,4.66402 5.90774,10.98635 1.96926,6.2187 1.96926,13.26656 z m -13.99206,0 q 0,-23.94197 -17.516,-23.94197 -17.61964,0 -17.61964,23.94197 0,24.04561 17.61964,24.04561 17.516,0 17.516,-24.04561 z"
             inkscape:connector-curvature="0" />
          <path
             id="path5903"
             style="font-style:normal;font-variant:normal;font-weight:bold;font-stretch:normal;font-size:medium;line-height:125%;font-family:'Padauk Book';-inkscape-font-specification:'Padauk Book, Bold';letter-spacing:0px;word-spacing:0px;fill:#1a1a1a;fill-opacity:1;stroke:none;stroke-width:1px;stroke-linecap:butt;stroke-linejoin:miter;stroke-opacity:1"
             d="m 332.65033,585.68424 0,-55.3464 -16.79046,55.3464 -13.3702,0 -16.79047,-55.3464 0,55.3464 -12.85197,0 0,-66.64367 22.07634,0 14.30302,48.19489 14.30301,-48.50584 22.17999,0 0,66.95462 -13.05926,0 z"
             inkscape:connector-curvature="0" />
          <path
             id="path5905"
             style="font-style:normal;font-variant:normal;font-weight:bold;font-stretch:normal;font-size:medium;line-height:125%;font-family:'Padauk Book';-inkscape-font-specification:'Padauk Book, Bold';letter-spacing:0px;word-spacing:0px;fill:#1a1a1a;fill-opacity:1;stroke:none;stroke-width:1px;stroke-linecap:butt;stroke-linejoin:miter;stroke-opacity:1"
             d="m 409.34758,568.47919 q 0,4.24943 -2.17654,7.46242 -2.17653,3.21302 -5.49319,5.38955 -3.31663,2.17654 -7.25515,3.31663 -3.93848,1.03645 -7.46242,1.03645 l -28.29508,0 0,-66.64367 27.36227,0 q 3.93852,0 7.56609,1.03645 3.62758,1.03645 6.32234,3.10935 2.7984,1.96922 4.45674,5.07857 1.65831,3.00571 1.65831,7.04787 0,3.31662 -1.14008,5.80411 -1.03645,2.38385 -2.79844,4.24943 -1.76195,1.86563 -4.24943,3.31666 -2.38385,1.34737 -4.97497,2.48749 3.62757,1.14008 6.63328,2.48745 3.00571,1.3474 5.18225,3.42029 2.17653,1.96927 3.42029,4.76766 1.24373,2.79844 1.24373,6.63329 z M 392.3498,538.00757 q 0,-2.17654 -0.93277,-3.73121 -0.93281,-1.55467 -2.38385,-2.59112 -1.45104,-1.03645 -3.31662,-1.55468 -1.76199,-0.51822 -3.62758,-0.51822 l -9.74263,0 0,16.47955 8.80982,0 q 2.0729,0 4.04216,-0.51823 2.0729,-0.51822 3.62757,-1.55467 1.55468,-1.03645 2.48745,-2.48748 1.03645,-1.55468 1.03645,-3.52394 z m 2.79844,27.77686 q 0,-2.59113 -1.24376,-4.35311 -1.14009,-1.86559 -3.00568,-2.90204 -1.86562,-1.14009 -4.24947,-1.55467 -2.28017,-0.51823 -4.56035,-0.51823 l -9.74263,0 0,18.65609 9.74263,0 q 2.69477,0 5.07858,-0.51823 2.38384,-0.51822 4.14579,-1.55467 1.76199,-1.14009 2.79844,-2.90207 1.03645,-1.76195 1.03645,-4.35307 z"
             inkscape:connector-curvature="0" />
          <path
             id="path5907"
             style="font-style:normal;font-variant:normal;font-weight:bold;font-stretch:normal;font-size:medium;line-height:125%;font-family:'Padauk Book';-inkscape-font-specification:'Padauk Book, Bold';letter-spacing:0px;word-spacing:0px;fill:#1a1a1a;fill-opacity:1;stroke:none;stroke-width:1px;stroke-linecap:butt;stroke-linejoin:miter;stroke-opacity:1"
             d="m 482.52092,552.31058 q 0,7.56606 -2.07289,13.88843 -2.0729,6.32234 -6.11506,10.98636 -4.04216,4.56038 -9.94991,7.1515 -5.80414,2.59109 -13.3702,2.59109 -7.98068,0 -13.99207,-2.69476 -5.90778,-2.7984 -9.84626,-7.46242 -3.93852,-4.66402 -5.90779,-10.98635 -1.96922,-6.32234 -1.96922,-13.47385 0,-7.56609 2.0729,-13.88842 2.17653,-6.32234 6.21869,-10.88272 4.04213,-4.56038 9.94991,-7.15151 5.90775,-2.59112 13.47384,-2.59112 7.87701,0 13.78475,2.79843 6.01142,2.69477 9.84627,7.46243 3.93852,4.66402 5.90778,10.98635 1.96926,6.2187 1.96926,13.26656 z m -13.99206,0 q 0,-23.94197 -17.516,-23.94197 -17.61964,0 -17.61964,23.94197 0,24.04561 17.61964,24.04561 17.516,0 17.516,-24.04561 z"
             inkscape:connector-curvature="0" />
          <path
             id="path5909"
             style="font-style:normal;font-variant:normal;font-weight:bold;font-stretch:normal;font-size:medium;line-height:125%;font-family:'Padauk Book';-inkscape-font-specification:'Padauk Book, Bold';letter-spacing:0px;word-spacing:0px;fill:#1a1a1a;fill-opacity:1;stroke:none;stroke-width:1px;stroke-linecap:butt;stroke-linejoin:miter;stroke-opacity:1"
             d="m 531.95954,585.68424 -24.04564,-33.37366 0,33.37366 -13.68112,0 0,-66.64367 13.68112,0 0,28.60599 22.18002,-28.60599 15.75401,0 -23.52738,29.84972 26.32582,36.79395 -16.68683,0 z"
             inkscape:connector-curvature="0" />
        </g>
      </g>
    </g>
    <g
       id="g4289"
       transform="translate(0,9.0913729)">
      <rect
         y="276.56506"
         x="-0.19396684"
         height="277.79193"
         width="744.48242"
         id="rect4188"
         style="opacity:1;fill:#f2f2f2;fill-opacity:1;stroke:none;stroke-width:1;stroke-linecap:round;stroke-linejoin:bevel;stroke-miterlimit:4;stroke-dasharray:4, 2;stroke-dashoffset:0;stroke-opacity:1" />
      <g
         transform="translate(-18.881803,0)"
         id="g4224">
        <rect
           style="opacity:1;fill:#80e5ff;fill-opacity:1;stroke:none;stroke-width:1;stroke-linecap:round;stroke-linejoin:bevel;stroke-miterlimit:4;stroke-dasharray:4, 2;stroke-dashoffset:0;stroke-opacity:1"
           id="rect4194"
           width="416.18286"
           height="32.324883"
           x="182.83762"
           y="311.92038" />
        <text
           xml:space="preserve"
           style="font-style:normal;font-weight:normal;font-size:12.63086414px;line-height:125%;font-family:sans-serif;letter-spacing:0px;word-spacing:0px;fill:#004455;fill-opacity:1;stroke:none;stroke-width:1px;stroke-linecap:butt;stroke-linejoin:miter;stroke-opacity:1"
           x="206.81442"
           y="331.56741"
           id="text4190"
           sodipodi:linespacing="125%"><tspan
             sodipodi:role="line"
             id="tspan4192"
             x="206.81442"
             y="331.56741">Next meetup: October 14th, 2017 @ ITEC (to be confirmed)</tspan></text>
      </g>
      <flowRoot
         transform="matrix(0.68373451,0,0,0.68373451,78.18588,-45.631345)"
         style="font-style:normal;font-weight:normal;font-size:17.5px;line-height:125%;font-family:sans-serif;letter-spacing:0px;word-spacing:0px;fill:#000000;fill-opacity:1;stroke:none;stroke-width:1px;stroke-linecap:butt;stroke-linejoin:miter;stroke-opacity:1"
         id="flowRoot4196"
         xml:space="preserve"><flowRegion
           id="flowRegion4198"><rect
             style="font-size:17.5px"
             y="595.77325"
             x="169.70563"
             height="160.6142"
             width="519.21838"
             id="rect4200" /></flowRegion><flowPara
           style="text-align:center;text-anchor:middle"
           id="flowPara4202">10 lightning talks and the targeted audiences are:</flowPara><flowPara
           style="text-align:center;text-anchor:middle"
           id="flowPara4204">students, developers, coders, programmers,engineers, sysadmins, and related professions</flowPara><flowPara
           style="text-align:center;text-anchor:middle"
           id="flowPara4206" /></flowRoot>      <text
         sodipodi:linespacing="125%"
         id="text4208"
         y="456.76288"
         x="141.58527"
         style="font-style:normal;font-weight:normal;font-size:33.26539993px;line-height:125%;font-family:sans-serif;letter-spacing:0px;word-spacing:0px;fill:#000000;fill-opacity:1;stroke:none;stroke-width:1px;stroke-linecap:butt;stroke-linejoin:miter;stroke-opacity:1"
         xml:space="preserve"><tspan
           style="font-weight:bold;fill:#000000"
           y="456.76288"
           x="141.58527"
           id="tspan4210"
           sodipodi:role="line">18 days 42 hours 21 min</tspan></text>
      <rect
         y="487.68692"
         x="305.5838"
         height="30.304577"
         width="132.9269"
         id="rect4212"
         style="opacity:1;fill:#2ca02c;fill-opacity:1;stroke:none;stroke-width:1;stroke-linecap:round;stroke-linejoin:bevel;stroke-miterlimit:4;stroke-dasharray:4, 2;stroke-dashoffset:0;stroke-opacity:1" />
      <text
         sodipodi:linespacing="125%"
         id="text4214"
         y="507.48618"
         x="340.39636"
         style="font-style:normal;font-weight:normal;font-size:15.01354885px;line-height:125%;font-family:sans-serif;letter-spacing:0px;word-spacing:0px;fill:#ffffff;fill-opacity:1;stroke:none;stroke-width:1px;stroke-linecap:butt;stroke-linejoin:miter;stroke-opacity:1"
         xml:space="preserve"><tspan
           y="507.48618"
           x="340.39636"
           id="tspan4216"
           sodipodi:role="line">Register</tspan></text>
    </g>
    <circle
       style="opacity:1;fill:#cccccc;fill-opacity:1;stroke:none;stroke-width:1;stroke-linecap:round;stroke-linejoin:bevel;stroke-miterlimit:4;stroke-dasharray:4, 2;stroke-dashoffset:0;stroke-opacity:1"
       id="path4218"
       cx="121.72337"
       cy="762.95349"
       r="39.901024" />
    <text
       xml:space="preserve"
       style="font-style:normal;font-weight:normal;font-size:23.29935455px;line-height:125%;font-family:sans-serif;letter-spacing:0px;word-spacing:0px;fill:#000000;fill-opacity:1;stroke:none;stroke-width:1px;stroke-linecap:butt;stroke-linejoin:miter;stroke-opacity:1"
       x="318.3609"
       y="642.68365"
       id="text4220"
       sodipodi:linespacing="125%"><tspan
         sodipodi:role="line"
         id="tspan4222"
         x="318.3609"
         y="642.68365">Speakers</tspan></text>
    <text
       xml:space="preserve"
       style="font-style:normal;font-weight:normal;font-size:10.50772095px;line-height:125%;font-family:sans-serif;letter-spacing:0px;word-spacing:0px;fill:#000000;fill-opacity:1;stroke:none;stroke-width:1px;stroke-linecap:butt;stroke-linejoin:miter;stroke-opacity:1"
       x="175.6306"
       y="773.63385"
       id="text4229"
       sodipodi:linespacing="125%"><tspan
         sodipodi:role="line"
         id="tspan4231"
         x="175.6306"
         y="773.63385">Building Rest API with Golang</tspan></text>
    <text
       xml:space="preserve"
       style="font-style:normal;font-weight:normal;font-size:16.50582695px;line-height:125%;font-family:sans-serif;letter-spacing:0px;word-spacing:0px;fill:#000000;fill-opacity:1;stroke:none;stroke-width:1px;stroke-linecap:butt;stroke-linejoin:miter;stroke-opacity:1"
       x="174.03177"
       y="756.72021"
       id="text4233"
       sodipodi:linespacing="125%"><tspan
         sodipodi:role="line"
         id="tspan4235"
         x="174.03177"
         y="756.72021">Deni Marswandi</tspan></text>
    <circle
       r="39.901024"
       cy="762.95349"
       cx="469.21585"
       id="circle4237"
       style="opacity:1;fill:#cccccc;fill-opacity:1;stroke:none;stroke-width:1;stroke-linecap:round;stroke-linejoin:bevel;stroke-miterlimit:4;stroke-dasharray:4, 2;stroke-dashoffset:0;stroke-opacity:1" />
    <text
       sodipodi:linespacing="125%"
       id="text4239"
       y="773.63385"
       x="523.12305"
       style="font-style:normal;font-weight:normal;font-size:10.50772095px;line-height:125%;font-family:sans-serif;letter-spacing:0px;word-spacing:0px;fill:#000000;fill-opacity:1;stroke:none;stroke-width:1px;stroke-linecap:butt;stroke-linejoin:miter;stroke-opacity:1"
       xml:space="preserve"><tspan
         y="773.63385"
         x="523.12305"
         id="tspan4241"
         sodipodi:role="line">Building Rest API with Golang</tspan></text>
    <text
       sodipodi:linespacing="125%"
       id="text4243"
       y="756.72021"
       x="521.52423"
       style="font-style:normal;font-weight:normal;font-size:16.50582695px;line-height:125%;font-family:sans-serif;letter-spacing:0px;word-spacing:0px;fill:#000000;fill-opacity:1;stroke:none;stroke-width:1px;stroke-linecap:butt;stroke-linejoin:miter;stroke-opacity:1"
       xml:space="preserve"><tspan
         y="756.72021"
         x="521.52423"
         id="tspan4245"
         sodipodi:role="line">Deni Marswandi</tspan></text>
    <circle
       style="opacity:1;fill:#cccccc;fill-opacity:1;stroke:none;stroke-width:1;stroke-linecap:round;stroke-linejoin:bevel;stroke-miterlimit:4;stroke-dasharray:4, 2;stroke-dashoffset:0;stroke-opacity:1"
       id="circle4247"
       cx="120.71323"
       cy="877.10071"
       r="39.901024" />
    <text
       xml:space="preserve"
       style="font-style:normal;font-weight:normal;font-size:10.50772095px;line-height:125%;font-family:sans-serif;letter-spacing:0px;word-spacing:0px;fill:#000000;fill-opacity:1;stroke:none;stroke-width:1px;stroke-linecap:butt;stroke-linejoin:miter;stroke-opacity:1"
       x="174.62042"
       y="887.78107"
       id="text4249"
       sodipodi:linespacing="125%"><tspan
         sodipodi:role="line"
         id="tspan4251"
         x="174.62042"
         y="887.78107">Building Rest API with Golang</tspan></text>
    <text
       xml:space="preserve"
       style="font-style:normal;font-weight:normal;font-size:16.50582695px;line-height:125%;font-family:sans-serif;letter-spacing:0px;word-spacing:0px;fill:#000000;fill-opacity:1;stroke:none;stroke-width:1px;stroke-linecap:butt;stroke-linejoin:miter;stroke-opacity:1"
       x="173.02161"
       y="870.86743"
       id="text4253"
       sodipodi:linespacing="125%"><tspan
         sodipodi:role="line"
         id="tspan4255"
         x="173.02161"
         y="870.86743">Deni Marswandi</tspan></text>
    <circle
       r="39.901024"
       cy="877.10071"
       cx="467.19556"
       id="circle4257"
       style="opacity:1;fill:#cccccc;fill-opacity:1;stroke:none;stroke-width:1;stroke-linecap:round;stroke-linejoin:bevel;stroke-miterlimit:4;stroke-dasharray:4, 2;stroke-dashoffset:0;stroke-opacity:1" />
    <text
       sodipodi:linespacing="125%"
       id="text4259"
       y="887.78107"
       x="521.10272"
       style="font-style:normal;font-weight:normal;font-size:10.50772095px;line-height:125%;font-family:sans-serif;letter-spacing:0px;word-spacing:0px;fill:#000000;fill-opacity:1;stroke:none;stroke-width:1px;stroke-linecap:butt;stroke-linejoin:miter;stroke-opacity:1"
       xml:space="preserve"><tspan
         y="887.78107"
         x="521.10272"
         id="tspan4261"
         sodipodi:role="line">Building Rest API with Golang</tspan></text>
    <text
       sodipodi:linespacing="125%"
       id="text4263"
       y="870.86743"
       x="519.50391"
       style="font-style:normal;font-weight:normal;font-size:16.50582695px;line-height:125%;font-family:sans-serif;letter-spacing:0px;word-spacing:0px;fill:#000000;fill-opacity:1;stroke:none;stroke-width:1px;stroke-linecap:butt;stroke-linejoin:miter;stroke-opacity:1"
       xml:space="preserve"><tspan
         y="870.86743"
         x="519.50391"
         id="tspan4265"
         sodipodi:role="line">Deni Marswandi</tspan></text>
    <circle
       r="39.901024"
       cy="877.10071"
       cx="120.71323"
       id="circle4267"
       style="opacity:1;fill:#cccccc;fill-opacity:1;stroke:none;stroke-width:1;stroke-linecap:round;stroke-linejoin:bevel;stroke-miterlimit:4;stroke-dasharray:4, 2;stroke-dashoffset:0;stroke-opacity:1" />
    <text
       sodipodi:linespacing="125%"
       id="text4269"
       y="887.78107"
       x="174.62042"
       style="font-style:normal;font-weight:normal;font-size:10.50772095px;line-height:125%;font-family:sans-serif;letter-spacing:0px;word-spacing:0px;fill:#000000;fill-opacity:1;stroke:none;stroke-width:1px;stroke-linecap:butt;stroke-linejoin:miter;stroke-opacity:1"
       xml:space="preserve"><tspan
         y="887.78107"
         x="174.62042"
         id="tspan4271"
         sodipodi:role="line">Building Rest API with Golang</tspan></text>
    <text
       sodipodi:linespacing="125%"
       id="text4273"
       y="870.86743"
       x="173.02161"
       style="font-style:normal;font-weight:normal;font-size:16.50582695px;line-height:125%;font-family:sans-serif;letter-spacing:0px;word-spacing:0px;fill:#000000;fill-opacity:1;stroke:none;stroke-width:1px;stroke-linecap:butt;stroke-linejoin:miter;stroke-opacity:1"
       xml:space="preserve"><tspan
         y="870.86743"
         x="173.02161"
         id="tspan4275"
         sodipodi:role="line">Deni Marswandi</tspan></text>
    <circle
       style="opacity:1;fill:#cccccc;fill-opacity:1;stroke:none;stroke-width:1;stroke-linecap:round;stroke-linejoin:bevel;stroke-miterlimit:4;stroke-dasharray:4, 2;stroke-dashoffset:0;stroke-opacity:1"
       id="circle4277"
       cx="467.19556"
       cy="877.10071"
       r="39.901024" />
    <text
       xml:space="preserve"
       style="font-style:normal;font-weight:normal;font-size:10.50772095px;line-height:125%;font-family:sans-serif;letter-spacing:0px;word-spacing:0px;fill:#000000;fill-opacity:1;stroke:none;stroke-width:1px;stroke-linecap:butt;stroke-linejoin:miter;stroke-opacity:1"
       x="521.10272"
       y="887.78107"
       id="text4279"
       sodipodi:linespacing="125%"><tspan
         sodipodi:role="line"
         id="tspan4281"
         x="521.10272"
         y="887.78107">Building Rest API with Golang</tspan></text>
    <text
       xml:space="preserve"
       style="font-style:normal;font-weight:normal;font-size:16.50582695px;line-height:125%;font-family:sans-serif;letter-spacing:0px;word-spacing:0px;fill:#000000;fill-opacity:1;stroke:none;stroke-width:1px;stroke-linecap:butt;stroke-linejoin:miter;stroke-opacity:1"
       x="519.50391"
       y="870.86743"
       id="text4283"
       sodipodi:linespacing="125%"><tspan
         sodipodi:role="line"
         id="tspan4285"
         x="519.50391"
         y="870.86743">Deni Marswandi</tspan></text>
    <rect
       y="1056.4028"
       x="-0.19396684"
       height="372.74628"
       width="744.48242"
       id="rect4313"
       style="opacity:1;fill:#f2f2f2;fill-opacity:1;stroke:none;stroke-width:1;stroke-linecap:round;stroke-linejoin:bevel;stroke-miterlimit:4;stroke-dasharray:4, 2;stroke-dashoffset:0;stroke-opacity:1" />
    <text
       xml:space="preserve"
       style="font-style:normal;font-weight:normal;font-size:19.12419319px;line-height:125%;font-family:sans-serif;letter-spacing:0px;word-spacing:0px;fill:#000000;fill-opacity:1;stroke:none;stroke-width:1px;stroke-linecap:butt;stroke-linejoin:miter;stroke-opacity:1"
       x="306.35452"
       y="1102.1615"
       id="text4361"
       sodipodi:linespacing="125%"><tspan
         sodipodi:role="line"
         id="tspan4363"
         x="306.35452"
         y="1102.1615">Sponsored by</tspan></text>
    <g
       id="g4882"
       transform="translate(28.4311,0)">
      <text
         sodipodi:linespacing="125%"
         id="text4184"
         y="224.04225"
         x="256.28177"
         style="font-style:normal;font-weight:normal;font-size:14.74515915px;line-height:125%;font-family:sans-serif;letter-spacing:0px;word-spacing:0px;fill:#000000;fill-opacity:1;stroke:none;stroke-width:1px;stroke-linecap:butt;stroke-linejoin:miter;stroke-opacity:1"
         xml:space="preserve"><tspan
           y="224.04225"
           x="256.28177"
           id="tspan4186"
           sodipodi:role="line">Join us on: </tspan></text>
      <g
         transform="matrix(0.55825791,0,0,0.55825791,349.34058,108.29162)"
         id="g4760">
        <g
           id="g4414"
           transform="translate(-20.969542,174.27823)">
          <g
             id="Layer_571">
            <g
               id="g4387">
              <path
                 id="path4389"
                 d="m 48.001,24 c 0,13.254 -10.746,24 -23.998,24 C 10.745,48 -0.001,37.254 -0.001,24 -0.001,10.744 10.745,0 24.003,0 37.255,0 48.001,10.744 48.001,24 Z"
                 style="fill:#3c5b9b"
                 inkscape:connector-curvature="0" />
              <g
                 id="g4391">
                <path
                   id="path4393"
                   d="m 20,39 6,0 c 0,0 0,-8.282 0,-15 l 4.453,0 0.547,-6 -4.768,0 0,-2.399 c 0,-1.169 0.779,-1.441 1.326,-1.441 0.547,0 3.366,0 3.366,0 l 0,-5.141 L 26.289,9 c -5.145,0 -6.314,3.834 -6.314,6.288 l 0,2.712 -2.975,0 0,6 3,0 c 0,6.799 0,15 0,15 z"
                   style="fill:#ffffff"
                   inkscape:connector-curvature="0" />
              </g>
              <path
                 id="path4395"
                 d="m 48.001,24 c 0,13.254 -10.746,24 -23.998,24 C 10.745,48 -0.001,37.254 -0.001,24 -0.001,10.744 10.745,0 24.003,0 37.255,0 48.001,10.744 48.001,24 Z"
                 style="fill:#3c5b9b"
                 inkscape:connector-curvature="0" />
              <g
                 id="g4397">
                <path
                   id="path4399"
                   d="m 20,39 6,0 c 0,0 0,-8.282 0,-15 l 4.453,0 0.547,-6 -4.768,0 0,-2.399 c 0,-1.169 0.779,-1.441 1.326,-1.441 0.547,0 3.366,0 3.366,0 l 0,-5.141 L 26.289,9 c -5.145,0 -6.314,3.834 -6.314,6.288 l 0,2.712 -2.975,0 0,6 3,0 c 0,6.799 0,15 0,15 z"
                   style="fill:#ffffff"
                   inkscape:connector-curvature="0" />
              </g>
              <path
                 id="path4401"
                 d="m 48.001,24 c 0,13.254 -10.746,24 -23.998,24 C 10.745,48 -0.001,37.254 -0.001,24 -0.001,10.744 10.745,0 24.003,0 37.255,0 48.001,10.744 48.001,24 Z"
                 style="fill:#3c5b9b"
                 inkscape:connector-curvature="0" />
              <g
                 id="g4403">
                <path
                   id="path4405"
                   d="m 20,39 6,0 c 0,0 0,-8.282 0,-15 l 4.453,0 0.547,-6 -4.768,0 0,-2.399 c 0,-1.169 0.779,-1.441 1.326,-1.441 0.547,0 3.366,0 3.366,0 l 0,-5.141 L 26.289,9 c -5.145,0 -6.314,3.834 -6.314,6.288 l 0,2.712 -2.975,0 0,6 3,0 c 0,6.799 0,15 0,15 z"
                   style="fill:#ffffff"
                   inkscape:connector-curvature="0" />
              </g>
            </g>
          </g>
          <g
             id="Layer_1" />
        </g>
        <g
           id="g4458"
           transform="translate(39.639607,174.27823)">
          <g
             id="Layer_574">
            <g
               id="g4431">
              <circle
                 id="circle4433"
                 r="24.000999"
                 cy="24"
                 cx="24"
                 style="fill:#2daae1" />
              <g
                 id="g4435">
                <path
                   id="path4437"
                   d="m 38.173,12.442 c -1.189,0.695 -2.508,1.2 -3.91,1.472 C 33.142,12.736 31.542,12 29.771,12 c -3.398,0 -6.154,2.713 -6.154,6.059 0,0.475 0.055,0.936 0.158,1.38 -5.115,-0.253 -9.65,-2.665 -12.686,-6.33 -0.529,0.894 -0.834,1.935 -0.834,3.046 0,2.101 1.089,3.956 2.739,5.042 -1.008,-0.032 -1.958,-0.304 -2.788,-0.757 0,0.025 0,0.051 0,0.076 0,2.935 2.122,5.384 4.938,5.942 -0.517,0.138 -1.06,0.212 -1.623,0.212 -0.396,0 -0.781,-0.038 -1.158,-0.109 0.785,2.406 3.057,4.159 5.75,4.208 -2.107,1.625 -4.76,2.594 -7.645,2.594 -0.498,0 -0.986,-0.029 -1.469,-0.085 2.725,1.719 5.962,2.722 9.436,2.722 11.322,0 17.512,-9.231 17.512,-17.238 0,-0.262 -0.004,-0.525 -0.016,-0.784 1.201,-0.854 2.246,-1.921 3.07,-3.137 -1.103,0.483 -2.289,0.807 -3.535,0.954 1.272,-0.75 2.246,-1.937 2.707,-3.353 z"
                   style="fill:#ffffff"
                   inkscape:connector-curvature="0" />
              </g>
              <circle
                 id="circle4439"
                 r="24.000999"
                 cy="24"
                 cx="24"
                 style="fill:#2daae1" />
              <g
                 id="g4441">
                <path
                   id="path4443"
                   d="m 38.173,12.442 c -1.189,0.695 -2.508,1.2 -3.91,1.472 C 33.142,12.736 31.542,12 29.771,12 c -3.398,0 -6.154,2.713 -6.154,6.059 0,0.475 0.055,0.936 0.158,1.38 -5.115,-0.253 -9.65,-2.665 -12.686,-6.33 -0.529,0.894 -0.834,1.935 -0.834,3.046 0,2.101 1.089,3.956 2.739,5.042 -1.008,-0.032 -1.958,-0.304 -2.788,-0.757 0,0.025 0,0.051 0,0.076 0,2.935 2.122,5.384 4.938,5.942 -0.517,0.138 -1.06,0.212 -1.623,0.212 -0.396,0 -0.781,-0.038 -1.158,-0.109 0.785,2.406 3.057,4.159 5.75,4.208 -2.107,1.625 -4.76,2.594 -7.645,2.594 -0.498,0 -0.986,-0.029 -1.469,-0.085 2.725,1.719 5.962,2.722 9.436,2.722 11.322,0 17.512,-9.231 17.512,-17.238 0,-0.262 -0.004,-0.525 -0.016,-0.784 1.201,-0.854 2.246,-1.921 3.07,-3.137 -1.103,0.483 -2.289,0.807 -3.535,0.954 1.272,-0.75 2.246,-1.937 2.707,-3.353 z"
                   style="fill:#ffffff"
                   inkscape:connector-curvature="0" />
              </g>
              <circle
                 id="circle4445"
                 r="24.000999"
                 cy="24"
                 cx="24"
                 style="fill:#2daae1" />
              <g
                 id="g4447">
                <path
                   id="path4449"
                   d="m 38.173,12.442 c -1.189,0.695 -2.508,1.2 -3.91,1.472 C 33.142,12.736 31.542,12 29.771,12 c -3.398,0 -6.154,2.713 -6.154,6.059 0,0.475 0.055,0.936 0.158,1.38 -5.115,-0.253 -9.65,-2.665 -12.686,-6.33 -0.529,0.894 -0.834,1.935 -0.834,3.046 0,2.101 1.089,3.956 2.739,5.042 -1.008,-0.032 -1.958,-0.304 -2.788,-0.757 0,0.025 0,0.051 0,0.076 0,2.935 2.122,5.384 4.938,5.942 -0.517,0.138 -1.06,0.212 -1.623,0.212 -0.396,0 -0.781,-0.038 -1.158,-0.109 0.785,2.406 3.057,4.159 5.75,4.208 -2.107,1.625 -4.76,2.594 -7.645,2.594 -0.498,0 -0.986,-0.029 -1.469,-0.085 2.725,1.719 5.962,2.722 9.436,2.722 11.322,0 17.512,-9.231 17.512,-17.238 0,-0.262 -0.004,-0.525 -0.016,-0.784 1.201,-0.854 2.246,-1.921 3.07,-3.137 -1.103,0.483 -2.289,0.807 -3.535,0.954 1.272,-0.75 2.246,-1.937 2.707,-3.353 z"
                   style="fill:#ffffff"
                   inkscape:connector-curvature="0" />
              </g>
            </g>
          </g>
          <g
             id="Layer_1-7" />
        </g>
        <g
           id="g4665"
           transform="translate(100.24876,174.27823)">
          <g
             id="g4474" />
          <g
             id="g4476" />
          <g
             id="g4478" />
          <g
             id="g4480" />
          <g
             id="g4482" />
          <g
             id="g4484" />
          <g
             id="g4486" />
          <g
             id="g4488" />
          <g
             id="g4490" />
          <g
             id="g4492" />
          <g
             id="g4494" />
          <g
             id="g4496" />
          <g
             id="g4498" />
          <g
             id="g4500" />
          <g
             id="g4502" />
          <g
             id="g4504" />
          <g
             id="g4506" />
          <g
             id="g4508" />
          <g
             id="g4510" />
          <g
             id="g4512" />
          <g
             id="g4514" />
          <g
             id="g4516" />
          <g
             id="g4518" />
          <g
             id="g4520" />
          <g
             id="g4522" />
          <g
             id="g4524" />
          <g
             id="g4526" />
          <g
             id="g4528" />
          <g
             id="g4530" />
          <g
             id="g4532" />
          <g
             id="g4534" />
          <g
             id="g4536" />
          <g
             id="g4538" />
          <g
             id="g4540" />
          <g
             id="g4542" />
          <g
             id="g4544" />
          <g
             id="g4546" />
          <g
             id="g4548" />
          <g
             id="g4550" />
          <g
             id="g4552" />
          <g
             id="g4554" />
          <g
             id="g4556" />
          <g
             id="g4558" />
          <g
             id="g4560" />
          <g
             id="g4562" />
          <g
             id="g4564" />
          <g
             id="g4566" />
          <g
             id="g4568" />
          <g
             id="g4570" />
          <g
             id="g4572" />
          <g
             id="g4574" />
          <g
             id="g4576" />
          <g
             id="g4578" />
          <g
             id="g4580" />
          <g
             id="g4582" />
          <g
             id="g4584" />
          <g
             id="g4586" />
          <g
             id="g4588" />
          <g
             id="g4590" />
          <g
             id="g4592" />
          <g
             id="g4594" />
          <g
             id="g4596" />
          <g
             id="g4598" />
          <g
             id="g4600" />
          <g
             id="g4602" />
          <g
             id="g4604" />
          <g
             id="g4606" />
          <g
             id="g4608" />
          <g
             id="g4610" />
          <g
             id="g4612" />
          <g
             id="g4614" />
          <g
             id="g4616" />
          <g
             id="g4618" />
          <g
             id="g4620" />
          <g
             id="g4622" />
          <g
             id="g4624" />
          <g
             id="g4626" />
          <g
             id="g4628" />
          <g
             id="g4630" />
          <g
             id="g4632" />
          <g
             id="g4634" />
          <g
             id="g4636" />
          <g
             id="g4638">
            <g
               id="g4640">
              <circle
                 id="circle4642"
                 r="24"
                 cy="24"
                 cx="24"
                 style="fill:#595959" />
              <path
                 d="m 13.365,23.737 c -0.047,0 0.514,1.206 0.529,1.206 1.224,2.22 3.582,3.6 7.56,3.981 -0.568,0.431 -1.25,1.25 -1.345,2.194 -0.714,0.461 -2.15,0.614 -3.265,0.262 -1.564,-0.494 -2.163,-3.588 -4.505,-3.147 -0.507,0.095 -0.406,0.43 0.032,0.714 0.714,0.461 1.386,1.039 1.903,2.269 0.399,0.943 1.235,2.631 3.881,2.631 1.049,0 1.785,-0.127 1.785,-0.127 0,0 0.02,2.41 0.02,3.347 0,1.081 -1.46,1.386 -1.46,1.905 0,0.205 0.484,0.225 0.871,0.225 0.767,0 2.363,-0.64 2.363,-1.763 0,-0.892 0.015,-3.892 0.015,-4.417 0,-1.147 0.615,-1.511 0.615,-1.511 0,0 0.076,6.125 -0.147,6.946 -0.262,0.965 -0.735,0.828 -0.735,1.259 0,0.641 1.921,0.156 2.558,-1.25 0.492,-1.094 0.277,-7.103 0.277,-7.103 l 0.525,-0.011 c 0,0 0.03,2.75 0.011,4.008 -0.018,1.302 -0.107,2.949 0.667,3.725 0.508,0.51 2.156,1.407 2.156,0.588 0,-0.476 -0.903,-0.866 -0.903,-2.153 l 0,-5.925 c 0.721,0 0.613,1.947 0.613,1.947 l 0.052,3.621 c 0,0 -0.159,1.319 1.428,1.87 0.56,0.197 1.756,0.248 1.813,-0.079 0.057,-0.329 -1.442,-0.819 -1.456,-1.841 -0.009,-0.622 0.028,-0.986 0.028,-3.693 0,-2.708 -0.364,-3.708 -1.632,-4.505 3.911,-0.401 6.333,-1.369 7.512,-3.959 0.092,0.002 0.481,-1.21 0.43,-1.21 0.264,-0.978 0.409,-2.135 0.435,-3.504 -0.007,-3.715 -1.785,-5.029 -2.126,-5.645 0.504,-2.813 -0.085,-4.092 -0.357,-4.531 -1.008,-0.358 -3.506,0.922 -4.872,1.823 -2.224,-0.65 -6.928,-0.588 -8.692,0.168 -3.255,-2.329 -4.977,-1.972 -4.977,-1.972 0,0 -1.113,1.993 -0.294,4.91 -1.071,1.364 -1.869,2.329 -1.869,4.887 0.004,1.444 0.174,2.734 0.556,3.86 l 0,0 z"
                 style="fill:#ffffff"
                 id="path9-5_4_"
                 inkscape:connector-curvature="0" />
            </g>
          </g>
          <g
             id="g4645" />
          <g
             id="g4647" />
          <g
             id="g4649" />
          <g
             id="g4651" />
          <g
             id="g4653" />
          <g
             id="g4655" />
          <g
             id="g4657" />
        </g>
      </g>
    </g>
    <g
       id="g5193"
       transform="translate(23.683282,0)">
      <g
         transform="matrix(0.4992484,0,0,0.4992484,87.233834,1165.3314)"
         id="g5027">
        <path
           style="fill:#ea4335"
           inkscape:connector-curvature="0"
           d="m 115.75,47.18 c 0,12.77 -9.99,22.18 -22.25,22.18 C 81.24,69.36 71.25,59.95 71.25,47.18 71.25,34.32 81.24,25 93.5,25 c 12.26,0 22.25,9.32 22.25,22.18 z m -9.74,0 c 0,-7.98 -5.79,-13.44 -12.51,-13.44 -6.72,0 -12.51,5.46 -12.51,13.44 0,7.9 5.79,13.44 12.51,13.44 6.72,0 12.51,-5.55 12.51,-13.44 z"
           id="path5009" />
        <path
           style="fill:#fbbc05"
           inkscape:connector-curvature="0"
           d="m 163.75,47.18 c 0,12.77 -9.99,22.18 -22.25,22.18 -12.26,0 -22.25,-9.41 -22.25,-22.18 0,-12.85 9.99,-22.18 22.25,-22.18 12.26,0 22.25,9.32 22.25,22.18 z m -9.74,0 c 0,-7.98 -5.79,-13.44 -12.51,-13.44 -6.72,0 -12.51,5.46 -12.51,13.44 0,7.9 5.79,13.44 12.51,13.44 6.72,0 12.51,-5.55 12.51,-13.44 z"
           id="path5011" />
        <path
           style="fill:#4285f4"
           inkscape:connector-curvature="0"
           d="m 209.75,26.34 0,39.82 c 0,16.38 -9.66,23.07 -21.08,23.07 -10.75,0 -17.22,-7.19 -19.66,-13.07 l 8.48,-3.53 c 1.51,3.61 5.21,7.87 11.17,7.87 7.31,0 11.84,-4.51 11.84,-13 l 0,-3.19 -0.34,0 c -2.18,2.69 -6.38,5.04 -11.68,5.04 -11.09,0 -21.25,-9.66 -21.25,-22.09 0,-12.52 10.16,-22.26 21.25,-22.26 5.29,0 9.49,2.35 11.68,4.96 l 0.34,0 0,-3.61 9.25,0 z m -8.56,20.92 c 0,-7.81 -5.21,-13.52 -11.84,-13.52 -6.72,0 -12.35,5.71 -12.35,13.52 0,7.73 5.63,13.36 12.35,13.36 6.63,0 11.84,-5.63 11.84,-13.36 z"
           id="path5013" />
        <path
           style="fill:#34a853"
           inkscape:connector-curvature="0"
           d="m 225,3 0,65 -9.5,0 0,-65 9.5,0 z"
           id="path5015" />
        <path
           style="fill:#ea4335"
           inkscape:connector-curvature="0"
           d="m 262.02,54.48 7.56,5.04 c -2.44,3.61 -8.32,9.83 -18.48,9.83 -12.6,0 -22.01,-9.74 -22.01,-22.18 0,-13.19 9.49,-22.18 20.92,-22.18 11.51,0 17.14,9.16 18.98,14.11 L 270,41.62 240.35,53.9 c 2.27,4.45 5.8,6.72 10.75,6.72 4.96,0 8.4,-2.44 10.92,-6.14 z m -23.27,-7.98 19.82,-8.23 c -1.09,-2.77 -4.37,-4.7 -8.23,-4.7 -4.95,0 -11.84,4.37 -11.59,12.93 z"
           id="path5017" />
        <path
           style="fill:#4285f4"
           inkscape:connector-curvature="0"
           d="M 35.29,41.41 35.29,32 67,32 c 0.31,1.64 0.47,3.58 0.47,5.68 0,7.06 -1.93,15.79 -8.15,22.01 -6.05,6.3 -13.78,9.66 -24.02,9.66 C 16.32,69.35 0.36,53.89 0.36,34.91 0.36,15.93 16.32,0.47 35.3,0.47 c 10.5,0 17.98,4.12 23.6,9.49 L 52.26,16.6 C 48.23,12.82 42.77,9.88 35.29,9.88 c -13.86,0 -24.7,11.17 -24.7,25.03 0,13.86 10.84,25.03 24.7,25.03 8.99,0 14.11,-3.61 17.39,-6.89 2.66,-2.66 4.41,-6.46 5.1,-11.65 l -22.49,0.01 z"
           id="path5019" />
      </g>
      <g
         transform="matrix(0.17753056,0,0,0.17753056,285.65608,1036.499)"
         id="layer1-62">
        <path
           inkscape:connector-curvature="0"
           d="m 271.00014,1021.205 -32.63478,0 0,-129.33009 32.63478,0 0,129.33009 z"
           id="path268"
           style="fill:#c4122e;fill-opacity:1;fill-rule:nonzero;stroke:none" />
        <g
           transform="matrix(10.337276,0,0,-10.337276,-861.34511,8446.2018)"
           id="g270">
          <g
             clip-path="url(#clipPath274)"
             id="g272">
            <g
               transform="translate(134.9958,727.2001)"
               id="g278">
              <path
                 inkscape:connector-curvature="0"
                 d="m 0,0 c -0.129,0.066 -1.146,0.668 -2.656,0.668 -2.041,0 -3.457,-1.421 -3.457,-3.337 0,-1.859 1.355,-3.34 3.457,-3.34 1.484,0 2.517,0.589 2.656,0.664 l 0,-3.358 c -0.396,-0.111 -1.475,-0.445 -2.877,-0.445 -3.551,0 -6.668,2.448 -6.668,6.479 0,3.736 2.82,6.476 6.668,6.476 1.48,0 2.578,-0.361 2.877,-0.449 L 0,0 Z"
                 id="path280"
                 style="fill:#c4122e;fill-opacity:1;fill-rule:nonzero;stroke:none" />
            </g>
            <g
               transform="translate(102.0426,727.2001)"
               id="g282">
              <path
                 inkscape:connector-curvature="0"
                 d="m 0,0 c -0.127,0.066 -1.142,0.668 -2.652,0.668 -2.045,0 -3.46,-1.421 -3.46,-3.337 0,-1.859 1.356,-3.34 3.46,-3.34 1.484,0 2.516,0.589 2.652,0.664 l 0,-3.358 c -0.392,-0.111 -1.469,-0.445 -2.879,-0.445 -3.549,0 -6.662,2.448 -6.662,6.479 0,3.736 2.82,6.476 6.662,6.476 1.486,0 2.582,-0.361 2.879,-0.449 L 0,0 Z"
                 id="path284"
                 style="fill:#c4122e;fill-opacity:1;fill-rule:nonzero;stroke:none" />
            </g>
            <g
               transform="translate(144.9274,727.8212)"
               id="g286">
              <path
                 inkscape:connector-curvature="0"
                 d="m 0,0 c -1.873,0 -3.264,-1.474 -3.264,-3.29 0,-1.82 1.391,-3.293 3.264,-3.293 1.871,0 3.266,1.473 3.266,3.293 C 3.266,-1.474 1.871,0 0,0 m 6.611,-3.29 c 0,-3.579 -2.763,-6.479 -6.611,-6.479 -3.848,0 -6.607,2.9 -6.607,6.479 0,3.573 2.759,6.476 6.607,6.476 3.848,0 6.611,-2.903 6.611,-6.476"
                 id="path288"
                 style="fill:#c4122e;fill-opacity:1;fill-rule:nonzero;stroke:none" />
            </g>
            <g
               transform="translate(121.5124,727.9413)"
               id="g290">
              <path
                 inkscape:connector-curvature="0"
                 d="m 0,0 c -0.047,0.015 -1.376,0.382 -2.468,0.382 -1.265,0 -1.953,-0.424 -1.953,-1.025 0,-0.762 0.928,-1.028 1.447,-1.192 l 0.871,-0.277 c 2.049,-0.652 2.983,-2.055 2.983,-3.579 0,-3.143 -2.764,-4.199 -5.18,-4.199 -1.679,0 -3.252,0.309 -3.407,0.342 l 0,2.879 c 0.278,-0.07 1.602,-0.465 2.981,-0.465 1.571,0 2.293,0.459 2.293,1.168 0,0.634 -0.625,1 -1.408,1.246 -0.191,0.064 -0.478,0.154 -0.674,0.218 -1.758,0.556 -3.224,1.589 -3.224,3.66 0,2.34 1.752,3.911 4.662,3.911 1.537,0 2.983,-0.373 3.077,-0.398 L 0,0 Z"
                 id="path292"
                 style="fill:#c4122e;fill-opacity:1;fill-rule:nonzero;stroke:none" />
            </g>
            <g
               transform="translate(89.154,744.2304)"
               id="g294">
              <path
                 inkscape:connector-curvature="0"
                 d="M 0,0 C 0,0.862 -0.704,1.561 -1.567,1.561 -2.43,1.561 -3.135,0.862 -3.135,0 l 0,-3.284 c 0,-0.867 0.705,-1.567 1.568,-1.567 0.863,0 1.567,0.7 1.567,1.567 L 0,0 Z"
                 id="path296"
                 style="fill:#15495d;fill-opacity:1;fill-rule:nonzero;stroke:none" />
            </g>
            <g
               transform="translate(97.7633,748.5409)"
               id="g298">
              <path
                 inkscape:connector-curvature="0"
                 d="M 0,0 C 0,0.862 -0.704,1.563 -1.567,1.563 -2.431,1.563 -3.135,0.862 -3.135,0 l 0,-7.595 c 0,-0.867 0.704,-1.566 1.568,-1.566 0.863,0 1.567,0.699 1.567,1.566 L 0,0 Z"
                 id="path300"
                 style="fill:#15495d;fill-opacity:1;fill-rule:nonzero;stroke:none" />
            </g>
            <g
               transform="translate(106.3727,754.4384)"
               id="g302">
              <path
                 inkscape:connector-curvature="0"
                 d="m 0,0 c 0,0.862 -0.704,1.562 -1.567,1.562 -0.864,0 -1.568,-0.7 -1.568,-1.562 l 0,-16.613 c 0,-0.867 0.704,-1.567 1.568,-1.567 0.863,0 1.567,0.7 1.567,1.567 L 0,0 Z"
                 id="path304"
                 style="fill:#15495d;fill-opacity:1;fill-rule:nonzero;stroke:none" />
            </g>
            <g
               transform="translate(114.9821,748.5409)"
               id="g306">
              <path
                 inkscape:connector-curvature="0"
                 d="M 0,0 C 0,0.862 -0.704,1.563 -1.567,1.563 -2.431,1.563 -3.135,0.862 -3.135,0 l 0,-7.595 c 0,-0.867 0.704,-1.566 1.568,-1.566 0.863,0 1.567,0.699 1.567,1.566 L 0,0 Z"
                 id="path308"
                 style="fill:#15495d;fill-opacity:1;fill-rule:nonzero;stroke:none" />
            </g>
            <g
               transform="translate(123.5817,744.2304)"
               id="g310">
              <path
                 inkscape:connector-curvature="0"
                 d="M 0,0 C 0,0.862 -0.699,1.561 -1.558,1.561 -2.421,1.561 -3.125,0.862 -3.125,0 l 0,-3.284 c 0,-0.867 0.704,-1.567 1.567,-1.567 0.859,0 1.558,0.7 1.558,1.567 L 0,0 Z"
                 id="path312"
                 style="fill:#15495d;fill-opacity:1;fill-rule:nonzero;stroke:none" />
            </g>
            <g
               transform="translate(132.195,748.5409)"
               id="g314">
              <path
                 inkscape:connector-curvature="0"
                 d="M 0,0 C 0,0.862 -0.699,1.563 -1.562,1.563 -2.424,1.563 -3.125,0.862 -3.125,0 l 0,-7.595 c 0,-0.867 0.701,-1.566 1.563,-1.566 0.863,0 1.562,0.699 1.562,1.566 L 0,0 Z"
                 id="path316"
                 style="fill:#15495d;fill-opacity:1;fill-rule:nonzero;stroke:none" />
            </g>
            <g
               transform="translate(140.8102,754.4384)"
               id="g318">
              <path
                 inkscape:connector-curvature="0"
                 d="m 0,0 c 0,0.862 -0.699,1.562 -1.562,1.562 -0.864,0 -1.563,-0.7 -1.563,-1.562 l 0,-16.613 c 0,-0.867 0.699,-1.567 1.563,-1.567 0.863,0 1.562,0.7 1.562,1.567 L 0,0 Z"
                 id="path320"
                 style="fill:#15495d;fill-opacity:1;fill-rule:nonzero;stroke:none" />
            </g>
            <g
               transform="translate(149.4235,748.5409)"
               id="g322">
              <path
                 inkscape:connector-curvature="0"
                 d="M 0,0 C 0,0.862 -0.699,1.563 -1.582,1.563 -2.445,1.563 -3.144,0.862 -3.144,0 l 0,-7.595 c 0,-0.867 0.699,-1.566 1.562,-1.566 0.883,0 1.582,0.699 1.582,1.566 L 0,0 Z"
                 id="path324"
                 style="fill:#15495d;fill-opacity:1;fill-rule:nonzero;stroke:none" />
            </g>
            <g
               transform="translate(158.0192,744.2304)"
               id="g326">
              <path
                 inkscape:connector-curvature="0"
                 d="M 0,0 C 0,0.862 -0.701,1.561 -1.563,1.561 -2.426,1.561 -3.127,0.862 -3.127,0 l 0,-3.284 c 0,-0.867 0.701,-1.567 1.564,-1.567 0.862,0 1.563,0.7 1.563,1.567 L 0,0 Z"
                 id="path328"
                 style="fill:#15495d;fill-opacity:1;fill-rule:nonzero;stroke:none" />
            </g>
            <g
               transform="translate(156.2126,719.9218)"
               id="g330">
              <path
                 inkscape:connector-curvature="0"
                 d="m 0,0 0,-0.196 -0.558,0 0,-1.451 -0.229,0 0,1.451 -0.561,0 0,0.196 L 0,0 Z"
                 id="path332"
                 style="fill:#c4122e;fill-opacity:1;fill-rule:nonzero;stroke:none" />
            </g>
            <g
               transform="translate(156.3297,719.9218)"
               id="g334">
              <path
                 inkscape:connector-curvature="0"
                 d="m 0,0 0.359,0 0.493,-1.351 0.008,0 0.477,1.351 0.352,0 0,-1.647 -0.235,0 0,1.35 -0.008,0 -0.5,-1.35 -0.217,0 -0.488,1.35 -0.011,0 0,-1.35 -0.23,0 L 0,0 Z"
                 id="path336"
                 style="fill:#c4122e;fill-opacity:1;fill-rule:nonzero;stroke:none" />
            </g>
          </g>
        </g>
      </g>
      <g
         transform="translate(504.01436,1166.3625)"
         id="g5187">
        <path
           style="fill:#ffffff"
           inkscape:connector-curvature="0"
           class="st0"
           d="m 98.6,14.2 -5.6,-1.3 -1,-0.4 -25.7,0.2 0,12.4 32.3,0.1 0,-11 z"
           id="path5172" />
        <path
           style="fill:#f48120"
           inkscape:connector-curvature="0"
           class="st1"
           d="m 88.1,24 c 0.3,-1 0.2,-2 -0.3,-2.6 -0.5,-0.6 -1.2,-1 -2.1,-1.1 L 68.3,20.1 C 68.2,20.1 68.1,20 68,20 c -0.1,-0.1 -0.1,-0.2 0,-0.3 0.1,-0.2 0.2,-0.3 0.4,-0.3 L 85.9,19.2 C 88,19.1 90.2,17.4 91,15.4 l 1,-2.6 c 0,-0.1 0.1,-0.2 0,-0.3 -1.1,-5.1 -5.7,-8.9 -11.1,-8.9 -5,0 -9.3,3.2 -10.8,7.7 -1,-0.7 -2.2,-1.1 -3.6,-1 -2.4,0.2 -4.3,2.2 -4.6,4.6 -0.1,0.6 0,1.2 0.1,1.8 -3.9,0.1 -7.1,3.3 -7.1,7.3 0,0.4 0,0.7 0.1,1.1 0,0.2 0.2,0.3 0.3,0.3 l 32.1,0 c 0.2,0 0.4,-0.1 0.4,-0.3 L 88.1,24 Z"
           id="path5174" />
        <path
           style="fill:#faad3f"
           inkscape:connector-curvature="0"
           class="st2"
           d="m 93.6,12.8 -0.5,0 c -0.1,0 -0.2,0.1 -0.3,0.2 l -0.7,2.4 c -0.3,1 -0.2,2 0.3,2.6 0.5,0.6 1.2,1 2.1,1.1 l 3.7,0.2 c 0.1,0 0.2,0.1 0.3,0.1 0.1,0.1 0.1,0.2 0,0.3 -0.1,0.2 -0.2,0.3 -0.4,0.3 l -3.8,0.2 C 92.2,20.3 90,22 89.2,24 L 89,24.9 c -0.1,0.1 0,0.3 0.2,0.3 l 13.2,0 c 0.2,0 0.3,-0.1 0.3,-0.3 0.2,-0.8 0.4,-1.7 0.4,-2.6 0,-5.2 -4.3,-9.5 -9.5,-9.5"
           id="path5176" />
        <path
           style="fill:#404041"
           inkscape:connector-curvature="0"
           class="st3"
           d="m 104.4,30.8 c -0.5,0 -0.9,-0.4 -0.9,-0.9 0,-0.5 0.4,-0.9 0.9,-0.9 0.5,0 0.9,0.4 0.9,0.9 0,0.5 -0.4,0.9 -0.9,0.9 m 0,-1.6 c -0.4,0 -0.7,0.3 -0.7,0.7 0,0.4 0.3,0.7 0.7,0.7 0.4,0 0.7,-0.3 0.7,-0.7 0,-0.4 -0.3,-0.7 -0.7,-0.7 m 0.4,1.2 -0.2,0 -0.2,-0.3 -0.2,0 0,0.3 -0.2,0 0,-0.9 0.5,0 c 0.2,0 0.3,0.1 0.3,0.3 0,0.1 -0.1,0.2 -0.2,0.3 l 0.2,0.3 0,0 z m -0.3,-0.5 c 0.1,0 0.1,0 0.1,-0.1 0,-0.1 -0.1,-0.1 -0.1,-0.1 l -0.3,0 0,0.3 0.3,-0.1 0,0 z M 14.8,29 l 2.2,0 0,6 3.8,0 0,1.9 -6,0 0,-7.9 z m 8.3,3.9 c 0,-2.3 1.8,-4.1 4.3,-4.1 2.5,0 4.2,1.8 4.2,4.1 0,2.3 -1.8,4.1 -4.3,4.1 -2.4,0 -4.2,-1.8 -4.2,-4.1 m 6.3,0 c 0,-1.2 -0.8,-2.2 -2,-2.2 -1.2,0 -2,1 -2,2.1 0,1.1 0.8,2.1 2,2.1 1.2,0.2 2,-0.8 2,-2 m 4.9,0.5 0,-4.4 2.2,0 0,4.4 c 0,1.1 0.6,1.7 1.5,1.7 0.9,0 1.5,-0.5 1.5,-1.6 l 0,-4.5 2.2,0 0,4.4 C 41.7,36 40.2,37.1 38,37.1 35.7,37 34.3,35.9 34.3,33.4 M 45,29 l 3.1,0 c 2.8,0 4.5,1.6 4.5,3.9 0,2.3 -1.7,4 -4.5,4 l -3,0 -0.1,-7.9 0,0 z m 3.1,5.9 c 1.3,0 2.2,-0.7 2.2,-2 0,-1.3 -0.9,-2 -2.2,-2 l -0.9,0 0,4 0.9,0 z m 7.6,-5.9 6.3,0 0,1.9 -4.1,0 0,1.3 3.7,0 0,1.8 -3.7,0 0,2.9 -2.2,0 0,-7.9 z m 9.4,0 2.2,0 0,6 3.8,0 0,1.9 -6,0 0,-7.9 z m 11.7,-0.1 2.2,0 3.4,8 -2.4,0 -0.6,-1.4 -3.1,0 -0.6,1.4 -2.3,0 c 0,0 3.4,-8 3.4,-8 z m 2,4.9 -0.9,-2.2 -0.9,2.2 1.8,0 z m 6.4,-4.8 3.7,0 c 1.2,0 2,0.3 2.6,0.9 0.5,0.5 0.7,1.1 0.7,1.8 0,1.2 -0.6,2 -1.6,2.4 l 1.9,2.8 -2.5,0 -1.6,-2.4 -1,0 0,2.4 -2.2,0 c 0,0 0,-7.9 0,-7.9 z m 3.6,3.8 C 89.5,32.8 90,32.4 90,31.9 90,31.3 89.5,31 88.8,31 l -1.4,0 0,1.9 1.4,0 0,-0.1 z m 6.5,-3.8 6.4,0 0,1.8 -4.2,0 0,1.2 3.8,0 0,1.8 -3.8,0 0,1.2 4.3,0 0,1.9 -6.5,0 0,-7.9 z M 10,33.9 c -0.3,0.7 -1,1.2 -1.8,1.2 -1.2,0 -2,-1 -2,-2.1 0,-1.1 0.8,-2.1 2,-2.1 0.9,0 1.6,0.6 1.9,1.3 l 2.3,0 c -0.4,-1.9 -2,-3.3 -4.2,-3.3 -2.4,0 -4.3,1.8 -4.3,4.1 0,2.3 1.8,4.1 4.2,4.1 2.1,0 3.7,-1.4 4.2,-3.2 l -2.3,0 z"
           id="path5178" />
      </g>
    </g>
    <g
       id="g5242"
       transform="matrix(0.71923109,0,0,0.71923109,111.51797,1275.9179)">
      <path
         id="path5244"
         d="m 56.02,47.007 c -1.174,-0.271 -2.419,-0.441 -3.679,-0.441 -2.154,0 -4.114,0.375 -5.56,0.975 -0.157,0.08 -0.271,0.246 -0.271,0.436 0,0.068 0.018,0.139 0.044,0.197 0.171,0.496 -0.111,1.035 -1.51,1.342 -2.074,0.455 -3.385,2.596 -4.133,3.307 -0.88,0.836 -3.364,1.348 -2.991,0.85 0.292,-0.389 1.412,-1.604 2.092,-2.916 0.608,-1.174 1.15,-1.506 1.897,-2.627 0.218,-0.328 1.066,-1.482 1.313,-2.393 0.279,-0.893 0.185,-2.01 0.292,-2.471 0.15,-0.662 0.779,-2.104 0.824,-2.918 0.028,-0.457 -1.919,0.658 -2.843,0.658 -0.924,0 -1.825,-0.553 -2.65,-0.594 -1.021,-0.049 -1.678,0.789 -2.604,0.643 -0.526,-0.086 -0.972,-0.549 -1.894,-0.584 -1.313,-0.051 -2.919,0.73 -5.934,0.633 -2.966,-0.098 -5.704,-3.746 -6.079,-4.328 -0.438,-0.682 -0.974,-0.682 -1.556,-0.148 -0.584,0.535 -1.303,0.117 -1.508,-0.24 -0.389,-0.682 -1.431,-2.674 -3.04,-3.088 -2.227,-0.578 -3.354,1.23 -3.21,2.672 0.15,1.461 1.095,1.871 1.532,2.65 0.438,0.777 0.663,1.279 1.485,1.625 0.584,0.242 0.802,0.604 0.628,1.084 -0.154,0.416 -0.76,0.51 -1.161,0.531 -0.849,0.041 -1.442,-0.189 -1.876,-0.469 -0.504,-0.32 -0.914,-0.768 -1.355,-1.525 -0.509,-0.838 -1.313,-1.203 -2.246,-1.203 -0.446,0 -0.864,0.119 -1.233,0.311 -1.467,0.76 -3.21,1.213 -5.088,1.213 l -2.117,0 C 0.56,37.132 0,33.858 0,30.452 0,13.634 13.634,0 30.454,0 47.273,0 60.906,13.634 60.906,30.452 60.905,36.556 59.111,42.239 56.02,47.007 l 0,0 z"
         inkscape:connector-curvature="0"
         style="clip-rule:evenodd;fill:#020001;fill-rule:evenodd" />
      <path
         id="path5246"
         d="m 37.159,44.214 c 0.158,0.152 0.428,0.664 0.098,1.318 -0.184,0.344 -0.384,0.588 -0.742,0.873 -0.427,0.344 -1.264,0.738 -2.414,0.012 -0.616,-0.393 -0.653,-0.523 -1.505,-0.414 -0.61,0.08 -0.851,-0.533 -0.633,-1.047 0.22,-0.508 1.118,-0.92 2.238,-0.268 0.503,0.297 1.287,0.922 1.973,0.367 0.287,-0.229 0.456,-0.379 0.851,-0.836 0.02,-0.02 0.044,-0.031 0.072,-0.031 0.024,0 0.047,0.01 0.062,0.026 l 0,0 z"
         inkscape:connector-curvature="0"
         style="clip-rule:evenodd;fill:#020001;fill-rule:evenodd" />
      <path
         id="path5248"
         d="m 47.639,22.349 c -0.301,1.014 -0.729,2.305 -2.632,3.284 -0.278,0.141 -0.383,-0.09 -0.257,-0.31 0.722,-1.223 0.847,-1.53 1.058,-2.013 C 46.1,22.605 46.253,21.602 45.671,19.506 44.527,15.385 42.136,9.877 40.4,8.088 38.723,6.364 35.688,5.879 32.942,6.582 31.93,6.841 29.954,7.87 26.286,7.044 c -6.349,-1.429 -7.287,1.749 -7.652,3.133 -0.364,1.385 -1.24,5.321 -1.24,5.321 -0.291,1.601 -0.673,4.387 9.183,6.266 4.592,0.874 4.825,2.063 5.028,2.914 0.363,1.531 0.946,2.406 1.603,2.844 0.656,0.438 0,0.799 -0.729,0.874 -1.955,0.203 -9.182,-1.87 -13.457,-4.299 -3.499,-2.138 -3.558,-4.063 -2.755,-5.696 -5.285,-0.57 -9.25,0.496 -9.969,2.998 -1.235,4.291 9.438,11.625 21.592,15.303 12.752,3.863 25.869,1.168 27.326,-6.852 0.663,-3.639 -2.405,-6.333 -7.577,-7.501 l 0,0 z"
         inkscape:connector-curvature="0"
         style="clip-rule:evenodd;fill:#e03127;fill-rule:evenodd" />
      <path
         id="path5250"
         d="m 59.774,45.679 0.207,0 0.308,0.51 0.2,0 -0.337,-0.52 c 0.175,-0.018 0.307,-0.111 0.307,-0.32 0,-0.232 -0.139,-0.336 -0.415,-0.336 l -0.447,0 0,1.176 0.177,0 0,-0.51 0,0 z m 0,-0.151 0,-0.365 0.245,0 c 0.124,0 0.254,0.027 0.254,0.172 0,0.182 -0.134,0.193 -0.286,0.193 l -0.213,0 0,0 z"
         inkscape:connector-curvature="0"
         style="clip-rule:evenodd;fill:#020001;fill-rule:evenodd" />
      <path
         id="path5252"
         d="m 61.137,45.603 c 0,0.635 -0.515,1.15 -1.153,1.15 -0.636,0 -1.152,-0.516 -1.152,-1.15 0,-0.639 0.516,-1.152 1.152,-1.152 0.639,-10e-4 1.153,0.513 1.153,1.152 l 0,0 z m -1.153,-0.948 c -0.521,0 -0.947,0.422 -0.947,0.947 0,0.525 0.425,0.945 0.947,0.945 0.521,0 0.95,-0.42 0.95,-0.945 0,-0.525 -0.429,-0.947 -0.95,-0.947 l 0,0 z"
         inkscape:connector-curvature="0"
         style="clip-rule:evenodd;fill:#020001;fill-rule:evenodd" />
      <path
         id="path5254"
         d="m 28.083,14.5 c -3.517,0.255 -3.883,0.635 -4.542,1.337 -0.929,0.99 -2.152,-1.284 -2.152,-1.284 -0.736,-0.155 -1.625,-1.339 -1.146,-2.444 0.474,-1.093 1.348,-0.766 1.622,-0.428 0.333,0.415 1.043,1.093 1.967,1.069 0.922,-0.022 1.989,-0.217 3.475,-0.217 1.504,0 2.518,0.563 2.575,1.043 0.049,0.413 -0.122,0.802 -1.799,0.924 l 0,0 z"
         inkscape:connector-curvature="0"
         style="clip-rule:evenodd;fill:#020001;fill-rule:evenodd" />
      <path
         id="path5256"
         d="m 31.779,8.688 c -0.005,0 -0.01,0 -0.015,0 -0.055,0 -0.099,-0.041 -0.099,-0.092 0,-0.037 0.023,-0.068 0.056,-0.083 0.681,-0.36 1.699,-0.648 2.862,-0.767 0.35,-0.035 0.691,-0.054 1.021,-0.058 0.058,0 0.115,0 0.174,0.002 1.951,0.044 3.515,0.821 3.492,1.733 -0.024,0.912 -1.623,1.617 -3.577,1.574 -0.631,-0.016 -1.225,-0.106 -1.734,-0.255 -0.062,-0.015 -0.106,-0.065 -0.106,-0.125 0,-0.062 0.044,-0.114 0.106,-0.129 1.219,-0.281 2.04,-0.742 1.981,-1.179 -0.076,-0.577 -1.669,-0.889 -3.557,-0.7 -0.208,0.022 -0.409,0.05 -0.604,0.079 l 0,0 z"
         inkscape:connector-curvature="0"
         style="clip-rule:evenodd;fill:#020001;fill-rule:evenodd" />
      <path
         id="path5258"
         d="m 76.897,33.593 c 0,-2.734 -0.058,-4.748 -0.168,-6.564 l 4.472,0 0.193,3.878 0.144,0 c 1.005,-2.875 3.389,-4.342 5.593,-4.342 0.503,0 0.797,0.019 1.21,0.111 l 0,4.863 c -0.484,-0.092 -0.935,-0.145 -1.557,-0.145 -2.461,0 -4.168,1.566 -4.629,3.906 -0.088,0.457 -0.135,1.002 -0.135,1.559 l 0,10.592 -5.167,0 0.044,-13.858 0,0 z"
         inkscape:connector-curvature="0"
         style="clip-rule:evenodd;fill:#020001;fill-rule:evenodd" />
      <path
         id="path5260"
         d="m 94.575,38.632 c 0.138,3.697 3.001,5.318 6.31,5.318 2.373,0 4.072,-0.371 5.634,-0.947 l 0.766,3.557 c -1.748,0.738 -4.173,1.295 -7.139,1.295 -6.63,0 -10.516,-4.096 -10.516,-10.355 0,-5.639 3.419,-10.971 9.988,-10.971 6.643,0 8.804,5.461 8.804,9.934 0,0.959 -0.083,1.73 -0.185,2.205 l -13.662,-0.036 0,0 z m 8.983,-3.6 c 0.022,-1.893 -0.802,-4.979 -4.261,-4.979 -3.179,0 -4.5,2.887 -4.731,4.979 l 8.992,0 0,0 z"
         inkscape:connector-curvature="0"
         style="clip-rule:evenodd;fill:#020001;fill-rule:evenodd" />
      <path
         id="path5262"
         d="m 168.765,42.669 c 0,1.592 0.062,3.242 0.293,4.783 l -1.836,0 -0.292,-2.885 -0.095,0 c -0.977,1.553 -3.22,3.346 -6.421,3.346 -4.051,0 -5.937,-2.854 -5.937,-5.537 0,-4.646 4.102,-7.449 12.294,-7.365 l 0,-0.535 c 0,-1.99 -0.388,-5.967 -5.151,-5.934 -1.761,0 -3.598,0.471 -5.054,1.5 l -0.635,-1.449 c 1.84,-1.247 4.086,-1.74 5.907,-1.74 5.812,0 6.926,4.361 6.926,7.959 l 0,7.857 10e-4,0 z m -1.993,-5.981 c -4.385,-0.127 -10.177,0.539 -10.177,5.375 0,2.893 1.91,4.193 4.009,4.193 3.357,0 5.264,-2.078 5.957,-4.037 0.148,-0.432 0.211,-0.863 0.211,-1.207 l 0,-4.324 0,0 z"
         inkscape:connector-curvature="0"
         style="clip-rule:evenodd;fill:#020001;fill-rule:evenodd" />
      <path
         id="path5264"
         d="m 176.974,22.875 0,4.438 5.739,0 0,1.615 -5.739,0 0,13.09 c 0,2.561 0.797,4.164 2.959,4.164 1.038,0 1.771,-0.135 2.286,-0.314 l 0.243,1.541 c -0.652,0.275 -1.565,0.484 -2.78,0.484 -1.471,0 -2.687,-0.461 -3.475,-1.428 -0.912,-1.059 -1.226,-2.746 -1.226,-4.803 l 0,-12.733 -3.396,0 0,-1.615 3.396,0 0,-3.703 1.993,-0.736 0,0 z"
         inkscape:connector-curvature="0"
         style="clip-rule:evenodd;fill:#020001;fill-rule:evenodd" />
      <path
         id="path5266"
         d="m 144.173,26.853 c -1.531,0 -2.904,0.442 -4.057,1.154 -1.197,0.701 -2.173,1.783 -2.751,2.904 l -0.082,0 0,-9.965 -1.992,-0.542 0,27.048 1.992,0 0,-12.314 c 0,-0.818 0.062,-1.385 0.272,-1.984 0.859,-2.504 3.219,-4.561 6.073,-4.561 4.121,0 5.55,3.307 5.55,6.932 l 0,11.928 1.991,0 0,-12.145 c 10e-4,-7.503 -5.086,-8.455 -6.996,-8.455 l 0,0 z"
         inkscape:connector-curvature="0"
         style="clip-rule:evenodd;fill:#020001;fill-rule:evenodd" />
      <path
         id="path5268"
         d="m 130.672,19.153 -5.163,-1.399 0,11.474 -0.084,0 c -0.913,-1.508 -2.928,-2.662 -5.725,-2.662 -4.911,0 -9.188,4.064 -9.156,10.908 0,6.279 3.862,10.439 8.739,10.439 2.947,0 5.413,-1.406 6.632,-3.695 l 0.094,0 0.231,3.234 4.601,0 c -0.094,-1.389 -0.169,-3.637 -0.169,-5.729 l 0,-22.57 0,0 z m -5.163,19.442 c 0,0.543 -0.038,1.047 -0.156,1.508 -0.521,2.236 -2.348,3.676 -4.458,3.676 -3.253,0 -5.113,-2.742 -5.113,-6.494 0,-3.789 1.844,-6.721 5.17,-6.721 2.323,0 3.984,1.637 4.441,3.625 0.088,0.418 0.116,0.936 0.116,1.348 l 0,3.058 0,0 z"
         inkscape:connector-curvature="0"
         style="clip-rule:evenodd;fill:#020001;fill-rule:evenodd" />
      <path
         id="path5270"
         d="m 185.453,46.554 0.247,0 0.372,0.613 0.238,0 -0.399,-0.623 c 0.207,-0.027 0.365,-0.133 0.365,-0.387 0,-0.279 -0.166,-0.4 -0.5,-0.4 l -0.534,0 0,1.41 0.211,0 0,-0.613 0,0 z m 0,-0.18 0,-0.436 0.292,0 c 0.148,0 0.309,0.031 0.309,0.205 0,0.217 -0.161,0.23 -0.343,0.23 l -0.258,0 0,0.001 z"
         inkscape:connector-curvature="0"
         style="clip-rule:evenodd;fill:#020001;fill-rule:evenodd" />
      <path
         id="path5272"
         d="m 187.086,46.464 c 0,0.762 -0.616,1.381 -1.379,1.381 -0.763,0 -1.381,-0.619 -1.381,-1.381 0,-0.764 0.618,-1.383 1.381,-1.383 0.763,0 1.379,0.619 1.379,1.383 l 0,0 z m -1.378,-1.137 c -0.629,0 -1.138,0.508 -1.138,1.137 0,0.627 0.509,1.137 1.138,1.137 0.626,0 1.133,-0.51 1.133,-1.137 -0.001,-0.629 -0.508,-1.137 -1.133,-1.137 l 0,0 z"
         inkscape:connector-curvature="0"
         style="clip-rule:evenodd;fill:#020001;fill-rule:evenodd" />
    </g>
    <g
       id="g12"
       transform="matrix(0.98783846,0,0,-0.98783846,59.735226,1683.8468)">
      <g
         id="g16">
        <g
           id="g18"
           clip-path="url(#clipPath20)">
          <g
             id="g104"
             transform="translate(280.6885,392.415)">
            <path
               inkscape:connector-curvature="0"
               style="fill:#000000;fill-opacity:1;fill-rule:nonzero;stroke:none"
               id="path106"
               d="M 0,0 C 0,0.444 0.133,0.797 0.401,1.059 0.669,1.318 0.993,1.45 1.375,1.45 1.764,1.45 2.096,1.322 2.368,1.067 2.642,0.809 2.779,0.455 2.779,0 l 0,-1.441 0.063,0 c 0.421,0.736 0.973,1.401 1.66,1.996 0.687,0.593 1.407,0.907 2.159,0.938 0.422,0 0.794,-0.14 1.12,-0.416 C 8.106,0.8 8.271,0.457 8.271,0.045 8.271,-0.437 8.104,-0.79 7.77,-1.017 7.436,-1.244 6.95,-1.439 6.313,-1.604 5.677,-1.77 5.264,-1.902 5.075,-2.007 3.544,-2.837 2.779,-4.258 2.779,-6.269 l 0,-8.276 c 0,-0.459 -0.129,-0.815 -0.387,-1.067 -0.258,-0.253 -0.577,-0.379 -0.956,-0.379 -0.401,0 -0.741,0.132 -1.019,0.397 C 0.138,-15.327 0,-14.954 0,-14.479 L 0,0 Z" />
          </g>
          <g
             id="g108"
             transform="translate(280.6885,392.415)">
            <path
               inkscape:connector-curvature="0"
               style="fill:none;stroke:#000000;stroke-width:0.75670266;stroke-linecap:butt;stroke-linejoin:miter;stroke-miterlimit:4;stroke-dasharray:none;stroke-opacity:1"
               id="path110"
               d="M 0,0 C 0,0.444 0.133,0.797 0.401,1.059 0.669,1.318 0.993,1.45 1.375,1.45 1.764,1.45 2.096,1.322 2.368,1.067 2.642,0.809 2.779,0.455 2.779,0 l 0,-1.441 0.063,0 c 0.421,0.736 0.973,1.401 1.66,1.996 0.687,0.593 1.407,0.907 2.159,0.938 0.422,0 0.794,-0.14 1.12,-0.416 C 8.106,0.8 8.271,0.457 8.271,0.045 8.271,-0.437 8.104,-0.79 7.77,-1.017 7.436,-1.244 6.95,-1.439 6.313,-1.604 5.677,-1.77 5.264,-1.902 5.075,-2.007 3.544,-2.837 2.779,-4.258 2.779,-6.269 l 0,-8.276 c 0,-0.459 -0.129,-0.815 -0.387,-1.067 -0.258,-0.253 -0.577,-0.379 -0.956,-0.379 -0.401,0 -0.741,0.132 -1.019,0.397 C 0.138,-15.327 0,-14.954 0,-14.479 L 0,0 Z" />
          </g>
          <g
             id="g112"
             transform="translate(292.5103,386.2129)">
            <path
               inkscape:connector-curvature="0"
               style="fill:#000000;fill-opacity:1;fill-rule:nonzero;stroke:none"
               id="path114"
               d="M 0,0 9.404,0 C 9.374,1.569 8.956,2.826 8.151,3.781 7.346,4.734 6.244,5.228 4.843,5.259 3.417,5.259 2.27,4.796 1.399,3.876 0.529,2.954 0.063,1.661 0,0 m -2.845,-0.894 c 0.063,1.46 0.399,2.843 1.005,4.155 0.607,1.308 1.472,2.368 2.596,3.183 1.123,0.814 2.444,1.23 3.962,1.251 1.473,0 2.782,-0.397 3.927,-1.192 1.143,-0.795 2.026,-1.847 2.648,-3.157 0.623,-1.312 0.934,-2.68 0.934,-4.11 0,-0.916 -0.523,-1.375 -1.569,-1.375 L 0,-2.139 c 0.021,-1.136 0.263,-2.097 0.729,-2.879 0.465,-0.782 1.087,-1.366 1.869,-1.754 0.781,-0.387 1.646,-0.58 2.598,-0.58 1.667,0 3.199,0.589 4.593,1.769 0.48,0.347 0.833,0.519 1.058,0.519 0.314,0 0.557,-0.117 0.733,-0.35 0.175,-0.233 0.262,-0.516 0.262,-0.846 0,-0.357 -0.138,-0.7 -0.414,-1.029 -0.629,-0.667 -1.52,-1.25 -2.673,-1.75 -1.153,-0.5 -2.394,-0.75 -3.722,-0.75 -1.392,0 -2.602,0.261 -3.629,0.787 -1.028,0.523 -1.855,1.222 -2.483,2.088 -0.629,0.867 -1.086,1.805 -1.374,2.812 -0.287,1.004 -0.439,2.022 -0.454,3.051 0.027,0.052 0.043,0.091 0.051,0.113 0.007,0.025 0.011,0.038 0.011,0.044" />
          </g>
          <g
             id="g116"
             transform="translate(292.5103,386.2129)">
            <path
               inkscape:connector-curvature="0"
               style="fill:none;stroke:#000000;stroke-width:0.75670266;stroke-linecap:butt;stroke-linejoin:miter;stroke-miterlimit:4;stroke-dasharray:none;stroke-opacity:1"
               id="path118"
               d="M 0,0 9.404,0 C 9.374,1.569 8.956,2.826 8.151,3.781 7.346,4.734 6.244,5.228 4.843,5.259 3.417,5.259 2.27,4.796 1.399,3.876 0.529,2.954 0.063,1.661 0,0 Z m -2.845,-0.894 c 0.063,1.46 0.399,2.843 1.005,4.155 0.607,1.308 1.472,2.368 2.596,3.183 1.123,0.814 2.444,1.23 3.962,1.251 1.473,0 2.782,-0.397 3.927,-1.192 1.143,-0.795 2.026,-1.847 2.648,-3.157 0.623,-1.312 0.934,-2.68 0.934,-4.11 0,-0.916 -0.523,-1.375 -1.569,-1.375 L 0,-2.139 c 0.021,-1.136 0.263,-2.097 0.729,-2.879 0.465,-0.782 1.087,-1.366 1.869,-1.754 0.781,-0.387 1.646,-0.58 2.598,-0.58 1.667,0 3.199,0.589 4.593,1.769 0.48,0.347 0.833,0.519 1.058,0.519 0.314,0 0.557,-0.117 0.733,-0.35 0.175,-0.233 0.262,-0.516 0.262,-0.846 0,-0.357 -0.138,-0.7 -0.414,-1.029 -0.629,-0.667 -1.52,-1.25 -2.673,-1.75 -1.153,-0.5 -2.394,-0.75 -3.722,-0.75 -1.392,0 -2.602,0.261 -3.629,0.787 -1.028,0.523 -1.855,1.222 -2.483,2.088 -0.629,0.867 -1.086,1.805 -1.374,2.812 -0.287,1.004 -0.439,2.022 -0.454,3.051 0.027,0.052 0.043,0.091 0.051,0.113 0.007,0.025 0.011,0.038 0.011,0.044 z" />
          </g>
          <g
             id="g120"
             transform="translate(309.4863,385.2158)">
            <path
               inkscape:connector-curvature="0"
               style="fill:#000000;fill-opacity:1;fill-rule:nonzero;stroke:none"
               id="path122"
               d="m 0,0 c 0,-1.734 0.374,-3.213 1.124,-4.436 0.747,-1.222 1.865,-1.863 3.348,-1.918 1.182,0 2.139,0.305 2.876,0.92 0.73,0.613 1.255,1.393 1.567,2.338 0.316,0.946 0.484,1.956 0.513,3.033 0,1.239 -0.2,2.34 -0.603,3.304 C 8.425,4.204 7.866,4.949 7.153,5.472 6.438,5.994 5.631,6.256 4.729,6.256 3.665,6.256 2.783,5.941 2.078,5.32 1.374,4.695 0.857,3.909 0.529,2.963 0.203,2.018 0.027,1.029 0,0 m 9.107,6.389 0,8.415 c 0,0.44 0.137,0.784 0.41,1.035 0.274,0.252 0.598,0.377 0.968,0.377 0.413,0 0.755,-0.125 1.031,-0.376 0.274,-0.251 0.412,-0.616 0.412,-1.096 l 0,-22.088 c 0,-0.455 -0.142,-0.808 -0.424,-1.065 -0.281,-0.256 -0.622,-0.383 -1.019,-0.383 -0.353,0 -0.673,0.127 -0.956,0.382 -0.281,0.255 -0.422,0.589 -0.422,0.999 l 0,0.922 -0.065,0 C 8.739,-7.104 8.244,-7.631 7.554,-8.075 6.865,-8.518 5.934,-8.756 4.761,-8.792 c -1.505,0 -2.828,0.367 -3.963,1.104 -1.137,0.735 -2.017,1.76 -2.645,3.077 -0.624,1.314 -0.948,2.806 -0.974,4.478 0,1.196 0.174,2.333 0.524,3.413 0.351,1.082 0.846,2.025 1.484,2.833 0.638,0.805 1.404,1.437 2.295,1.893 0.892,0.457 1.87,0.686 2.933,0.686 1.917,0 3.462,-0.768 4.627,-2.303 l 0.065,0 z" />
          </g>
          <g
             id="g124"
             transform="translate(309.4863,385.2158)">
            <path
               inkscape:connector-curvature="0"
               style="fill:none;stroke:#000000;stroke-width:0.75670266;stroke-linecap:butt;stroke-linejoin:miter;stroke-miterlimit:4;stroke-dasharray:none;stroke-opacity:1"
               id="path126"
               d="m 0,0 c 0,-1.734 0.374,-3.213 1.124,-4.436 0.747,-1.222 1.865,-1.863 3.348,-1.918 1.182,0 2.139,0.305 2.876,0.92 0.73,0.613 1.255,1.393 1.567,2.338 0.316,0.946 0.484,1.956 0.513,3.033 0,1.239 -0.2,2.34 -0.603,3.304 C 8.425,4.204 7.866,4.949 7.153,5.472 6.438,5.994 5.631,6.256 4.729,6.256 3.665,6.256 2.783,5.941 2.078,5.32 1.374,4.695 0.857,3.909 0.529,2.963 0.203,2.018 0.027,1.029 0,0 Z m 9.107,6.389 0,8.415 c 0,0.44 0.137,0.784 0.41,1.035 0.274,0.252 0.598,0.377 0.968,0.377 0.413,0 0.755,-0.125 1.031,-0.376 0.274,-0.251 0.412,-0.616 0.412,-1.096 l 0,-22.088 c 0,-0.455 -0.142,-0.808 -0.424,-1.065 -0.281,-0.256 -0.622,-0.383 -1.019,-0.383 -0.353,0 -0.673,0.127 -0.956,0.382 -0.281,0.255 -0.422,0.589 -0.422,0.999 l 0,0.922 -0.065,0 C 8.739,-7.104 8.244,-7.631 7.554,-8.075 6.865,-8.518 5.934,-8.756 4.761,-8.792 c -1.505,0 -2.828,0.367 -3.963,1.104 -1.137,0.735 -2.017,1.76 -2.645,3.077 -0.624,1.314 -0.948,2.806 -0.974,4.478 0,1.196 0.174,2.333 0.524,3.413 0.351,1.082 0.846,2.025 1.484,2.833 0.638,0.805 1.404,1.437 2.295,1.893 0.892,0.457 1.87,0.686 2.933,0.686 1.917,0 3.462,-0.768 4.627,-2.303 l 0.065,0 z" />
          </g>
          <g
             id="g128"
             transform="translate(327.3467,385.2158)">
            <path
               inkscape:connector-curvature="0"
               style="fill:#000000;fill-opacity:1;fill-rule:nonzero;stroke:none"
               id="path130"
               d="m 0,0 c 0,-1.734 0.373,-3.213 1.123,-4.436 0.749,-1.222 1.865,-1.863 3.349,-1.918 1.182,0 2.141,0.305 2.872,0.92 0.735,0.613 1.258,1.393 1.571,2.338 0.314,0.946 0.485,1.956 0.512,3.033 0,1.239 -0.2,2.34 -0.601,3.304 C 8.426,4.204 7.867,4.949 7.153,5.472 6.438,5.994 5.63,6.256 4.729,6.256 3.665,6.256 2.781,5.941 2.077,5.32 1.372,4.695 0.858,3.909 0.53,2.963 0.202,2.018 0.026,1.029 0,0 m 9.104,6.389 0,8.415 c 0,0.44 0.138,0.784 0.414,1.035 0.274,0.252 0.595,0.377 0.966,0.377 0.412,0 0.758,-0.125 1.031,-0.376 0.275,-0.251 0.411,-0.616 0.411,-1.096 l 0,-22.088 c 0,-0.455 -0.141,-0.808 -0.422,-1.065 -0.282,-0.256 -0.624,-0.383 -1.02,-0.383 -0.354,0 -0.673,0.127 -0.955,0.382 -0.282,0.255 -0.425,0.589 -0.425,0.999 l 0,0.922 -0.062,0 C 8.738,-7.104 8.243,-7.631 7.554,-8.075 6.866,-8.518 5.935,-8.756 4.761,-8.792 c -1.506,0 -2.827,0.367 -3.964,1.104 -1.138,0.735 -2.018,1.76 -2.643,3.077 -0.624,1.314 -0.95,2.806 -0.975,4.478 0,1.196 0.175,2.333 0.525,3.413 0.351,1.082 0.844,2.025 1.482,2.833 0.639,0.805 1.404,1.437 2.295,1.893 0.892,0.457 1.87,0.686 2.932,0.686 1.918,0 3.462,-0.768 4.629,-2.303 l 0.062,0 z" />
          </g>
          <g
             id="g132"
             transform="translate(327.3467,385.2158)">
            <path
               inkscape:connector-curvature="0"
               style="fill:none;stroke:#000000;stroke-width:0.75670266;stroke-linecap:butt;stroke-linejoin:miter;stroke-miterlimit:4;stroke-dasharray:none;stroke-opacity:1"
               id="path134"
               d="m 0,0 c 0,-1.734 0.373,-3.213 1.123,-4.436 0.749,-1.222 1.865,-1.863 3.349,-1.918 1.182,0 2.141,0.305 2.872,0.92 0.735,0.613 1.258,1.393 1.571,2.338 0.314,0.946 0.485,1.956 0.512,3.033 0,1.239 -0.2,2.34 -0.601,3.304 C 8.426,4.204 7.867,4.949 7.153,5.472 6.438,5.994 5.63,6.256 4.729,6.256 3.665,6.256 2.781,5.941 2.077,5.32 1.372,4.695 0.858,3.909 0.53,2.963 0.202,2.018 0.026,1.029 0,0 Z m 9.104,6.389 0,8.415 c 0,0.44 0.138,0.784 0.414,1.035 0.274,0.252 0.595,0.377 0.966,0.377 0.412,0 0.758,-0.125 1.031,-0.376 0.275,-0.251 0.411,-0.616 0.411,-1.096 l 0,-22.088 c 0,-0.455 -0.141,-0.808 -0.422,-1.065 -0.282,-0.256 -0.624,-0.383 -1.02,-0.383 -0.354,0 -0.673,0.127 -0.955,0.382 -0.282,0.255 -0.425,0.589 -0.425,0.999 l 0,0.922 -0.062,0 C 8.738,-7.104 8.243,-7.631 7.554,-8.075 6.866,-8.518 5.935,-8.756 4.761,-8.792 c -1.506,0 -2.827,0.367 -3.964,1.104 -1.138,0.735 -2.018,1.76 -2.643,3.077 -0.624,1.314 -0.95,2.806 -0.975,4.478 0,1.196 0.175,2.333 0.525,3.413 0.351,1.082 0.844,2.025 1.482,2.833 0.639,0.805 1.404,1.437 2.295,1.893 0.892,0.457 1.87,0.686 2.932,0.686 1.918,0 3.462,-0.768 4.629,-2.303 l 0.062,0 z" />
          </g>
          <g
             id="g136"
             transform="translate(351.7471,391.2998)">
            <path
               inkscape:connector-curvature="0"
               style="fill:#000000;fill-opacity:1;fill-rule:nonzero;stroke:none"
               id="path138"
               d="m 0,0 -1.245,0 c -0.4,0 -0.721,0.114 -0.963,0.341 -0.24,0.227 -0.379,0.509 -0.421,0.843 0.083,0.836 0.545,1.254 1.384,1.254 l 1.245,0 0,3.814 c 0,0.416 0.134,0.74 0.4,0.97 0.267,0.228 0.591,0.343 0.978,0.343 0.41,0 0.755,-0.116 1.031,-0.348 C 2.684,6.984 2.824,6.64 2.824,6.182 l 0,-3.744 1.243,0 C 4.496,2.438 4.822,2.322 5.046,2.093 5.271,1.863 5.384,1.562 5.384,1.184 5.384,0.864 5.271,0.588 5.055,0.354 4.834,0.119 4.551,0 4.201,0 l -1.377,0 0,-13.488 c 0,-0.429 -0.149,-0.768 -0.443,-1.017 -0.293,-0.248 -0.651,-0.371 -1.065,-0.371 -0.37,0 -0.685,0.123 -0.935,0.371 C 0.129,-14.256 0,-13.896 0,-13.427 L 0,0 Z" />
          </g>
          <g
             id="g140"
             transform="translate(351.7471,391.2998)">
            <path
               inkscape:connector-curvature="0"
               style="fill:none;stroke:#000000;stroke-width:0.75670266;stroke-linecap:butt;stroke-linejoin:miter;stroke-miterlimit:4;stroke-dasharray:none;stroke-opacity:1"
               id="path142"
               d="m 0,0 -1.245,0 c -0.4,0 -0.721,0.114 -0.963,0.341 -0.24,0.227 -0.379,0.509 -0.421,0.843 0.083,0.836 0.545,1.254 1.384,1.254 l 1.245,0 0,3.814 c 0,0.416 0.134,0.74 0.4,0.97 0.267,0.228 0.591,0.343 0.978,0.343 0.41,0 0.755,-0.116 1.031,-0.348 C 2.684,6.984 2.824,6.64 2.824,6.182 l 0,-3.744 1.243,0 C 4.496,2.438 4.822,2.322 5.046,2.093 5.271,1.863 5.384,1.562 5.384,1.184 5.384,0.864 5.271,0.588 5.055,0.354 4.834,0.119 4.551,0 4.201,0 l -1.377,0 0,-13.488 c 0,-0.429 -0.149,-0.768 -0.443,-1.017 -0.293,-0.248 -0.651,-0.371 -1.065,-0.371 -0.37,0 -0.685,0.123 -0.935,0.371 C 0.129,-14.256 0,-13.896 0,-13.427 L 0,0 Z" />
          </g>
          <g
             id="g144"
             transform="translate(346.8604,398.5088)">
            <path
               inkscape:connector-curvature="0"
               style="fill:#ffffff;fill-opacity:1;fill-rule:nonzero;stroke:none"
               id="path146"
               d="m 0,0 c 0,-1.275 -1.034,-2.309 -2.309,-2.309 -1.275,0 -2.308,1.034 -2.308,2.309 0,1.275 1.033,2.309 2.308,2.309 C -1.034,2.309 0,1.275 0,0" />
          </g>
          <g
             id="g148"
             transform="translate(346.8604,398.5088)">
            <path
               inkscape:connector-curvature="0"
               style="fill:none;stroke:#000000;stroke-width:2.02462244;stroke-linecap:butt;stroke-linejoin:miter;stroke-miterlimit:4;stroke-dasharray:none;stroke-opacity:1"
               id="path150"
               d="m 0,0 c 0,-1.275 -1.034,-2.309 -2.309,-2.309 -1.275,0 -2.308,1.034 -2.308,2.309 0,1.275 1.033,2.309 2.308,2.309 C -1.034,2.309 0,1.275 0,0 Z" />
          </g>
          <g
             id="g152"
             transform="translate(344.5557,392.5674)">
            <path
               inkscape:connector-curvature="0"
               style="fill:none;stroke:#000000;stroke-width:4.25170708;stroke-linecap:round;stroke-linejoin:miter;stroke-miterlimit:4;stroke-dasharray:none;stroke-opacity:1"
               id="path154"
               d="M 0,0 0,-14.792" />
          </g>
        </g>
      </g>
    </g>
    <g
       id="g5402"
       transform="matrix(0.32335386,0,0,0.32335386,490.59811,1255.0133)">
      <g
         id="g5365">
        <g
           id="g5367">
          <path
             id="path5369"
             d="m 141.8,87.1 c -1.9,-5.7 -8,-8.8 -13.7,-7 -5.7,1.9 -8.8,8 -7,13.7 l 28.1,86.4 c 1.9,5.3 7.7,8.3 13.2,6.7 5.8,-1.7 9.3,-7.8 7.4,-13.4 0,-0.2 -28,-86.4 -28,-86.4 z"
             class="st0"
             inkscape:connector-curvature="0"
             style="fill:#ecb32d" />
          <path
             id="path5371"
             d="m 98.3,101.2 c -1.9,-5.7 -8,-8.8 -13.7,-7 -5.7,1.9 -8.8,8 -7,13.7 l 28.1,86.4 c 1.9,5.3 7.7,8.3 13.2,6.7 5.8,-1.7 9.3,-7.8 7.4,-13.4 0,-0.2 -28,-86.4 -28,-86.4 z"
             class="st1"
             inkscape:connector-curvature="0"
             style="fill:#63c1a0" />
          <path
             id="path5373"
             d="m 177.2,158.6 c 5.7,-1.9 8.8,-8 7,-13.7 -1.9,-5.7 -8,-8.8 -13.7,-7 L 84,166.1 c -5.3,1.9 -8.3,7.7 -6.7,13.2 1.7,5.8 7.8,9.3 13.4,7.4 0.2,0 86.5,-28.1 86.5,-28.1 z"
             class="st2"
             inkscape:connector-curvature="0"
             style="fill:#e01a59" />
          <path
             id="path5375"
             d="m 102,183.1 c 5.6,-1.8 12.9,-4.2 20.7,-6.7 -1.8,-5.6 -4.2,-12.9 -6.7,-20.7 l -20.7,6.7 6.7,20.7 z"
             class="st3"
             inkscape:connector-curvature="0"
             style="fill:#331433" />
          <path
             id="path5377"
             d="m 145.6,168.9 c 7.8,-2.5 15.1,-4.9 20.7,-6.7 -1.8,-5.6 -4.2,-12.9 -6.7,-20.7 l -20.7,6.7 6.7,20.7 z"
             class="st4"
             inkscape:connector-curvature="0"
             style="fill:#d62027" />
          <path
             id="path5379"
             d="m 163,115.1 c 5.7,-1.9 8.8,-8 7,-13.7 -1.9,-5.7 -8,-8.8 -13.7,-7 l -86.4,28.1 c -5.3,1.9 -8.3,7.7 -6.7,13.2 1.7,5.8 7.8,9.3 13.4,7.4 0.2,0 86.4,-28 86.4,-28 z"
             class="st5"
             inkscape:connector-curvature="0"
             style="fill:#89d3df" />
          <path
             id="path5381"
             d="m 87.9,139.5 c 5.6,-1.8 12.9,-4.2 20.7,-6.7 -2.5,-7.8 -4.9,-15.1 -6.7,-20.7 l -20.7,6.7 6.7,20.7 z"
             class="st6"
             inkscape:connector-curvature="0"
             style="fill:#258b74" />
          <path
             id="path5383"
             d="m 131.4,125.4 c 7.8,-2.5 15.1,-4.9 20.7,-6.7 -2.5,-7.8 -4.9,-15.1 -6.7,-20.7 l -20.7,6.7 6.7,20.7 z"
             class="st7"
             inkscape:connector-curvature="0"
             style="fill:#819c3c" />
        </g>
      </g>
      <path
         id="path5385"
         d="m 264.8,109.8 c 3.8,1.7 4.1,2.9 1.1,8.6 -3.1,5.8 -3.8,6.2 -7.6,4.7 -4.7,-2 -10.8,-3.5 -14.7,-3.5 -6.4,0 -10.6,2.3 -10.6,5.8 0,11.5 36.6,5.3 36.6,29.7 0,12.3 -10.6,20.5 -26.4,20.5 -8.3,0 -18.6,-2.8 -25.7,-6.4 -3.5,-1.8 -3.8,-2.8 -0.7,-8.7 2.6,-5.1 3.5,-5.7 7.3,-4.1 6,2.6 13.7,4.7 18.8,4.7 5.8,0 9.7,-2.4 9.7,-5.8 0,-11.1 -37.3,-5.8 -37.3,-29.5 0,-12.6 10.5,-21 26.2,-21 7.6,-0.1 16.9,2.1 23.3,5 z"
         class="st8"
         inkscape:connector-curvature="0"
         style="fill:#2d333a" />
      <path
         id="path5387"
         d="m 294.4,80.8 0,91.2 c 0,1.4 -1.5,2.8 -3.5,2.8 l -9.6,0 c -2.1,0 -3.5,-1.5 -3.5,-2.8 l 0,-91.2 c 0,-4.5 1.3,-4.9 8.3,-4.9 8,-0.1 8.3,0.5 8.3,4.9 z"
         class="st8"
         inkscape:connector-curvature="0"
         style="fill:#2d333a" />
      <path
         id="path5389"
         d="m 362.6,132 0,39.3 c 0,2.1 -1.5,3.5 -3.5,3.5 l -9.5,0 c -2.2,0 -3.7,-1.6 -3.5,-3.8 l 0.1,-4.2 c -5.1,5.7 -12.5,8.7 -19.9,8.7 -14.3,0 -23.9,-8.3 -23.9,-20.6 0,-13.1 10.8,-22 27.1,-22 6.2,0 11.8,1.1 16.4,3 l 0,-4.5 c 0,-7.2 -5.7,-11.5 -15.4,-11.5 -4.5,0 -10.1,1.8 -14.5,4.4 -3.4,1.9 -4.2,1.8 -7.9,-3.7 -3.6,-5.5 -3.5,-6.5 0,-8.8 6.7,-4.3 15.7,-7.1 24,-7.1 18.7,0 30.5,10.1 30.5,27.3 z m -44.2,22.8 c 0,4.7 4,7.8 9.9,7.8 7.2,0 13.8,-3.5 17.6,-9.4 l 0,-6.1 c -3.8,-1.5 -8.5,-2.3 -12.6,-2.3 -9,0 -14.9,4.2 -14.9,10 z"
         class="st8"
         inkscape:connector-curvature="0"
         style="fill:#2d333a" />
      <path
         id="path5391"
         d="m 427.6,109.9 c 3.5,2 3.6,3.1 -0.2,9 -3.6,5.6 -4.2,5.9 -8.1,4 -2.9,-1.5 -7.6,-2.8 -11.4,-2.8 -12,0 -20,7.9 -20,19.9 0,12.4 8,20.8 20,20.8 4.2,0 9.4,-1.6 12.8,-3.5 3.5,-2 4.2,-1.9 7.9,3.5 3.3,5 3.3,6.2 0.3,8.3 -5.4,3.7 -13.8,6.5 -21.3,6.5 -22.2,0 -37.1,-14.2 -37.1,-35.6 0,-21.2 14.9,-35.3 37.3,-35.3 6.8,0 14.8,2.3 19.8,5.2 z"
         class="st8"
         inkscape:connector-curvature="0"
         style="fill:#2d333a" />
      <path
         id="path5393"
         d="m 500.2,166.2 c 2.8,3.5 1.7,4.8 -5.3,7.3 -7.1,2.6 -8.1,2.4 -10.6,-0.8 l -19.9,-26.5 -8.9,8.6 0,17.2 c 0,1.4 -1.5,2.8 -3.5,2.8 l -9.6,0 c -2.1,0 -3.5,-1.5 -3.5,-2.8 l 0,-91.2 c 0,-4.5 1.3,-4.9 8.3,-4.9 8.1,0 8.3,0.6 8.3,4.9 l 0,51.8 27.2,-26.1 c 3,-2.8 4.7,-2.6 10,0.9 5.9,3.8 6.3,4.9 3.5,7.6 l -20.2,19.8 24.2,31.4 z"
         class="st8"
         inkscape:connector-curvature="0"
         style="fill:#2d333a" />
    </g>
  </g>
  <style
     id="style5170"
     type="text/css">
	.st0{fill:#FFFFFF;}
	.st1{fill:#F48120;}
	.st2{fill:#FAAD3F;}
	.st3{fill:#404041;}
</style>
  <style
     id="style5363"
     type="text/css">
	.st0{fill:#ECB32D;}
	.st1{fill:#63C1A0;}
	.st2{fill:#E01A59;}
	.st3{fill:#331433;}
	.st4{fill:#D62027;}
	.st5{fill:#89D3DF;}
	.st6{fill:#258B74;}
	.st7{fill:#819C3C;}
	.st8{fill:#2D333A;}
</style>
</svg>
