<?xml version="1.0" encoding="UTF-8" standalone="no"?>
<!-- Created with Inkscape (http://www.inkscape.org/) -->

<svg
   xmlns:dc="http://purl.org/dc/elements/1.1/"
   xmlns:cc="http://creativecommons.org/ns#"
   xmlns:rdf="http://www.w3.org/1999/02/22-rdf-syntax-ns#"
   xmlns:svg="http://www.w3.org/2000/svg"
   xmlns="http://www.w3.org/2000/svg"
   xmlns:xlink="http://www.w3.org/1999/xlink"
   xmlns:sodipodi="http://sodipodi.sourceforge.net/DTD/sodipodi-0.dtd"
   xmlns:inkscape="http://www.inkscape.org/namespaces/inkscape"
   width="210mm"
   height="297mm"
   viewBox="0 0 744.09448819 1052.3622047"
   id="svg6770"
   version="1.1"
   inkscape:version="0.91 r13725"
   sodipodi:docname="lombok-dev-1-meetup.svg">
  <defs
     id="defs6772">
    <clipPath
       id="clipPath7429"
       clipPathUnits="userSpaceOnUse">
      <path
         inkscape:connector-curvature="0"
         id="path7431"
         d="m 0,9.05859 1380,0 0,1650.00001 -1380,0 L 0,9.05859 Z" />
    </clipPath>
  </defs>
  <sodipodi:namedview
     id="base"
     pagecolor="#ffffff"
     bordercolor="#666666"
     borderopacity="1.0"
     inkscape:pageopacity="0.0"
     inkscape:pageshadow="2"
     inkscape:zoom="0.175"
     inkscape:cx="-859.76462"
     inkscape:cy="793.13779"
     inkscape:document-units="px"
     inkscape:current-layer="layer1"
     showgrid="false"
     inkscape:window-width="1366"
     inkscape:window-height="714"
     inkscape:window-x="0"
     inkscape:window-y="0"
     inkscape:window-maximized="1" />
  <metadata
     id="metadata6775">
    <rdf:RDF>
      <cc:Work
         rdf:about="">
        <dc:format>image/svg+xml</dc:format>
        <dc:type
           rdf:resource="http://purl.org/dc/dcmitype/StillImage" />
        <dc:title></dc:title>
      </cc:Work>
    </rdf:RDF>
  </metadata>
  <g
     inkscape:label="Layer 1"
     inkscape:groupmode="layer"
     id="layer1">
    <rect
       style="opacity:1;fill:#3498db;fill-opacity:1;stroke:none;stroke-width:2;stroke-linecap:round;stroke-linejoin:round;stroke-miterlimit:4;stroke-dasharray:none;stroke-dashoffset:0"
       id="rect7372"
       width="747.51288"
       height="1054.5992"
       x="-2.0203052"
       y="-2.237052" />
    <circle
       r="105.05587"
       cy="372.42593"
       cx="196.66286"
       id="circle7380"
       style="opacity:1;fill:#ecf0f1;fill-opacity:1;stroke:none;stroke-width:2;stroke-linecap:round;stroke-linejoin:round;stroke-miterlimit:4;stroke-dasharray:none;stroke-dashoffset:0" />
    <circle
       style="opacity:1;fill:#ecf0f1;fill-opacity:1;stroke:none;stroke-width:2;stroke-linecap:round;stroke-linejoin:round;stroke-miterlimit:4;stroke-dasharray:none;stroke-dashoffset:0"
       id="path7378"
       cx="386.08133"
       cy="324.4288"
       r="180.29736" />
    <circle
       style="opacity:1;fill:#ecf0f1;fill-opacity:1;stroke:none;stroke-width:2;stroke-linecap:round;stroke-linejoin:round;stroke-miterlimit:4;stroke-dasharray:none;stroke-dashoffset:0"
       id="circle7382"
       cx="519.91174"
       cy="396.66959"
       r="105.05587" />
    <g
       transform="matrix(1.6792909,0,0,1.6792909,-261.58131,-889.41384)"
       id="g5788">
      <g
         style="font-style:normal;font-weight:normal;font-size:30.14860725px;line-height:125%;font-family:sans-serif;letter-spacing:0px;word-spacing:0px;fill:#272822;fill-opacity:1;stroke:none;stroke-width:1px;stroke-linecap:butt;stroke-linejoin:miter;stroke-opacity:1"
         id="text5790">
        <path
           d="m 399.94929,744.94537 0,2.11982 -0.9127,0 q -3.66553,0 -4.91681,-1.08935 -1.23657,-1.08936 -1.23657,-4.3427 l 0,-3.51832 q 0,-2.22287 -0.79493,-3.07669 -0.79493,-0.85381 -2.88532,-0.85381 l -0.89798,0 0,-2.10511 0.89798,0 q 2.10511,0 2.88532,-0.83909 0.79493,-0.85382 0.79493,-3.04725 l 0,-3.53304 q 0,-3.25334 1.23657,-4.32797 1.25128,-1.08936 4.91681,-1.08936 l 0.9127,0 0,2.1051 -1.00102,0 q -2.07566,0 -2.70867,0.64773 -0.633,0.64772 -0.633,2.72338 l 0,3.65081 q 0,2.3112 -0.67717,3.35639 -0.66244,1.04519 -2.28175,1.41321 1.63403,0.39747 2.29647,1.44266 0.66245,1.04519 0.66245,3.34167 l 0,3.65081 q 0,2.07566 0.633,2.72338 0.63301,0.64773 2.70867,0.64773 l 1.00102,0 z"
           style="font-style:normal;font-variant:normal;font-weight:normal;font-stretch:normal;font-family:sans-serif;-inkscape-font-specification:sans-serif;fill:#272822"
           id="path5803"
           inkscape:connector-curvature="0" />
        <path
           d="m 421.39779,732.66805 q 0,2.35536 -0.76549,4.12188 -0.76549,1.76652 -2.11982,2.97364 -1.35434,1.17768 -3.20918,1.79597 -1.82541,0.58884 -3.97467,0.58884 l -5.74119,0 0,-18.93121 5.74119,0 q 2.26703,0 4.12188,0.64772 1.85484,0.64773 3.17973,1.85485 1.32489,1.20712 2.0315,2.97364 0.73605,1.73708 0.73605,3.97467 z m -3.88634,0 q 0,-6.4478 -6.18282,-6.4478 l -1.85485,0 0,12.92504 1.85485,0 q 6.18282,0 6.18282,-6.47724 z"
           style="font-style:normal;font-variant:normal;font-weight:bold;font-stretch:normal;font-family:'Padauk Book';-inkscape-font-specification:'Padauk Book, Bold';fill:#00ccff"
           id="path5805"
           inkscape:connector-curvature="0" />
        <path
           d="m 424.72473,742.14838 0,-18.93121 12.48341,0 0,3.00308 -8.74427,0 0,4.68128 8.21432,0 0,2.85588 -8.21432,0 0,5.38788 9.00925,0 0,3.00309 -12.74839,0 z"
           style="font-style:normal;font-variant:normal;font-weight:bold;font-stretch:normal;font-family:'Padauk Book';-inkscape-font-specification:'Padauk Book, Bold';fill:#00ccff"
           id="path5807"
           inkscape:connector-curvature="0" />
        <path
           d="m 451.16365,742.14838 -4.6224,0 -6.97775,-18.93121 4.18076,0 5.21124,14.57379 5.27012,-14.57379 4.15132,0 -7.21329,18.93121 z"
           style="font-style:normal;font-variant:normal;font-weight:bold;font-stretch:normal;font-family:'Padauk Book';-inkscape-font-specification:'Padauk Book, Bold';fill:#00ccff"
           id="path5809"
           inkscape:connector-curvature="0" />
        <path
           d="m 462.43993,744.94537 1.03047,0 q 2.06094,0 2.67922,-0.63301 0.63301,-0.633 0.63301,-2.7381 l 0,-3.65081 q 0,-2.29648 0.66244,-3.34167 0.66245,-1.04519 2.29648,-1.44266 -1.63403,-0.36802 -2.29648,-1.41321 -0.66244,-1.04519 -0.66244,-3.35639 l 0,-3.65081 q 0,-2.09038 -0.63301,-2.72338 -0.61828,-0.64773 -2.67922,-0.64773 l -1.03047,0 0,-2.1051 0.92743,0 q 3.66552,0 4.88737,1.08936 1.23656,1.07463 1.23656,4.32797 l 0,3.53304 q 0,2.19343 0.79493,3.04725 0.79494,0.83909 2.88532,0.83909 l 0.9127,0 0,2.10511 -0.9127,0 q -2.09038,0 -2.88532,0.85381 -0.79493,0.85382 -0.79493,3.07669 l 0,3.51832 q 0,3.25334 -1.23656,4.3427 -1.22185,1.08935 -4.88737,1.08935 l -0.92743,0 0,-2.11982 z"
           style="fill:#272822"
           id="path5811"
           inkscape:connector-curvature="0" />
      </g>
      <g
         style="font-style:normal;font-weight:normal;font-size:30.14860725px;line-height:125%;font-family:sans-serif;letter-spacing:0px;word-spacing:0px;fill:#272822;fill-opacity:1;stroke:none;stroke-width:1px;stroke-linecap:butt;stroke-linejoin:miter;stroke-opacity:1"
         id="text5798">
        <path
           d="m 273.42861,742.61957 0,-18.93121 3.88634,0 0,15.92812 8.56762,0 0,3.00309 -12.45396,0 z"
           style="font-style:normal;font-variant:normal;font-weight:bold;font-stretch:normal;font-family:'Padauk Book';-inkscape-font-specification:'Padauk Book, Bold';fill:#272822"
           id="path5814"
           inkscape:connector-curvature="0" />
        <path
           d="m 305.90313,733.13924 q 0,2.14927 -0.58884,3.94523 -0.58884,1.79596 -1.73708,3.12085 -1.14823,1.29545 -2.82643,2.0315 -1.64875,0.73605 -3.79802,0.73605 -2.26703,0 -3.97467,-0.76549 -1.67819,-0.79493 -2.79699,-2.11982 -1.11879,-1.32489 -1.67819,-3.12086 -0.5594,-1.79596 -0.5594,-3.82746 0,-2.14926 0.58884,-3.94522 0.61828,-1.79597 1.76652,-3.09141 1.14824,-1.29545 2.82643,-2.0315 1.6782,-0.73605 3.82746,-0.73605 2.2376,0 3.91579,0.79493 1.70764,0.76549 2.79699,2.11983 1.1188,1.32489 1.67819,3.12085 0.5594,1.76652 0.5594,3.76857 z m -3.97467,0 q 0,-6.8011 -4.9757,-6.8011 -5.00514,0 -5.00514,6.8011 0,6.83055 5.00514,6.83055 4.9757,0 4.9757,-6.83055 z"
           style="font-style:normal;font-variant:normal;font-weight:bold;font-stretch:normal;font-family:'Padauk Book';-inkscape-font-specification:'Padauk Book, Bold';fill:#272822"
           id="path5816"
           inkscape:connector-curvature="0" />
        <path
           d="m 326.21811,742.61957 0,-15.72203 -4.7696,15.72203 -3.79802,0 -4.7696,-15.72203 0,15.72203 -3.65081,0 0,-18.93121 6.27114,0 4.063,13.69053 4.063,-13.77885 6.30058,0 0,19.01953 -3.70969,0 z"
           style="font-style:normal;font-variant:normal;font-weight:bold;font-stretch:normal;font-family:'Padauk Book';-inkscape-font-specification:'Padauk Book, Bold';fill:#272822"
           id="path5818"
           inkscape:connector-curvature="0" />
        <path
           d="m 348.00519,737.7322 q 0,1.20712 -0.61828,2.11982 -0.61828,0.9127 -1.56043,1.53098 -0.94214,0.61829 -2.06094,0.94215 -1.11879,0.29442 -2.11982,0.29442 l -8.03767,0 0,-18.93121 7.77269,0 q 1.1188,0 2.14927,0.29442 1.03047,0.29442 1.79596,0.88326 0.79493,0.5594 1.26601,1.44266 0.47107,0.85382 0.47107,2.00206 0,0.94214 -0.32386,1.64875 -0.29442,0.67716 -0.79494,1.20712 -0.50051,0.52996 -1.20712,0.94214 -0.67717,0.38275 -1.41322,0.70661 1.03047,0.32386 1.88429,0.70661 0.85382,0.38275 1.4721,0.97159 0.61828,0.55939 0.97159,1.35433 0.3533,0.79493 0.3533,1.88429 z m -4.82849,-8.65595 q 0,-0.61828 -0.26497,-1.05991 -0.26498,-0.44163 -0.67717,-0.73605 -0.41219,-0.29442 -0.94214,-0.44163 -0.50052,-0.14721 -1.03047,-0.14721 l -2.76755,0 0,4.68127 2.50257,0 q 0.58884,0 1.14824,-0.14721 0.58884,-0.14721 1.03047,-0.44163 0.44163,-0.29442 0.7066,-0.7066 0.29442,-0.44163 0.29442,-1.00103 z m 0.79494,7.89045 q 0,-0.73605 -0.35331,-1.23656 -0.32386,-0.52996 -0.85381,-0.82438 -0.52996,-0.32386 -1.20713,-0.44163 -0.64772,-0.14721 -1.29544,-0.14721 l -2.76755,0 0,5.29956 2.76755,0 q 0.76549,0 1.44265,-0.14721 0.67717,-0.14721 1.17768,-0.44163 0.50052,-0.32386 0.79494,-0.82437 0.29442,-0.50052 0.29442,-1.23657 z"
           style="font-style:normal;font-variant:normal;font-weight:bold;font-stretch:normal;font-family:'Padauk Book';-inkscape-font-specification:'Padauk Book, Bold';fill:#272822"
           id="path5820"
           inkscape:connector-curvature="0" />
        <path
           d="m 368.79125,733.13924 q 0,2.14927 -0.58884,3.94523 -0.58884,1.79596 -1.73708,3.12085 -1.14824,1.29545 -2.82643,2.0315 -1.64876,0.73605 -3.79802,0.73605 -2.26703,0 -3.97467,-0.76549 -1.67819,-0.79493 -2.79699,-2.11982 -1.1188,-1.32489 -1.67819,-3.12086 -0.5594,-1.79596 -0.5594,-3.82746 0,-2.14926 0.58884,-3.94522 0.61828,-1.79597 1.76652,-3.09141 1.14824,-1.29545 2.82643,-2.0315 1.67819,-0.73605 3.82746,-0.73605 2.23759,0 3.91578,0.79493 1.70764,0.76549 2.79699,2.11983 1.1188,1.32489 1.6782,3.12085 0.5594,1.76652 0.5594,3.76857 z m -3.97467,0 q 0,-6.8011 -4.9757,-6.8011 -5.00514,0 -5.00514,6.8011 0,6.83055 5.00514,6.83055 4.9757,0 4.9757,-6.83055 z"
           style="font-style:normal;font-variant:normal;font-weight:bold;font-stretch:normal;font-family:'Padauk Book';-inkscape-font-specification:'Padauk Book, Bold';fill:#272822"
           id="path5822"
           inkscape:connector-curvature="0" />
        <path
           d="m 382.83508,742.61957 -6.83055,-9.48033 0,9.48033 -3.88634,0 0,-18.93121 3.88634,0 0,8.12599 6.30059,-8.12599 4.47519,0 -6.68334,8.4793 7.47827,10.45191 -4.74016,0 z"
           style="font-style:normal;font-variant:normal;font-weight:bold;font-stretch:normal;font-family:'Padauk Book';-inkscape-font-specification:'Padauk Book, Bold';fill:#272822"
           id="path5824"
           inkscape:connector-curvature="0" />
      </g>
    </g>
    <circle
       r="39.395954"
       cy="518.20477"
       cx="257.99509"
       id="circle7384"
       style="opacity:1;fill:#ecf0f1;fill-opacity:1;stroke:none;stroke-width:2;stroke-linecap:round;stroke-linejoin:round;stroke-miterlimit:4;stroke-dasharray:none;stroke-dashoffset:0" />
    <circle
       style="opacity:1;fill:#ecf0f1;fill-opacity:1;stroke:none;stroke-width:2;stroke-linecap:round;stroke-linejoin:round;stroke-miterlimit:4;stroke-dasharray:none;stroke-dashoffset:0"
       id="circle7386"
       cx="613.8559"
       cy="256.25839"
       r="39.395954" />
    <circle
       r="39.395954"
       cy="207.77104"
       cx="201.71367"
       id="circle7388"
       style="opacity:1;fill:#ecf0f1;fill-opacity:1;stroke:none;stroke-width:2;stroke-linecap:round;stroke-linejoin:round;stroke-miterlimit:4;stroke-dasharray:none;stroke-dashoffset:0" />
    <text
       xml:space="preserve"
       style="font-style:normal;font-weight:normal;font-size:38.27706909px;line-height:125%;font-family:sans-serif;letter-spacing:0px;word-spacing:0px;fill:#000000;fill-opacity:1;stroke:none;stroke-width:1px;stroke-linecap:butt;stroke-linejoin:miter;stroke-opacity:1"
       x="235.55945"
       y="415.67865"
       id="text7390"
       sodipodi:linespacing="125%"><tspan
         sodipodi:role="line"
         id="tspan7392"
         x="235.55945"
         y="415.67865"
         style="font-style:normal;font-variant:normal;font-weight:bold;font-stretch:normal;font-family:Purisa;-inkscape-font-specification:Purisa">#1 Meet Up!</tspan></text>
    <g
       id="g7469"
       transform="matrix(0.14974505,0.06490012,-0.06490012,0.14974505,452.49757,109.00309)">
      <rect
         id="rect7459"
         height="630"
         width="630"
         x="0"
         y="0"
         style="fill:#f7df1e" />
      <path
         id="path7461"
         d="m 423.2,492.19 c 12.69,20.72 29.2,35.95 58.4,35.95 24.53,0 40.2,-12.26 40.2,-29.2 0,-20.3 -16.1,-27.49 -43.1,-39.3 l -14.8,-6.35 c -42.72,-18.2 -71.1,-41 -71.1,-89.2 0,-44.4 33.83,-78.2 86.7,-78.2 37.64,0 64.7,13.1 84.2,47.4 l -46.1,29.6 c -10.15,-18.2 -21.1,-25.37 -38.1,-25.37 -17.34,0 -28.33,11 -28.33,25.37 0,17.76 11,24.95 36.4,35.95 l 14.8,6.34 c 50.3,21.57 78.7,43.56 78.7,93 0,53.3 -41.87,82.5 -98.1,82.5 -54.98,0 -90.5,-26.2 -107.88,-60.54 z m -209.13,5.13 c 9.3,16.5 17.76,30.45 38.1,30.45 19.45,0 31.72,-7.61 31.72,-37.2 l 0,-201.3 59.2,0 0,202.1 c 0,61.3 -35.94,89.2 -88.4,89.2 -47.4,0 -74.85,-24.53 -88.81,-54.075 z"
         inkscape:connector-curvature="0" />
    </g>
    <g
       id="g7506"
       transform="matrix(0.5018459,-0.20522698,0.20522698,0.5018459,349.41747,123.5767)">
      <g
         id="g7475"
         style="fill:#a4c639">
        <use
           id="use7477"
           xlink:href="#b"
           style="stroke:#ffffff;stroke-width:14.39999962"
           x="0"
           y="0"
           width="100%"
           height="100%" />
        <use
           id="use7479"
           transform="scale(-1,1)"
           xlink:href="#a"
           x="0"
           y="0"
           width="100%"
           height="100%" />
        <g
           id="a"
           style="stroke:#ffffff;stroke-width:7.19999981">
          <rect
             id="rect7482"
             x="14"
             y="-86"
             width="13"
             height="86"
             transform="matrix(0.87461971,0.48480962,-0.48480962,0.87461971,0,0)"
             rx="6.5" />
          <rect
             x="-143"
             y="41"
             width="48"
             height="133"
             rx="24"
             id="c" />
          <use
             id="use7485"
             xlink:href="#c"
             x="85"
             y="97"
             width="100%"
             height="100%" />
        </g>
        <g
           id="b">
          <ellipse
             id="ellipse7488"
             ry="84"
             rx="91"
             cy="41"
             cx="0" />
          <rect
             id="rect7490"
             x="-91"
             y="20"
             width="182"
             height="182"
             rx="22" />
        </g>
      </g>
      <g
         id="g7492"
         style="fill:#ffffff;stroke:#ffffff;stroke-width:7.19999981">
        <path
           id="path7494"
           d="m -95,44.5 190,0"
           inkscape:connector-curvature="0" />
        <circle
           id="circle7496"
           r="4"
           cx="-42"
           cy="0" />
        <circle
           id="circle7498"
           r="4"
           cx="42"
           cy="0" />
      </g>
    </g>
    <text
       xml:space="preserve"
       style="font-style:normal;font-weight:normal;font-size:26.54348755px;line-height:125%;font-family:sans-serif;letter-spacing:0px;word-spacing:0px;fill:#ffffff;fill-opacity:1;stroke:none;stroke-width:1px;stroke-linecap:butt;stroke-linejoin:miter;stroke-opacity:1"
       x="371.21124"
       y="634.16821"
       id="text7522"
       sodipodi:linespacing="125%"><tspan
         sodipodi:role="line"
         id="tspan7524"
         x="371.21124"
         y="634.16821"
         style="font-style:normal;font-variant:normal;font-weight:500;font-stretch:normal;font-family:Roboto;-inkscape-font-specification:'Roboto Medium';text-align:center;text-anchor:middle;fill:#ffffff">Topik:</tspan><tspan
         sodipodi:role="line"
         x="371.21124"
         y="667.3476"
         id="tspan7526"
         style="font-style:normal;font-variant:normal;font-weight:500;font-stretch:normal;font-family:Roboto;-inkscape-font-specification:'Roboto Medium';text-align:center;text-anchor:middle;fill:#ffffff"><tspan
   style="font-weight:normal"
   id="tspan7534">Javascript ES6</tspan> oleh Nino</tspan><tspan
         sodipodi:role="line"
         x="374.52917"
         y="700.52692"
         id="tspan7528"
         style="font-style:normal;font-variant:normal;font-weight:500;font-stretch:normal;font-family:Roboto;-inkscape-font-specification:'Roboto Medium';text-align:center;text-anchor:middle;fill:#ffffff"><tspan
   style="font-weight:normal"
   id="tspan7536">Java Android</tspan> oleh Sapto Sutardi </tspan></text>
    <rect
       y="888.71747"
       x="-2.0203052"
       height="163.6447"
       width="747.51288"
       id="rect7546"
       style="opacity:1;fill:#2980b9;fill-opacity:1;stroke:none;stroke-width:2;stroke-linecap:round;stroke-linejoin:round;stroke-miterlimit:4;stroke-dasharray:none;stroke-dashoffset:0" />
    <rect
       style="opacity:1;fill:#2980b9;fill-opacity:1;stroke:none;stroke-width:2;stroke-linecap:round;stroke-linejoin:round;stroke-miterlimit:4;stroke-dasharray:none;stroke-dashoffset:0"
       id="rect7550"
       width="938.94147"
       height="409.35898"
       x="-1153.4489"
       y="31.574612"
       inkscape:export-xdpi="90"
       inkscape:export-ydpi="90" />
    <g
       id="g7644"
       transform="translate(20.203051,9.1514885)">
      <circle
         r="70.73381"
         cy="264.35165"
         cx="-1046.2306"
         id="circle7552"
         style="opacity:1;fill:#ecf0f1;fill-opacity:1;stroke:none;stroke-width:2;stroke-linecap:round;stroke-linejoin:round;stroke-miterlimit:4;stroke-dasharray:none;stroke-dashoffset:0" />
      <circle
         style="opacity:1;fill:#ecf0f1;fill-opacity:1;stroke:none;stroke-width:2;stroke-linecap:round;stroke-linejoin:round;stroke-miterlimit:4;stroke-dasharray:none;stroke-dashoffset:0"
         id="circle7554"
         cx="-918.69574"
         cy="232.03531"
         r="121.39369" />
      <circle
         style="opacity:1;fill:#ecf0f1;fill-opacity:1;stroke:none;stroke-width:2;stroke-linecap:round;stroke-linejoin:round;stroke-miterlimit:4;stroke-dasharray:none;stroke-dashoffset:0"
         id="circle7556"
         cx="-828.58807"
         cy="280.6748"
         r="70.73381" />
      <g
         transform="matrix(1.1306617,0,0,1.1306617,-1354.7651,-585.24141)"
         id="g7558">
        <g
           style="font-style:normal;font-weight:normal;font-size:30.14860725px;line-height:125%;font-family:sans-serif;letter-spacing:0px;word-spacing:0px;fill:#272822;fill-opacity:1;stroke:none;stroke-width:1px;stroke-linecap:butt;stroke-linejoin:miter;stroke-opacity:1"
           id="g7560">
          <path
             d="m 399.94929,744.94537 0,2.11982 -0.9127,0 q -3.66553,0 -4.91681,-1.08935 -1.23657,-1.08936 -1.23657,-4.3427 l 0,-3.51832 q 0,-2.22287 -0.79493,-3.07669 -0.79493,-0.85381 -2.88532,-0.85381 l -0.89798,0 0,-2.10511 0.89798,0 q 2.10511,0 2.88532,-0.83909 0.79493,-0.85382 0.79493,-3.04725 l 0,-3.53304 q 0,-3.25334 1.23657,-4.32797 1.25128,-1.08936 4.91681,-1.08936 l 0.9127,0 0,2.1051 -1.00102,0 q -2.07566,0 -2.70867,0.64773 -0.633,0.64772 -0.633,2.72338 l 0,3.65081 q 0,2.3112 -0.67717,3.35639 -0.66244,1.04519 -2.28175,1.41321 1.63403,0.39747 2.29647,1.44266 0.66245,1.04519 0.66245,3.34167 l 0,3.65081 q 0,2.07566 0.633,2.72338 0.63301,0.64773 2.70867,0.64773 l 1.00102,0 z"
             style="font-style:normal;font-variant:normal;font-weight:normal;font-stretch:normal;font-family:sans-serif;-inkscape-font-specification:sans-serif;fill:#272822"
             id="path7562"
             inkscape:connector-curvature="0" />
          <path
             d="m 421.39779,732.66805 q 0,2.35536 -0.76549,4.12188 -0.76549,1.76652 -2.11982,2.97364 -1.35434,1.17768 -3.20918,1.79597 -1.82541,0.58884 -3.97467,0.58884 l -5.74119,0 0,-18.93121 5.74119,0 q 2.26703,0 4.12188,0.64772 1.85484,0.64773 3.17973,1.85485 1.32489,1.20712 2.0315,2.97364 0.73605,1.73708 0.73605,3.97467 z m -3.88634,0 q 0,-6.4478 -6.18282,-6.4478 l -1.85485,0 0,12.92504 1.85485,0 q 6.18282,0 6.18282,-6.47724 z"
             style="font-style:normal;font-variant:normal;font-weight:bold;font-stretch:normal;font-family:'Padauk Book';-inkscape-font-specification:'Padauk Book, Bold';fill:#00ccff"
             id="path7564"
             inkscape:connector-curvature="0" />
          <path
             d="m 424.72473,742.14838 0,-18.93121 12.48341,0 0,3.00308 -8.74427,0 0,4.68128 8.21432,0 0,2.85588 -8.21432,0 0,5.38788 9.00925,0 0,3.00309 -12.74839,0 z"
             style="font-style:normal;font-variant:normal;font-weight:bold;font-stretch:normal;font-family:'Padauk Book';-inkscape-font-specification:'Padauk Book, Bold';fill:#00ccff"
             id="path7566"
             inkscape:connector-curvature="0" />
          <path
             d="m 451.16365,742.14838 -4.6224,0 -6.97775,-18.93121 4.18076,0 5.21124,14.57379 5.27012,-14.57379 4.15132,0 -7.21329,18.93121 z"
             style="font-style:normal;font-variant:normal;font-weight:bold;font-stretch:normal;font-family:'Padauk Book';-inkscape-font-specification:'Padauk Book, Bold';fill:#00ccff"
             id="path7568"
             inkscape:connector-curvature="0" />
          <path
             d="m 462.43993,744.94537 1.03047,0 q 2.06094,0 2.67922,-0.63301 0.63301,-0.633 0.63301,-2.7381 l 0,-3.65081 q 0,-2.29648 0.66244,-3.34167 0.66245,-1.04519 2.29648,-1.44266 -1.63403,-0.36802 -2.29648,-1.41321 -0.66244,-1.04519 -0.66244,-3.35639 l 0,-3.65081 q 0,-2.09038 -0.63301,-2.72338 -0.61828,-0.64773 -2.67922,-0.64773 l -1.03047,0 0,-2.1051 0.92743,0 q 3.66552,0 4.88737,1.08936 1.23656,1.07463 1.23656,4.32797 l 0,3.53304 q 0,2.19343 0.79493,3.04725 0.79494,0.83909 2.88532,0.83909 l 0.9127,0 0,2.10511 -0.9127,0 q -2.09038,0 -2.88532,0.85381 -0.79493,0.85382 -0.79493,3.07669 l 0,3.51832 q 0,3.25334 -1.23656,4.3427 -1.22185,1.08935 -4.88737,1.08935 l -0.92743,0 0,-2.11982 z"
             style="fill:#272822"
             id="path7570"
             inkscape:connector-curvature="0" />
        </g>
        <g
           style="font-style:normal;font-weight:normal;font-size:30.14860725px;line-height:125%;font-family:sans-serif;letter-spacing:0px;word-spacing:0px;fill:#272822;fill-opacity:1;stroke:none;stroke-width:1px;stroke-linecap:butt;stroke-linejoin:miter;stroke-opacity:1"
           id="g7572">
          <path
             d="m 273.42861,742.61957 0,-18.93121 3.88634,0 0,15.92812 8.56762,0 0,3.00309 -12.45396,0 z"
             style="font-style:normal;font-variant:normal;font-weight:bold;font-stretch:normal;font-family:'Padauk Book';-inkscape-font-specification:'Padauk Book, Bold';fill:#272822"
             id="path7574"
             inkscape:connector-curvature="0" />
          <path
             d="m 305.90313,733.13924 q 0,2.14927 -0.58884,3.94523 -0.58884,1.79596 -1.73708,3.12085 -1.14823,1.29545 -2.82643,2.0315 -1.64875,0.73605 -3.79802,0.73605 -2.26703,0 -3.97467,-0.76549 -1.67819,-0.79493 -2.79699,-2.11982 -1.11879,-1.32489 -1.67819,-3.12086 -0.5594,-1.79596 -0.5594,-3.82746 0,-2.14926 0.58884,-3.94522 0.61828,-1.79597 1.76652,-3.09141 1.14824,-1.29545 2.82643,-2.0315 1.6782,-0.73605 3.82746,-0.73605 2.2376,0 3.91579,0.79493 1.70764,0.76549 2.79699,2.11983 1.1188,1.32489 1.67819,3.12085 0.5594,1.76652 0.5594,3.76857 z m -3.97467,0 q 0,-6.8011 -4.9757,-6.8011 -5.00514,0 -5.00514,6.8011 0,6.83055 5.00514,6.83055 4.9757,0 4.9757,-6.83055 z"
             style="font-style:normal;font-variant:normal;font-weight:bold;font-stretch:normal;font-family:'Padauk Book';-inkscape-font-specification:'Padauk Book, Bold';fill:#272822"
             id="path7576"
             inkscape:connector-curvature="0" />
          <path
             d="m 326.21811,742.61957 0,-15.72203 -4.7696,15.72203 -3.79802,0 -4.7696,-15.72203 0,15.72203 -3.65081,0 0,-18.93121 6.27114,0 4.063,13.69053 4.063,-13.77885 6.30058,0 0,19.01953 -3.70969,0 z"
             style="font-style:normal;font-variant:normal;font-weight:bold;font-stretch:normal;font-family:'Padauk Book';-inkscape-font-specification:'Padauk Book, Bold';fill:#272822"
             id="path7578"
             inkscape:connector-curvature="0" />
          <path
             d="m 348.00519,737.7322 q 0,1.20712 -0.61828,2.11982 -0.61828,0.9127 -1.56043,1.53098 -0.94214,0.61829 -2.06094,0.94215 -1.11879,0.29442 -2.11982,0.29442 l -8.03767,0 0,-18.93121 7.77269,0 q 1.1188,0 2.14927,0.29442 1.03047,0.29442 1.79596,0.88326 0.79493,0.5594 1.26601,1.44266 0.47107,0.85382 0.47107,2.00206 0,0.94214 -0.32386,1.64875 -0.29442,0.67716 -0.79494,1.20712 -0.50051,0.52996 -1.20712,0.94214 -0.67717,0.38275 -1.41322,0.70661 1.03047,0.32386 1.88429,0.70661 0.85382,0.38275 1.4721,0.97159 0.61828,0.55939 0.97159,1.35433 0.3533,0.79493 0.3533,1.88429 z m -4.82849,-8.65595 q 0,-0.61828 -0.26497,-1.05991 -0.26498,-0.44163 -0.67717,-0.73605 -0.41219,-0.29442 -0.94214,-0.44163 -0.50052,-0.14721 -1.03047,-0.14721 l -2.76755,0 0,4.68127 2.50257,0 q 0.58884,0 1.14824,-0.14721 0.58884,-0.14721 1.03047,-0.44163 0.44163,-0.29442 0.7066,-0.7066 0.29442,-0.44163 0.29442,-1.00103 z m 0.79494,7.89045 q 0,-0.73605 -0.35331,-1.23656 -0.32386,-0.52996 -0.85381,-0.82438 -0.52996,-0.32386 -1.20713,-0.44163 -0.64772,-0.14721 -1.29544,-0.14721 l -2.76755,0 0,5.29956 2.76755,0 q 0.76549,0 1.44265,-0.14721 0.67717,-0.14721 1.17768,-0.44163 0.50052,-0.32386 0.79494,-0.82437 0.29442,-0.50052 0.29442,-1.23657 z"
             style="font-style:normal;font-variant:normal;font-weight:bold;font-stretch:normal;font-family:'Padauk Book';-inkscape-font-specification:'Padauk Book, Bold';fill:#272822"
             id="path7580"
             inkscape:connector-curvature="0" />
          <path
             d="m 368.79125,733.13924 q 0,2.14927 -0.58884,3.94523 -0.58884,1.79596 -1.73708,3.12085 -1.14824,1.29545 -2.82643,2.0315 -1.64876,0.73605 -3.79802,0.73605 -2.26703,0 -3.97467,-0.76549 -1.67819,-0.79493 -2.79699,-2.11982 -1.1188,-1.32489 -1.67819,-3.12086 -0.5594,-1.79596 -0.5594,-3.82746 0,-2.14926 0.58884,-3.94522 0.61828,-1.79597 1.76652,-3.09141 1.14824,-1.29545 2.82643,-2.0315 1.67819,-0.73605 3.82746,-0.73605 2.23759,0 3.91578,0.79493 1.70764,0.76549 2.79699,2.11983 1.1188,1.32489 1.6782,3.12085 0.5594,1.76652 0.5594,3.76857 z m -3.97467,0 q 0,-6.8011 -4.9757,-6.8011 -5.00514,0 -5.00514,6.8011 0,6.83055 5.00514,6.83055 4.9757,0 4.9757,-6.83055 z"
             style="font-style:normal;font-variant:normal;font-weight:bold;font-stretch:normal;font-family:'Padauk Book';-inkscape-font-specification:'Padauk Book, Bold';fill:#272822"
             id="path7582"
             inkscape:connector-curvature="0" />
          <path
             d="m 382.83508,742.61957 -6.83055,-9.48033 0,9.48033 -3.88634,0 0,-18.93121 3.88634,0 0,8.12599 6.30059,-8.12599 4.47519,0 -6.68334,8.4793 7.47827,10.45191 -4.74016,0 z"
             style="font-style:normal;font-variant:normal;font-weight:bold;font-stretch:normal;font-family:'Padauk Book';-inkscape-font-specification:'Padauk Book, Bold';fill:#272822"
             id="path7584"
             inkscape:connector-curvature="0" />
        </g>
      </g>
      <circle
         r="26.525181"
         cy="362.50409"
         cx="-1004.9359"
         id="circle7586"
         style="opacity:1;fill:#ecf0f1;fill-opacity:1;stroke:none;stroke-width:2;stroke-linecap:round;stroke-linejoin:round;stroke-miterlimit:4;stroke-dasharray:none;stroke-dashoffset:0" />
      <circle
         style="opacity:1;fill:#ecf0f1;fill-opacity:1;stroke:none;stroke-width:2;stroke-linecap:round;stroke-linejoin:round;stroke-miterlimit:4;stroke-dasharray:none;stroke-dashoffset:0"
         id="circle7588"
         cx="-765.33575"
         cy="186.13638"
         r="26.525181" />
      <circle
         r="26.525181"
         cy="153.48999"
         cx="-1042.8298"
         id="circle7590"
         style="opacity:1;fill:#ecf0f1;fill-opacity:1;stroke:none;stroke-width:2;stroke-linecap:round;stroke-linejoin:round;stroke-miterlimit:4;stroke-dasharray:none;stroke-dashoffset:0" />
      <text
         xml:space="preserve"
         style="font-style:normal;font-weight:normal;font-size:25.77183914px;line-height:125%;font-family:sans-serif;letter-spacing:0px;word-spacing:0px;fill:#000000;fill-opacity:1;stroke:none;stroke-width:1px;stroke-linecap:butt;stroke-linejoin:miter;stroke-opacity:1"
         x="-1020.0417"
         y="293.47357"
         id="text7592"
         sodipodi:linespacing="125%"><tspan
           sodipodi:role="line"
           id="tspan7594"
           x="-1020.0417"
           y="293.47357"
           style="font-style:normal;font-variant:normal;font-weight:bold;font-stretch:normal;font-family:Purisa;-inkscape-font-specification:Purisa">#1 Meet Up!</tspan></text>
      <g
         id="g7596"
         transform="matrix(0.10082291,0.04369706,-0.04369706,0.10082291,-873.97786,86.98981)">
        <rect
           id="rect7598"
           height="630"
           width="630"
           x="0"
           y="0"
           style="fill:#f7df1e" />
        <path
           id="path7600"
           d="m 423.2,492.19 c 12.69,20.72 29.2,35.95 58.4,35.95 24.53,0 40.2,-12.26 40.2,-29.2 0,-20.3 -16.1,-27.49 -43.1,-39.3 l -14.8,-6.35 c -42.72,-18.2 -71.1,-41 -71.1,-89.2 0,-44.4 33.83,-78.2 86.7,-78.2 37.64,0 64.7,13.1 84.2,47.4 l -46.1,29.6 c -10.15,-18.2 -21.1,-25.37 -38.1,-25.37 -17.34,0 -28.33,11 -28.33,25.37 0,17.76 11,24.95 36.4,35.95 l 14.8,6.34 c 50.3,21.57 78.7,43.56 78.7,93 0,53.3 -41.87,82.5 -98.1,82.5 -54.98,0 -90.5,-26.2 -107.88,-60.54 z m -209.13,5.13 c 9.3,16.5 17.76,30.45 38.1,30.45 19.45,0 31.72,-7.61 31.72,-37.2 l 0,-201.3 59.2,0 0,202.1 c 0,61.3 -35.94,89.2 -88.4,89.2 -47.4,0 -74.85,-24.53 -88.81,-54.075 z"
           inkscape:connector-curvature="0" />
      </g>
      <g
         id="g7602"
         transform="matrix(0.33789138,-0.13817873,0.13817873,0.33789138,-943.38139,96.80218)">
        <g
           id="g7604"
           style="fill:#a4c639">
          <use
             id="use7606"
             xlink:href="#b"
             style="stroke:#ffffff;stroke-width:14.39999962"
             x="0"
             y="0"
             width="100%"
             height="100%" />
          <use
             id="use7608"
             transform="scale(-1,1)"
             xlink:href="#a"
             x="0"
             y="0"
             width="100%"
             height="100%" />
          <g
             id="g7610"
             style="stroke:#ffffff;stroke-width:7.19999981">
            <rect
               id="rect7612"
               x="14"
               y="-86"
               width="13"
               height="86"
               transform="matrix(0.87461971,0.48480962,-0.48480962,0.87461971,0,0)"
               rx="6.5" />
            <rect
               x="-143"
               y="41"
               width="48"
               height="133"
               rx="24"
               id="rect7614" />
            <use
               id="use7616"
               xlink:href="#c"
               x="85"
               y="97"
               width="100%"
               height="100%" />
          </g>
          <g
             id="g7618">
            <ellipse
               id="ellipse7620"
               ry="84"
               rx="91"
               cy="41"
               cx="0" />
            <rect
               id="rect7622"
               x="-91"
               y="20"
               width="182"
               height="182"
               rx="22" />
          </g>
        </g>
        <g
           id="g7624"
           style="fill:#ffffff;stroke:#ffffff;stroke-width:7.19999981">
          <path
             id="path7626"
             d="m -95,44.5 190,0"
             inkscape:connector-curvature="0" />
          <circle
             id="circle7628"
             r="4"
             cx="-42"
             cy="0" />
          <circle
             id="circle7630"
             r="4"
             cx="42"
             cy="0" />
        </g>
      </g>
    </g>
    <g
       id="g7716"
       transform="translate(0,-35.311333)">
      <text
         xml:space="preserve"
         style="font-style:normal;font-weight:normal;font-size:26.54348755px;line-height:125%;font-family:sans-serif;letter-spacing:0px;word-spacing:0px;fill:#ffffff;fill-opacity:1;stroke:none;stroke-width:1px;stroke-linecap:butt;stroke-linejoin:miter;stroke-opacity:1"
         x="-679.34741"
         y="210.33273"
         id="text7632"
         sodipodi:linespacing="125%"><tspan
           sodipodi:role="line"
           id="tspan7634"
           x="-679.34741"
           y="210.33273"
           style="font-style:normal;font-variant:normal;font-weight:500;font-stretch:normal;font-family:Roboto;-inkscape-font-specification:'Roboto Medium';text-align:start;text-anchor:start;fill:#ffffff">Topik:</tspan><tspan
           sodipodi:role="line"
           x="-679.34741"
           y="243.51208"
           id="tspan7636"
           style="font-style:normal;font-variant:normal;font-weight:500;font-stretch:normal;font-family:Roboto;-inkscape-font-specification:'Roboto Medium';text-align:start;text-anchor:start;fill:#ffffff"><tspan
   style="font-weight:normal;text-align:start;text-anchor:start"
   id="tspan7638">Javascript ES6</tspan> oleh Nino</tspan><tspan
           id="tspan7688"
           sodipodi:role="line"
           x="-679.34741"
           y="276.69147"
           style="font-style:normal;font-variant:normal;font-weight:500;font-stretch:normal;font-size:26.54348755px;font-family:Roboto;-inkscape-font-specification:'Roboto Medium';text-align:start;text-anchor:start;fill:#ffffff"><tspan
   style="font-weight:normal;text-align:start;text-anchor:start"
   id="tspan7642">Java Android</tspan> oleh Sapto Sutardi </tspan></text>
      <text
         sodipodi:linespacing="125%"
         id="text7696"
         y="327.51044"
         x="-679.34741"
         style="font-style:normal;font-weight:normal;font-size:26.54348755px;line-height:125%;font-family:sans-serif;letter-spacing:0px;word-spacing:0px;fill:#ffffff;fill-opacity:1;stroke:none;stroke-width:1px;stroke-linecap:butt;stroke-linejoin:miter;stroke-opacity:1"
         xml:space="preserve"><tspan
           id="tspan7714"
           style="font-style:normal;font-variant:normal;font-weight:300;font-stretch:normal;font-size:20px;font-family:Roboto;-inkscape-font-specification:'Roboto Light';text-align:start;text-anchor:start;fill:#ffffff"
           y="327.51044"
           x="-679.34741"
           sodipodi:role="line">Minggu, 04 Desember 2016,</tspan><tspan
           style="font-style:normal;font-variant:normal;font-weight:300;font-stretch:normal;font-size:20px;font-family:Roboto;-inkscape-font-specification:'Roboto Light';text-align:start;text-anchor:start;fill:#ffffff"
           y="352.51044"
           x="-679.34741"
           sodipodi:role="line"
           id="tspan7729">16:00 WIB, di Rumah Makan Baca</tspan></text>
    </g>
  </g>
</svg>
